<?xml version="1.0" encoding="utf-8"?>
<!-- Generator: Adobe Illustrator 16.0.0, SVG Export Plug-In . SVG Version: 6.00 Build 0)  -->
<!DOCTYPE svg PUBLIC "-//W3C//DTD SVG 1.0//EN" "http://www.w3.org/TR/2001/REC-SVG-20010904/DTD/svg10.dtd">
<svg version="1.0" id="Layer_1" xmlns="http://www.w3.org/2000/svg" xmlns:xlink="http://www.w3.org/1999/xlink" x="0px" y="0px"
	 width="338px" height="448px" viewBox="0 0 338 448" enable-background="new 0 0 338 448" xml:space="preserve">
<g>
	<polygon fill="#E6E7E8" points="310.3378906,5.9248047 332.6884766,87.7856445 332.6884766,398.6083984 270.5439453,443 
		247.3818359,75.2993164 	"/>
	<polygon fill="#F1F1F2" points="6.9619141,443 270.5439453,443 270.5439453,93.3398438 310.3378906,5.9248047 
		51.1787109,5.9248047 6.0878906,79.4648438 	"/>
	<polygon fill="#FAAF40" points="4.8740234,185.2290039 270.5234375,185.2290039 333.8916016,146.0830078 332.6679688,300.7128906 
		271.7475586,365.3144531 6.4272461,363.9267578 	"/>
	<polygon fill="#F6921E" points="270.5234375,185.2290039 270.5234375,365.3144531 332.5136719,320.9130859 
		332.5136719,146.0830078 	"/>
	<path fill="#F9EC31" d="M76.5629883,327.2900391c0,0,21.0639648-97.9780273,157.9829102-92.4345703
		c0,0-89.5136719-1.480957-135.1601562,92.4345703C99.3857422,327.2900391,63.3051758,356.9833984,76.5629883,327.2900391z"/>
	<path fill="#F9EC31" d="M92.4638672,317.40625c0,0-34.2705078-16.8271484-22.277832-51.6435547
		C70.1860352,265.7626953,102.7490234,265.1464844,92.4638672,317.40625z"/>
	<path fill="#F9EC31" d="M104.6113281,293.7597656c0,0-21.9902344-31.2060547,5.2348633-55.9931641
		C109.8461914,237.7666016,138.7167969,252.8447266,104.6113281,293.7597656z"/>
	<path fill="#F9EC31" d="M128.8945312,264.6005859c0,0-6.6030273-23.3681641,14.965332-32.4912109
		C143.8598633,232.109375,158.0019531,247.25,128.8945312,264.6005859z"/>
	<path fill="#F9EC31" d="M92.1865234,312.7050781c0,0,26.5361328-14.7695312,43.8461914,8.8457031
		C136.0327148,321.5507812,121.6948242,343.1298828,92.1865234,312.7050781z"/>
	<path fill="#F9EC31" d="M93.4824219,290.2421875c0,0,31.3803711-19.0585938,53.3808594,8.6806641
		C146.8632812,298.9228516,130.5195312,325.6445312,93.4824219,290.2421875z"/>
	<path fill="#F9EC31" d="M121.3867188,281.6542969c0,0,21.4238281-21.4345703,44.4833984-3.4970703
		C165.8701172,278.1572266,158.0126953,302.7802734,121.3867188,281.6542969z"/>
	<path fill="#F9EC31" d="M143.6230469,264.9707031c0,0,15.2841797-20.0761719,36.328125-7.8681641
		C179.9511719,257.1025391,176.2177734,278.3115234,143.6230469,264.9707031z"/>
	<path fill="#F9EC31" d="M157.0556641,245.8505859c0,0-0.6474609-24.2734375,22.5048828-27.8115234
		C179.5605469,218.0390625,189.5371094,236.1928711,157.0556641,245.8505859z"/>
	<path fill="#F9EC31" d="M179.765625,243.7011719c0,0,16.1894531-6.7885742,24.6337891,7.9091797
		C204.3994141,251.6103516,194.7617188,263.0791016,179.765625,243.7011719z"/>
</g>
<g>
</g>
<g>
</g>
<g>
</g>
<g>
</g>
<g>
</g>
<g>
</g>
</svg>
