<?xml version="1.0" encoding="utf-8"?>
<!-- Generator: Adobe Illustrator 16.0.0, SVG Export Plug-In . SVG Version: 6.00 Build 0)  -->
<!DOCTYPE svg PUBLIC "-//W3C//DTD SVG 1.0//EN" "http://www.w3.org/TR/2001/REC-SVG-20010904/DTD/svg10.dtd">
<svg version="1.0" id="Layer_1" xmlns="http://www.w3.org/2000/svg" xmlns:xlink="http://www.w3.org/1999/xlink" x="0px" y="0px"
	 width="495px" height="323.6113281px" viewBox="0 0 495 323.6113281" enable-background="new 0 0 495 323.6113281"
	 xml:space="preserve">
<path fill="#FFFFFF" d="M322.6567383,60.4770508c2.7138672,10.2905273-6.8334961,25.4672852-24.2236328,14.9106445
	c-17.3818359-10.5566406-16.7680664-21.1132812-33.5356445-13.0449219
	c-16.7685547,8.0776367-15.5327148,6.2114258-15.5327148,6.2114258s-14.2797852,4.3452148-22.3569336-6.2114258
	c0,0,11.800293,5.5893555,21.7431641,1.2441406c11.8818359-5.1938477,13.0366211-17.3901367,27.9467773-14.9101562
	c14.9023438,2.4873047,10.5566406,9.9428711,23.6015625,3.7314453
	C313.3432617,46.1967773,320.5327148,52.4243164,322.6567383,60.4770508z"/>
<path fill="#FFFFFF" d="M249.1796875,37.4008789c2.1645508-7.5117188-8.1015625-17.3979492-20.3706055-9.5874023
	c-12.2612305,7.8105469-11.8251953,15.6210938-23.6577148,9.644043c-11.824707-5.9692383-10.9448242-4.5878906-10.9448242-4.5878906
	s-10.0800781-3.2143555-15.7739258,4.5878906c0,0,8.3193359-4.1274414,15.3300781-0.9130859
	c8.3837891,3.8447266,9.2001953,12.8588867,19.7163086,11.0175781c10.5083008-1.8334961,7.4467773-7.3500977,16.6469727-2.7539062
	C239.3251953,49.4033203,247.4189453,43.5478516,249.1796875,37.4008789z"/>
<path fill="#FFFFFF" d="M214.5532227,87.7856445c1.8012695-3.3603516-2.0922852-9.1108398-8.7319336-6.6313477
	c-6.6391602,2.4799805-7.2285156,6.2436523-12.2607422,2.2050781c-5.0239258-4.0463867-4.7490234-3.3037109-4.7490234-3.3037109
	s-4.4829102-2.5517578-7.9882812,0.5898438c0,0,4.3935547-1.1225586,7.4067383,1.1147461
	c3.6025391,2.6811523,3.0849609,7.0678711,8.2788086,7.2529297c5.2016602,0.1943359,4.296875-2.7460938,8.2143555,0.371582
	C208.6484375,92.5107422,213.0908203,90.5395508,214.5532227,87.7856445z"/>
<g>
	<path fill="#8C1B23" d="M50.4672852,303.1767578c0,0-32.9140625-7.6806641-30.7172852,5.4755859
		c2.1889648,13.1669922,56.4995117,18.6503906,44.1494141-8.2216797
		C51.5576172,273.5576172,50.4672852,303.1767578,50.4672852,303.1767578z"/>
	<path fill="#8C1B23" d="M73.8017578,299.7929688c0,0-13.7143555,13.1972656-2.7382812,14.9501953
		c10.9692383,1.7607422,52.1298828,7.0351562,43.8916016-7.0351562
		C106.7324219,293.6386719,102.6132812,302.4335938,73.8017578,299.7929688z"/>
	<path fill="#8C1B23" d="M95.9902344,211.5830078c0,0,13.1572266,52.6455078,0,87.1992188
		c0,0-7.4072266,13.9902344-25.5083008,4.9355469c0,0,10.6943359-39.4892578,4.1118164-50.9990234
		c-6.574707-11.5253906-10.6943359,47.7119141-10.6943359,47.7119141s-4.1113281,13.1650391-18.0922852,3.2871094
		c0,0-13.9897461-60.0527344,0.8237305-103.652832C61.4365234,156.4731445,95.9902344,211.5830078,95.9902344,211.5830078z"/>
	<path fill="#8C1B23" d="M135.2197266,36.0117188c0,0-21.0405273-42.0732422-48.7768555-28.6899414
		C58.6977539,20.7138672,13.7490234,41.7543945,47.6967773,76.6796875
		C81.652832,111.5888672,135.2197266,36.0117188,135.2197266,36.0117188z"/>
	<path fill="#8C1B23" d="M147.1826172,89.5869141c8.2138672-24.659668-10.5327148-73.1865234-54.5209961-55.9575195
		c-44.0039062,17.2119141-56.918457,33.0024414-37.3076172,62.1767578
		C74.9570312,124.9726562,139.0483398,113.9711914,147.1826172,89.5869141z"/>
	<path fill="#8C1B23" d="M73.5356445,85.7666016c0,0-18.1816406,15.7744141-17.7045898,33.4794922
		c0.4760742,17.6962891,20.0874023,33.9477539,21.5249023,20.5561523
		c1.4291992-13.3920898-13.3920898-28.6899414,12.4306641-43.0429688
		C115.6088867,82.40625,73.5356445,85.7666016,73.5356445,85.7666016z"/>
	<path fill="#8C1B23" d="M74.1816406,118.6240234c0,0,22.2602539,28.1806641,49.859375,32.7763672
		c27.7529297,4.628418,39.1015625,13.8037109,39.1015625,13.8037109l-3.440918,10.3549805
		c0,0-23.2216797-1.6635742-40.2641602-8.0527344c-18.4082031-6.8974609-24.3930664-6.6557617-24.3930664-6.6557617
		s4.2329102,46.6210938-4.3046875,60.2631836c-14.0302734,22.4291992-45.4418945-14.8291016-45.4418945-14.8291016
		s-2.390625-42.0898438,3.3598633-62.6542969c0,0-30.1347656,27.2602539-29.1821289,58.8256836
		c0,0,11.9619141,7.1806641,3.8286133,15.7822266c-8.1333008,8.6186523-17.6967773-1.4213867-17.6967773-9.5634766
		c0-8.1333008,4.296875-10.5161133,4.296875-10.5161133s5.2666016-54.5283203,23.4394531-69.8339844
		C51.5170898,113.0263672,74.1816406,118.6240234,74.1816406,118.6240234z"/>
	<path fill="#8C1B23" d="M147.8125,67.8999023c0,0,32.8413086-28.0600586-12.4550781-40.0136719
		c-45.3041992-11.9541016-74.753418,22.0014648-74.753418,22.0014648S117.2319336,24.3725586,147.8125,67.8999023z"/>
	<path fill="#8C1B23" d="M111.3442383,43.765625c0,0-47.8647461,7.0756836-35.4257812,50.6030273
		c0,0-10.0478516-10.5249023-9.0869141-29.1743164c0,0-7.6567383,22.4863281-0.9609375,42.5664062
		c0,0-11.4780273-21.5258789-12.4306641-33.4799805c-0.9609375-11.9541016-5.2583008-16.7436523,3.3359375-21.9936523
		C65.3935547,47.0209961,95.0932617,37.0693359,111.3442383,43.765625z"/>
	<path fill="#8C1B23" d="M45.7827148,74.7573242c0,0-13.8759766,8.1337891-12.4389648,31.5649414
		c1.4379883,23.4316406-18.1728516,6.7041016-18.1728516,6.7041016s16.7358398,20.0878906,25.3618164,5.2583008
		c8.6020508-14.8212891,20.5478516-16.2670898,20.5478516-16.2670898s-8.1254883-6.2114258-13.3837891-25.3378906"/>
	<path fill="#8C1B23" d="M50.0878906,62.3266602c0,0-20.5722656-3.3520508-12.9072266,13.8681641
		C44.8374023,93.4155273,53.4399414,82.40625,53.4399414,82.40625L50.0878906,62.3266602z"/>
	<path fill="#8C1B23" d="M21.3979492,185.2431641l-9.0947266-1.9140625l-2.3989258,14.8295898
		c0,0-11.4692383,8.1259766-3.8203125,15.7827148c7.6650391,7.6489258,14.3447266,15.2978516,20.5722656,1.4375
		c6.2192383-13.8764648-7.1806641-12.9228516-7.1806641-12.9228516L21.3979492,185.2431641z"/>
	<path fill="#8C1B23" d="M118.2016602,70.5087891c0,0,0.4038086-18.512207-16.0493164-10.2900391
		c-16.4526367,8.222168-8.6342773,10.2900391-8.6342773,10.2900391H118.2016602z"/>
	<path fill="#8C1B23" d="M133.8227539,72.972168c0,0-1.2275391-12.753418,5.7587891-9.8701172
		c6.9951172,2.8759766,6.5834961,11.5180664,6.5834961,11.5180664L133.8227539,72.972168z"/>
	<path fill="#8C1B23" d="M133.4189453,75.8476562c0,0,6.1625977,8.6342773-1.6479492,9.0546875
		C123.9526367,85.3061523,136.2944336,81.6147461,133.4189453,75.8476562z"/>
	<path fill="#8C1B23" d="M116.0292969,64.8867188c0,0-13.3754883-6.1220703-16.4208984,0.9858398
		c-3.0537109,7.0996094-0.1616211,7.4067383-0.1616211,7.4067383S127.5712891,77.2451172,116.0292969,64.8867188z"/>
	<path fill="#8C1B23" d="M133.8227539,72.972168c0,0,0-8.9086914,6.9946289-6.9941406
		c6.9951172,1.921875,5.3476562,8.6420898,5.3476562,8.6420898S139.1699219,76.2597656,133.8227539,72.972168z"/>
	<path fill="#8C1B23" d="M48.6577148,143.6303711c0,0,0.8486328,62.6054688,14.0058594,77.8222656
		c0,0-14.5712891-8.9404297-17.3657227-15.1679688C42.5117188,200.0649414,42.875,157.1274414,48.6577148,143.6303711z"/>
	<path fill="#8C1B23" d="M105.8598633,68.6513672c0,2.8349609,2.2939453,5.1445312,5.1455078,5.1445312
		c2.8344727,0,5.128418-2.3095703,5.128418-5.1445312s-2.2939453-5.137207-5.128418-5.137207
		C108.1538086,63.5141602,105.8598633,65.8164062,105.8598633,68.6513672z"/>
	<path fill="#8C1B23" d="M135.8823242,70.7109375c0,2.3828125,1.9301758,4.3208008,4.3212891,4.3208008
		c2.3828125,0,4.3212891-1.9379883,4.3212891-4.3208008c0-2.3911133-1.9384766-4.3212891-4.3212891-4.3212891
		C137.8125,66.3896484,135.8823242,68.3198242,135.8823242,70.7109375z"/>
	<path fill="#8C1B23" d="M138.3457031,92.519043c0,0-10.6616211-4.5395508-26.2421875,2.0351562
		C112.1035156,94.5541992,127.0947266,96.2744141,138.3457031,92.519043z"/>
	<path fill="#8C1B23" d="M146.5766602,66.3896484c0,0-31.2666016-22.2036133-53.4785156-15.2172852
		c0,0,10.2900391-7.4067383,15.637207-6.9863281C114.0825195,44.5893555,138.3457031,49.9365234,146.5766602,66.3896484z"/>
	<path fill="#8C1B23" d="M49.9179688,224.7485352c0,0,12.3417969-106.9487305-3.2871094-104.4848633
		c0,0,29.6103516-33.7216797,10.6860352,106.1328125L49.9179688,224.7485352z"/>
	<path fill="#8C1B23" d="M77.0649414,121.0878906c0,0,19.7407227,30.4418945,13.6748047,100.0258789l3.6020508,7.7460938
		c0,0,12.3417969-31.2583008-3.2954102-95.4228516C91.0463867,133.4370117,86.9355469,121.9111328,77.0649414,121.0878906z"/>
	<polygon fill="#8C1B23" points="155.6069336,145.1489258 127.644043,154.1953125 127.644043,169.0087891 136.6899414,158.3066406 
		139.1533203,171.472168 153.9667969,167.3530273 	"/>
	<path fill="#8C1B23" d="M42.3823242,221.0493164c0,0,6.9624023,66.4985352,8.0849609,82.1274414
		C50.4672852,303.1767578,30.8886719,298.1044922,42.3823242,221.0493164z"/>
	<path fill="#8C1B23" d="M114.8417969,314.2109375l-43.7050781-5.7509766l-0.0732422,6.2832031
		C71.0634766,314.7431641,96.4418945,323.4101562,114.8417969,314.2109375z"/>
	<path fill="#8C1B23" d="M19.75,308.6523438l44.4892578,5.5585938C64.2392578,314.2109375,41.9780273,330.7041016,19.75,308.6523438
		z"/>
	<polygon fill="#8C1B23" points="27.5527344,174.4770508 27.5527344,190.2915039 9.9042969,184.2744141 10.1547852,171.3183594 	"/>
</g>
<g>
	<g>
		<path fill="#8C1B23" d="M462.5756836,109.0927734c0,0,10.0883789,9.0869141,23.9726562,21.5009766
			c13.8764648,12.4228516-2.8349609,35.6044922-29.3603516,35.5878906
			c-19.8369141-0.0239258-42.0410156,2.7626953-42.0410156,2.7626953s-3.5053711,7.3417969-15.4916992,9.1508789
			c-26.8964844,3.9980469,9.1025391,27.4946289-7.2529297,132.8276367
			c-1.6640625,10.5078125-33.7060547,17.0986328-32.1552734-3.9824219
			c1.6235352-21.6708984-5.4360352-78.0244141-5.4360352-78.0244141s-3.4487305,70.3681641-8.5859375,81.3203125
			c-5.0800781,10.9443359-32.0654297,12.1318359-26.5410156-6.4052734
			c10.9360352-36.6777344-5.8637695-90.9072266-14.644043-87.2646484
			c-8.7553711,3.6508789-57.4033203,1.0820312-72.7255859-4.046875c0,0-10.9365234,12.4956055-34.6264648,25.9760742
			c0,0-3.3920898,32.050293-1.0336914,71.0541992c0.71875,11.8808594-23.1572266,17.9794922-29.7236328-4.6601562
			c-6.574707-22.6650391-4.4990234-56.0712891-4.4990234-56.0712891s-6.8974609,46.5644531-6.8974609,66.1669922
			c0,9.6523438-36.6298828,16.0820312-31.7026367-8.2705078c10.9443359-53.8339844-0.8886719-74.8662109-1.5751953-138.4086914
			c-0.3393555-32.0014648,12.4145508-59.1811523,66.4580078-60.6347656
			c54.0439453-1.4619141,85.0917969-8.7397461,118.4985352-4.3774414
			c55.3198242,7.2290039,82.8632812-17.9472656,87.9433594-20.5083008
			c18.730957-9.3774414,22.7373047-6.0253906,36.3549805-7.9233398c3.925293-0.5571289,16.8081055-11.703125,23.3828125,0
			c6.559082,11.6635742-10.2412109,18.9892578-10.2412109,18.9892578S451.6875,96.0327148,462.5756836,109.0927734z"/>
		<path fill="#8C1B23" d="M476.0883789,140.5854492c4.9672852-3.1665039-6.574707-12.4223633-10.2089844-10.2416992
			C462.2280273,132.5327148,468.0683594,145.6738281,476.0883789,140.5854492z"/>
		<path fill="#8C1B23" d="M360.0131836,283.3798828c0,0,5.3061523-80.1328125-12.2045898-90.3657227
			c-17.5595703-10.2177734-42.0170898,19.909668-42.0170898,19.909668S357.3876953,183.9755859,360.0131836,283.3798828z"/>
		<path fill="#8C1B23" d="M196.6704102,190.2353516c0,0-29.3681641,58.8896484-37.5263672,76.9990234
			C159.144043,267.234375,154.5727539,211.671875,196.6704102,190.2353516z"/>
		<path fill="#8C1B23" d="M197.6879883,238.4956055c0,0-8.5131836-27.4458008,14.1352539-28.1723633
			c22.6152344-0.7353516,26.1855469,3.4482422,26.1855469,3.4482422S171.1552734,146.2236328,197.6879883,238.4956055z"/>
		<path fill="#8C1B23" d="M396.1010742,91.0322266c0,0-19.1264648-10.9277344-23.4311523,3.949707
			c-4.3134766,14.8300781,18.7788086,15.1611328,18.7788086,15.1611328S364.6811523,91.0644531,396.1010742,91.0322266z"/>
		<path fill="#8C1B23" d="M449.0869141,70.5087891c0,0-8.7314453,4.3779297-9.4824219,10.9526367
			c-0.7353516,6.5664062-0.7353516,6.5664062-0.7353516,6.5664062l-7.3579102-13.1655273
			C431.5112305,74.8623047,435.2104492,69.7983398,449.0869141,70.5087891z"/>
		<path fill="#8C1B23" d="M243.355957,217.0507812c0,0-12.1235352-19.3686523-27.4296875-18.7626953
			c-15.3300781,0.6704102-25.7016602,7.4311523-18.6660156,34.2792969
			C228.9951172,253.2851562,238.9863281,224.7407227,243.355957,217.0507812z"/>
		<path fill="#8C1B23" d="M204.6181641,231.5004883c-0.597168,5.5493164-3.0532227,14.1518555,4.9355469,13.5131836
			c7.9716797-0.6054688,3.0527344-14.7402344,3.0527344-14.7402344s11.5986328,17.0507812,17.8500977,12.8828125
			c5.5410156-3.6513672-1.8417969-17.1801758-1.8417969-17.1801758"/>
		<path fill="#8C1B23" d="M434.9438477,112.3964844c0,0-15.5561523,4.5957031-17.1474609,2.487793
			c0.1210938,0.1611328-0.605957-4.5068359,9.1513672-5.7026367
			C418.6279297,110.2236328,434.9682617,108.2773438,434.9438477,112.3964844z"/>
		<path fill="#8C1B23" d="M421.3828125,119.0439453c0,0,16.2749023,7.4550781,16.3637695-1.6962891
			C437.8032227,108.9394531,423.1352539,111.9848633,421.3828125,119.0439453z"/>
		<path fill="#8C1B23" d="M424.5488281,115.699707c0,2.1162109,1.7207031,3.8530273,3.8525391,3.8530273
			c2.1323242,0,3.8608398-1.7368164,3.8608398-3.8530273c0-2.1484375-1.7285156-3.8769531-3.8608398-3.8769531
			C426.2695312,111.8227539,424.5488281,113.5512695,424.5488281,115.699707z"/>
		<path fill="#8C1B23" d="M211.128418,198.6035156c0,0-8.5375977,32.9541016-3.440918,43.421875l-9.9995117-3.5297852
			C197.6879883,238.4956055,183.5610352,197.2216797,211.128418,198.6035156z"/>
		<path fill="#8C1B23" d="M200.6040039,190.2592773c0,0,75.2216797,0.7353516,88.387207,4.4023438
			c13.1416016,3.6508789-37.9946289,2.1806641-54.0517578,8.0366211c0,0-17.5268555-5.137207-27.7768555-4.3857422
			C196.9692383,199.0556641,200.6040039,190.2592773,200.6040039,190.2592773z"/>
		<path fill="#8C1B23" d="M383.9047852,145.3427734l13.1738281,24.2558594l0,0
			C397.0786133,169.5986328,379.9472656,184.7021484,383.9047852,145.3427734z"/>
		<path fill="#8C1B23" d="M448.3193359,74.8623047c0,0-7.3178711,7.2851562-6.5585938,13.1416016
			C442.4716797,93.8515625,459.9829102,83.6259766,448.3193359,74.8623047z"/>
		<path fill="#8C1B23" d="M395.3012695,98.0112305c-1.4775391-1.8334961-14.6186523-0.7675781-11.6953125,2.8916016
			C386.5458984,104.5615234,407.7324219,113.3256836,395.3012695,98.0112305z"/>
		<path fill="#8C1B23" d="M368.1787109,123.1147461c5.0727539,14.796875-26.8320312,7.640625-29.828125,19.8696289
			c-2.9404297,12.2363281-74.3657227,2.7055664-57.9614258-6.824707
			C296.7045898,126.6933594,360.7475586,101.3876953,368.1787109,123.1147461z"/>
		<path fill="#8C1B23" d="M269.8320312,169.2749023c-7.034668,8.8930664-67.7177734-3.3354492-75.7626953-7.7133789
			c-9.5629883-5.2016602,22.8901367-40.5063477,34.8125-35.4013672
			C240.7553711,131.2724609,280.1547852,156.2148438,269.8320312,169.2749023z"/>
	</g>
	<path fill="#8C1B23" d="M134.8564453,126.0791016c2.237793-5.2177734-23.4233398,23.4399414-22.050293,37.2192383
		s8.2714844-4.1357422,8.2714844-4.1357422S126.5859375,145.3833008,134.8564453,126.0791016z"/>
	<polygon fill="#8C1B23" points="389.6958008,99.9980469 399.7436523,113.3896484 397.2319336,122.5976562 376.3041992,123.4375 
		373.7841797,113.3896484 380.4882812,99.1582031 	"/>
	<polygon fill="#8C1B23" points="389.7280273,104.7958984 397.0058594,114.4882812 395.1806641,121.1601562 380.0283203,121.765625 
		378.2104492,114.4882812 383.0566406,104.1821289 	"/>
</g>
<g>
</g>
<g>
</g>
<g>
</g>
<g>
</g>
<g>
</g>
<g>
</g>
</svg>
