<?xml version="1.0" encoding="utf-8"?>
<!-- Generator: Adobe Illustrator 16.0.0, SVG Export Plug-In . SVG Version: 6.00 Build 0)  -->
<!DOCTYPE svg PUBLIC "-//W3C//DTD SVG 1.0//EN" "http://www.w3.org/TR/2001/REC-SVG-20010904/DTD/svg10.dtd">
<svg version="1.0" id="Layer_1" xmlns="http://www.w3.org/2000/svg" xmlns:xlink="http://www.w3.org/1999/xlink" x="0px" y="0px"
	 width="866px" height="582.3007812px" viewBox="0 0 866 582.3007812" enable-background="new 0 0 866 582.3007812"
	 xml:space="preserve">
<polygon fill="#37B5CA" points="374.7910156,241.3105469 370.546875,285.7539062 365.6035156,286.2983398 "/>
<g>
	<path fill="#9D1D20" d="M780.1621094,537.5185547c0,0,55.8291016-13.0341797,52.1015625,9.2958984
		c-3.7158203,22.3291016-95.8457031,31.6357422-74.9003906-13.9492188
		C778.3095703,487.2695312,780.1621094,537.5185547,780.1621094,537.5185547z"/>
	<path fill="#9D1D20" d="M740.5683594,531.7792969c0,0,23.2666016,22.3867188,4.6416016,25.3710938
		c-18.6025391,2.9833984-88.4365234,11.9248047-74.4658203-11.9375
		C684.7050781,521.3408203,691.6904297,536.2617188,740.5683594,531.7792969z"/>
	<path fill="#EE4036" d="M702.9296875,382.1279297c0,0-22.3300781,89.3173828,0,147.9365234
		c0,0,12.5644531,23.7353516,43.2636719,8.3808594c0,0-18.1328125-67-6.9746094-86.5283203
		c11.1591797-19.5507812,18.1445312,80.9482422,18.1445312,80.9482422s6.9746094,22.3300781,30.6992188,5.5800781
		c0,0,23.7353516-101.8828125-1.3945312-175.8574219C761.5488281,288.6201172,702.9296875,382.1279297,702.9296875,382.1279297z"/>
	<path fill="#EE4036" d="M636.3642578,84.2714844c0,0,35.7060547-71.4013672,82.7548828-48.6831055
		c47.0712891,22.7182617,123.3320312,58.418457,65.7421875,117.6606445
		C727.2480469,212.4736328,636.3642578,84.2714844,636.3642578,84.2714844z"/>
	<path fill="#E0A589" d="M616.0703125,175.1552734c-13.9375-41.8344727,17.8701172-124.1547852,92.5078125-94.9365234
		c74.6484375,29.2060547,96.5546875,55.9887695,63.2832031,105.4785156
		C738.6132812,235.1918945,629.8701172,216.5327148,616.0703125,175.1552734z"/>
	<path fill="#E0A589" d="M741.0253906,168.6669922c0,0,30.8359375,26.765625,30.0351562,56.7949219
		c-0.8115234,30.0244141-34.0820312,57.6074219-36.5175781,34.8891602s22.7177734-48.6831055-21.0947266-73.0249023
		C669.6357422,162.9785156,741.0253906,168.6669922,741.0253906,168.6669922z"/>
	<path fill="#FAAF40" d="M739.9160156,224.421875c0,0-37.7529297,47.8085938-84.5839844,55.6118164
		c-47.0820312,7.8432617-66.3359375,23.4155273-66.3359375,23.4155273l5.8417969,17.5615234
		c0,0,39.3886719-2.8183594,68.3037109-13.6572266c31.2246094-11.7075195,41.3886719-11.3017578,41.3886719-11.3017578
		s-7.1806641,79.1015625,7.2939453,102.2490234c23.8046875,38.0439453,77.0957031-25.1542969,77.0957031-25.1542969
		s4.0585938-71.4121094-5.6933594-106.3012695c0,0,51.1289062,46.253418,49.5058594,99.8071289
		c0,0-20.2939453,12.171875-6.4941406,26.7714844c13.7998047,14.6123047,30.0234375-2.4296875,30.0234375-16.2236328
		s-7.2939453-17.8535156-7.2939453-17.8535156s-8.9296875-92.5014648-39.7646484-118.4667969
		C778.3779297,214.9150391,739.9160156,224.421875,739.9160156,224.421875z"/>
	<path fill="#9D1D20" d="M615.0068359,138.3574219c0,0-55.7265625-47.5976562,21.1289062-67.8798828
		c76.8544922-20.2832031,126.8193359,37.3295898,126.8193359,37.3295898S666.8916016,64.5146484,615.0068359,138.3574219z"/>
	<path fill="#F9EC31" d="M676.8730469,97.4140625c0,0,81.2109375,12.0107422,60.1054688,85.8535156
		c0,0,17.046875-17.859375,15.4121094-49.4951172c0,0,12.9882812,38.1357422,1.6347656,72.21875
		c0,0,19.4707031-36.5185547,21.09375-56.8066406c1.6240234-20.2885742,8.9189453-28.3945312-5.6699219-37.3242188
		C754.8369141,102.9365234,704.4501953,86.0551758,676.8730469,97.4140625z"/>
	<path fill="#F9EC31" d="M788.0966797,149.9960938c0,0,23.5410156,13.7944336,21.1064453,53.5537109
		c-2.4355469,39.7597656,30.8349609,11.3652344,30.8349609,11.3652344s-28.4003906,34.0771484-43.0234375,8.9238281
		C782.4140625,198.690918,762.1425781,196.25,762.1425781,196.25s13.7890625-10.5527344,22.71875-43.0009766"/>
	<path fill="#E0A589" d="M780.8017578,128.8959961c0,0,34.8955078-5.6767578,21.8955078,23.5356445
		c-12.9882812,29.2119141-27.578125,10.546875-27.578125,10.546875L780.8017578,128.8959961z"/>
	<path fill="#E0A589" d="M829.4736328,337.4404297l15.4238281-3.2470703l4.0703125,25.1533203
		c0,0,19.4716797,13.7998047,6.4824219,26.7773438c-12.9990234,12.9824219-24.3300781,25.9589844-34.8945312,2.4404297
		c-10.5527344-23.5351562,12.1767578-21.9121094,12.1767578-21.9121094L829.4736328,337.4404297z"/>
	<path fill="#C88364" d="M665.2451172,142.7763672c0,0-0.6972656-31.4023438,27.2226562-17.4472656
		c27.9091797,13.9599609,14.6464844,17.4472656,14.6464844,17.4472656H665.2451172z"/>
	<path fill="#C88364" d="M638.7314453,146.9609375c0,0,2.0917969-21.6318359-9.7646484-16.7441406
		c-11.8671875,4.8818359-11.1699219,19.5390625-11.1699219,19.5390625L638.7314453,146.9609375z"/>
	<path fill="#C88364" d="M639.4287109,151.8486328c0,0-10.4619141,14.6513672,2.7900391,15.3491211
		C655.4804688,167.8955078,634.546875,161.6181641,639.4287109,151.8486328z"/>
	<path fill="#E6E7E8" d="M668.9267578,133.2519531c0,0,22.6953125-10.3813477,27.8632812,1.6694336
		c5.1669922,12.0454102,0.2626953,12.5766602,0.2626953,12.5766602S649.3417969,154.2207031,668.9267578,133.2519531z"/>
	<path fill="#E6E7E8" d="M638.7314453,146.9609375c0,0,0-15.1152344-11.8564453-11.8623047
		c-11.8681641,3.2587891-9.078125,14.6572266-9.078125,14.6572266S629.6640625,152.5458984,638.7314453,146.9609375z"/>
	<path fill="#F6921E" d="M783.2265625,266.8452148c0,0-1.4414062,106.2104492-23.7705078,132.0327148
		c0,0,24.7304688-15.1777344,29.4638672-25.7314453C793.6533203,362.5878906,793.0361328,289.7348633,783.2265625,266.8452148z"/>
	<path fill="#004664" d="M686.1796875,139.6376953c0,4.8193359-3.8984375,8.7236328-8.7236328,8.7236328
		c-4.8134766,0-8.7119141-3.9042969-8.7119141-8.7236328s3.8984375-8.7236328,8.7119141-8.7236328
		C682.28125,130.9140625,686.1796875,134.8183594,686.1796875,139.6376953z"/>
	<path fill="#004664" d="M635.2441406,143.125c0,4.046875-3.2705078,7.3286133-7.3291016,7.3286133
		c-4.0478516,0-7.3291016-3.2817383-7.3291016-7.3286133c0-4.0478516,3.28125-7.3291016,7.3291016-7.3291016
		C631.9736328,135.7958984,635.2441406,139.0771484,635.2441406,143.125z"/>
	<path fill="#C88364" d="M631.0595703,180.1230469c0,0,18.0869141-7.6943359,44.5214844,3.4643555
		C675.5810547,183.5874023,650.1533203,186.5029297,631.0595703,180.1230469z"/>
	<path fill="#C88364" d="M617.0996094,135.7958984c0,0,53.0390625-37.6787109,90.7236328-25.8164062
		c0,0-17.4472656-12.5654297-26.5253906-11.8623047C672.2304688,98.8144531,631.0595703,107.887207,617.0996094,135.7958984z"/>
	<path fill="#EE4036" d="M781.0878906,404.4570312c0,0-20.9345703-181.4301758,5.5800781-177.2456055
		c0,0-50.2382812-57.2182617-18.1337891,180.0415039L781.0878906,404.4570312z"/>
	<path fill="#EE4036" d="M735.0341797,228.6064453c0,0-33.4990234,51.6386719-23.2099609,169.6943359l-6.1054688,13.1425781
		c0,0-20.9335938-53.0400391,5.5917969-161.9023438C711.3105469,249.5410156,718.2841797,230.0009766,735.0341797,228.6064453z"/>
	<polygon fill="#F6921E" points="601.7783203,269.4121094 649.2265625,284.7617188 649.2265625,309.8867188 
		633.8720703,291.7412109 629.6875,314.0703125 604.5683594,307.0908203 	"/>
	<g>
		<path fill="#3B2314" d="M52.8510742,191.0019531c0,0-18.9794922,36.7412109-41.4916992,56.8925781
			c-22.512207,20.1455078,17.6875,77.0898438,59.2592773,66.359375c31.1787109-8.0429688,52.1362305-8.2949219,52.1362305-8.2949219
			s16.5097656,33.2480469,46.1333008,75.9121094c37.6958008,54.2792969-3.5556641,144.5917969-8.300293,161.1699219
			c-4.7451172,16.6015625,45.0473633,43.8583984,56.9038086,10.6787109
			c11.8447266-33.1904297,33.1679688-75.8486328,33.1679688-75.8486328s4.7451172,49.78125,13.0454102,67.5478516
			c8.277832,17.7675781,61.6259766,13.0341797,55.6923828-17.7666016
			c-5.9228516-30.8251953-13.0458984-103.1064453,1.1884766-97.1835938
			c14.2236328,5.921875,60.4370117,15.4003906,85.315918,7.0996094c0,0,22.5239258,52.1474609,88.8945312,28.4570312
			c0,0-4.7446289,53.3261719-8.300293,72.2822266c-3.5561523,18.9560547,46.2246094,36.7470703,56.8920898,0
			s13.0229492-68.7373047,13.0229492-68.7373047s23.7011719,60.2539062,37.9355469,88.7001953
			c14.2236328,28.4462891,77.0263672,5.9228516,58.0585938-29.6357422
			c-17.3554688-32.5625-33.1796875-114.7675781-33.1796875-217.8681641c0-103.4550781-20.1455078-95.9887695-107.8393555-98.3613281
			c-87.7055664-2.3720703-247.6010742,17.7099609-279.6030273,2.3037109
			c-31.9902344-15.40625-30.9501953-53.7421875-69.9150391-75.8427734
			c-68.8286133-39.0449219-79.4960938,7.168457-85.4301758,9.5410156c-5.9106445,2.3720703-27.2456055-18.9624023-37.9243164,0
			c-10.6557617,18.9619141,16.612793,30.8125,16.612793,30.8125S57.5732422,176.784668,52.8510742,191.0019531z"/>
		<path fill="#28160E" d="M51.5703125,281.1367188c-8.0605469-5.1279297,10.65625-20.1455078,16.5786133-16.5839844
			C74.0830078,268.1030273,64.5932617,289.4316406,51.5703125,281.1367188z"/>
		<path fill="#28160E" d="M230.5141602,519.3515625c0,0,20.1455078-99.5625,48.5805664-116.1464844
			c28.4575195-16.5957031,40.3027344,21.3408203,40.3027344,21.3408203S290.9624023,378.3203125,230.5141602,519.3515625z"/>
		<path fill="#28160E" d="M514.9423828,409.1337891c0,0,46.2133789,80.5820312,59.2470703,105.4726562
			C574.1894531,514.6064453,573.0117188,434.0126953,514.9423828,409.1337891z"/>
		<path fill="#28160E" d="M494.7963867,466.0253906c0,0,15.1147461-53.6328125-21.6318359-54.8222656
			c-36.7241211-1.1835938-50.9584961,5.3388672-50.9584961,5.3388672S535.3847656,324.984375,494.7963867,466.0253906z"/>
		<path fill="#28160E" d="M177.1777344,157.8852539c0,0,35.5576172,3.5615234,27.2568359,27.2631836
			c-8.277832,23.7011719-39.1020508,2.3662109-39.1020508,2.3662109S218.6689453,187.5146484,177.1777344,157.8852539z"/>
		<path fill="#28160E" d="M47.9233398,141.3583984c0,0,14.2001953,7.1113281,15.4008789,17.784668
			c1.1889648,10.6674805,1.1889648,10.6674805,1.1889648,10.6674805l11.9248047-21.4033203
			C76.4379883,148.4072266,70.4355469,140.1806641,47.9233398,141.3583984z"/>
		<path fill="#DAC3B3" d="M504.2744141,246.7739258c14.2119141,20.1401367,18.9570312,43.847168-1.1772461,50.9584961
			c-20.1572266,7.1113281-132.7416992-10.6616211-125.6298828,15.40625
			c7.1000977,26.0683594-40.2915039,56.8808594-52.1362305,11.8457031
			c-11.8564453-45.0307617,7.1000977-52.1367188,37.9248047-67.5488281
			c30.8012695-15.40625,16.5893555-24.8847656,73.4707031-18.9619141
			C493.6074219,244.4013672,504.2744141,246.7739258,504.2744141,246.7739258z"/>
		<path fill="#DAC3B3" d="M249.4707031,236.1064453c-50.4785156-13.2792969-98.3613281-18.9619141-61.6259766,21.3291016
			c36.7470703,40.296875,29.6469727,54.5146484,56.9038086,41.4804688
			c27.234375-13.0341797,33.168457-37.9248047,41.4692383-50.9589844
			C294.5068359,234.9233398,271.9829102,242.0292969,249.4707031,236.1064453z"/>
		<path fill="#28160E" d="M596.7021484,224.2558594c0,0,39.1132812,27.2573242,41.4912109,75.8432617l-22.5117188-26.0737305
			C615.6816406,274.0253906,602.6357422,232.5507812,596.7021484,224.2558594z"/>
		<path fill="#ED8585" d="M405.9018555,436.9628906c0,0,23.3813477-37.3300781,52.9135742-36.1298828
			c29.5439453,1.2060547,49.5180664,14.2919922,35.980957,66.0615234
			C433.6049805,506.8203125,414.3398438,451.8027344,405.9018555,436.9628906z"/>
		<path fill="#ED8585" d="M480.5732422,464.8369141c1.1894531,10.6552734,5.9228516,27.2568359-9.4780273,26.0683594
			c-15.4125977-1.1894531-5.934082-28.4462891-5.934082-28.4462891s-22.3291016,32.9160156-34.3574219,24.890625
			c-10.6669922-7.1005859,3.5444336-33.1914062,3.5444336-33.1914062"/>
		<path fill="#3B2314" d="M65.7822266,176.8476562c0,0-23.78125,7.5742188-28.0117188,19.5566406
			c-4.21875,11.987793,5.6591797,11.987793-1.40625,22.4726562
			C29.3095703,229.3613281,53.1943359,218.7050781,65.7822266,176.8476562z"/>
		<path fill="#28160E" d="M90.2382812,199.7314453c0,0,36.6210938,10.8505859,40.3828125,5.8652344
			c3.7270508-4.9848633-2.6186523-11.1245117-21.5410156-13.4453125
			C90.1694336,189.8183594,90.2382812,199.7314453,90.2382812,199.7314453z"/>
		<path fill="#E6E7E8" d="M129.8549805,212.8569336c0,0-38.4047852,17.5561523-38.5878906-4.0131836
			C91.1074219,189.0185547,125.6933594,196.1870117,129.8549805,212.8569336z"/>
		<path fill="#28160E" d="M116.1806641,207.2602539c0,5.0307617-4.0820312,9.1069336-9.1123047,9.1069336
			c-5.0307617,0-9.1010742-4.0761719-9.1010742-9.1069336s4.0703125-9.1069336,9.1010742-9.1069336
			C112.0986328,198.1533203,116.1806641,202.2294922,116.1806641,207.2602539z"/>
		<path fill="#D45E5F" d="M484.1176758,407.9443359c0,0,7.1230469,50.9589844-1.1777344,65.1816406l11.8564453-6.2314453
			C494.7963867,466.8945312,516.1196289,424.5458984,484.1176758,407.9443359z"/>
		<path fill="#28160E" d="M37.7705078,196.4042969c0,0,9.0439453,1.777832,9.0439453,5.3339844
			c0,3.5556641-11.421875,22.4262695-10.4501953,17.1386719C37.3359375,213.5888672,37.7705078,196.4042969,37.7705078,196.4042969z
			"/>
		<path fill="#28160E" d="M490.0517578,387.8046875c0,0-122.0512695,1.1835938-143.3857422,7.1054688
			c-21.3349609,5.9228516,61.6254883,3.5566406,87.6821289,13.0341797c0,0,28.4350586-8.2890625,45.0361328-7.1113281
			C495.9741211,402.0214844,490.0517578,387.8046875,490.0517578,387.8046875z"/>
		<path fill="#5B3725" d="M136.8974609,307.9257812l49.1064453,76.2089844l15.9609375,3.2070312
			C201.9648438,387.3417969,167.9853516,330.7294922,136.8974609,307.9257812z"/>
		<path fill="#5B3725" d="M49.1923828,148.4072266c0,0,11.8564453,11.8505859,10.6557617,21.3344727
			C58.6708984,179.2197266,30.2358398,162.6298828,49.1923828,148.4072266z"/>
		<path fill="#5B3725" d="M168.8881836,169.7416992c2.3666992-2.9155273,23.7016602-1.1889648,18.956543,4.7387695
			C183.1000977,180.4033203,148.7314453,194.6318359,168.8881836,169.7416992z"/>
		<polygon fill="#FAAF40" points="192.5898438,183.9648438 206.8125,202.9155273 203.2568359,215.9609375 173.6333008,217.1445312 
			170.065918,202.9155273 179.5556641,182.7753906 		"/>
		<polygon fill="#ED8B25" points="192.6352539,190.7504883 202.9370117,204.4707031 200.3530273,213.9145508 
			178.9038086,214.777832 176.331543,204.4707031 183.1914062,189.887207 		"/>
		<path fill="#DAC3B3" d="M113.1962891,140.1123047c-4.0361328,12.8964844,15.4008789,13.0395508,17.7675781,23.7011719
			c2.3779297,10.6669922,59.2592773,2.3666992,46.2138672-5.9282227
			C164.1435547,149.590332,119.1074219,121.1499023,113.1962891,140.1123047z"/>
	</g>
	<path fill="#9D1D20" d="M793.8701172,398.1748047c0,0-11.8105469,112.8300781-13.7080078,139.34375
		C780.1621094,537.5185547,813.3759766,528.9091797,793.8701172,398.1748047z"/>
	<path fill="#9D1D20" d="M670.9394531,556.2353516l74.1445312-9.7529297l0.1259766,10.6679688
		C745.2099609,557.1503906,702.1630859,571.8417969,670.9394531,556.2353516z"/>
	<path fill="#9D1D20" d="M832.2636719,546.8144531l-75.4716797,9.4208984
		C756.7919922,556.2353516,794.5566406,584.2246094,832.2636719,546.8144531z"/>
	<polygon fill="#F6921E" points="819.0351562,319.1757812 819.0351562,346.0097656 848.9794922,335.7998047 
		848.5449219,313.8134766 	"/>
	<path fill="#FFFFFF" d="M219.4350586,77.0341797c-5.9223633-22.4609375,14.9208984-55.6171875,52.9023438-32.5566406
		c37.9702148,23.0615234,36.6210938,46.1220703,73.2421875,28.4863281s33.9228516-13.5654297,33.9228516-13.5654297
		s31.1899414-9.4897461,48.831543,13.5654297c0,0-25.7705078-12.2050781-47.4824219-2.7099609
		c-25.9541016,11.3476562-28.4804688,37.9765625-61.0429688,32.5507812
		c-32.5507812-5.4248047-23.0610352-21.7060547-51.5415039-8.1347656
		C239.7753906,108.2358398,224.0771484,94.6357422,219.4350586,77.0341797z"/>
	<path fill="#FFFFFF" d="M379.9140625,127.4384766c-4.722168,16.4121094,17.6987305,37.9985352,44.4873047,20.9458008
		c26.7768555-17.0585938,25.8393555-34.1118164,51.6669922-21.0717773
		c25.828125,13.0454102,23.9189453,10.0327148,23.9189453,10.0327148s22.0087891,7.0200195,34.4487305-10.0327148
		c0,0-18.1791992,9.0263672-33.4887695,2.0068359c-18.3046875-8.3925781-20.0996094-28.0805664-43.0576172-24.0673828
		c-22.9584961,4.0014648-16.2583008,16.046875-36.3583984,6.0136719
		C401.4316406,101.2329102,383.7670898,114.0268555,379.9140625,127.4384766z"/>
	<path fill="#FFFFFF" d="M455.5341797,17.3920898c-3.9213867,7.3461914,4.5849609,19.9057617,19.0820312,14.4916992
		c14.4863281-5.4194336,15.7783203-13.6455078,26.765625-4.8076172c10.987793,8.8320312,10.3818359,7.203125,10.3818359,7.203125
		s9.7871094,5.5737305,17.4472656-1.2919922c0,0-9.5927734,2.4580078-16.1782227-2.4355469
		c-7.8662109-5.8535156-6.734375-15.4238281-18.0874023-15.8349609c-11.3535156-0.4174805-9.3754883,6.0024414-17.9394531-0.8173828
		C468.4423828,7.0791016,458.7241211,11.3896484,455.5341797,17.3920898z"/>
</g>
<g>
</g>
<g>
</g>
<g>
</g>
<g>
</g>
<g>
</g>
<g>
</g>
</svg>
