<?xml version="1.0" encoding="utf-8"?>
<!-- Generator: Adobe Illustrator 16.0.0, SVG Export Plug-In . SVG Version: 6.00 Build 0)  -->
<!DOCTYPE svg PUBLIC "-//W3C//DTD SVG 1.1//EN" "http://www.w3.org/Graphics/SVG/1.1/DTD/svg11.dtd">
<svg version="1.1" id="Layer_1" xmlns="http://www.w3.org/2000/svg" xmlns:xlink="http://www.w3.org/1999/xlink" x="0px" y="0px"
	 width="495px" height="323.611px" viewBox="0 0 495 323.611" enable-background="new 0 0 495 323.611" xml:space="preserve">
<path fill="#FFFFFF" d="M322.656,60.477c2.715,10.291-6.833,25.467-24.223,14.911c-17.383-10.557-16.769-21.113-33.536-13.045
	c-16.769,8.078-15.532,6.211-15.532,6.211s-14.28,4.345-22.357-6.211c0,0,11.8,5.589,21.743,1.244
	c11.882-5.194,13.036-17.39,27.946-14.91c14.902,2.487,10.557,9.943,23.602,3.731S320.533,52.424,322.656,60.477z"/>
<path fill="#FFFFFF" d="M249.18,37.401c2.164-7.512-8.102-17.398-20.371-9.587c-12.261,7.811-11.825,15.621-23.658,9.644
	c-11.825-5.969-10.945-4.588-10.945-4.588s-10.08-3.214-15.774,4.588c0,0,8.319-4.127,15.33-0.913
	c8.384,3.845,9.2,12.859,19.716,11.018c10.508-1.833,7.447-7.35,16.647-2.754C239.325,49.403,247.419,43.548,249.18,37.401z"/>
<path fill="#FFFFFF" d="M214.553,87.786c1.801-3.36-2.092-9.111-8.732-6.631c-6.639,2.48-7.229,6.244-12.261,2.205
	c-5.024-4.046-4.749-3.304-4.749-3.304s-4.483-2.552-7.988,0.59c0,0,4.394-1.123,7.407,1.115c3.603,2.681,3.085,7.068,8.279,7.253
	c5.202,0.194,4.297-2.746,8.214,0.372C208.648,92.511,213.091,90.54,214.553,87.786z"/>
<path fill="#8C1B23" d="M486.549,130.594c-13.885-12.414-23.973-21.501-23.973-21.501c-10.889-13.06-17.924-15.241-17.924-15.241
	s16.801-7.326,10.242-18.989c-3.733-6.645-9.498-5.922-14.504-3.956c-6.815,1.136-8.879,3.956-8.879,3.956
	c-13.618,1.898-17.625-1.454-36.355,7.923c-1.213,0.612-3.724,2.52-7.572,4.962c-5.688-1.321-12.545-0.954-14.914,7.234
	c-0.071,0.245-0.115,0.475-0.172,0.711c-14.505,6.173-36.001,11.427-65.285,7.601c-33.406-4.362-64.455,2.916-118.499,4.377
	c-27.805,0.748-44.679,8.306-54.465,19.826c0.201-0.47,0.402-0.941,0.607-1.418c1.624-3.786-11.432,10.259-18.2,23.516
	c-9.525-3.042-18.154-8.52-25.113-14.037c-0.168-0.71-0.321-1.403-0.497-2.122c0,0-4.111-11.526-13.981-12.349
	c0,0,0.487,0.751,1.284,2.285c-2.025-2.168-3.376-3.779-3.909-4.43c-0.151-2.887,0.162-5.794,1.378-8.699
	c26.729,8.658,65.186-2.137,71.364-20.658c2.097-6.294,2.432-14.144,1.044-22.057c3.648-3.33,29.385-28.493-12.87-39.644
	c-2.01-0.53-3.987-0.966-5.934-1.323c-8.099-11.528-23.965-28.417-42.98-19.242c-24.191,11.677-61.454,29.17-48.102,56.61
	c-2.795,1.852-4.199,5.438-1.161,12.263c0.825,1.856,1.661,3.366,2.496,4.616c-3.515,4.882-7.099,13.023-6.333,25.512
	c1.438,23.432-18.173,6.704-18.173,6.704s16.736,20.088,25.362,5.258c7.502-12.927,17.547-15.678,19.992-16.17
	c-2.495,4.569-4.417,9.787-4.669,15.239c-4.478-2.495-9.225,2.91-9.225,2.91c0.348-0.055,0.677-0.037,0.997,0.014
	c-4.754,1.624-9.664,4.158-14.284,8.047c-9.688,8.16-15.708,27.465-19.217,43.715l-3.972-0.722l-0.25,12.956l1.802,0.614
	c-1.28,7.873-1.802,13.271-1.802,13.271s-0.369,0.211-0.886,0.698c-2.532,2.121-9.252,8.76-2.935,15.084
	c0.501,0.5,0.998,1,1.491,1.495c1.468,2.511,3.644,4.604,6.135,5.554c4.608,3.316,8.874,3.452,12.946-5.611
	c6.219-13.876-7.181-12.923-7.181-12.923l1.605-14.371l6.472,2.207v-15.814l-1.434-0.261c8.619-17.983,22.539-30.586,22.539-30.586
	c-5.559,12.975-6.108,53.141-3.667,61.753c-3.167,11.286-4.618,23.417-5.032,35.179c-3.164,32.848,0.55,48.549,4.409,56.003
	c0.458,2.499,0.848,4.421,1.106,5.637c-9.115-1.547-27.379-3.461-25.725,6.45c0.702,4.224,6.771,7.654,14.28,9.482
	c8.416,3.133,16.063,2.073,21.562,0.271c1.742-0.479,3.341-1.112,4.726-1.916c2.491-1.221,3.921-2.278,3.921-2.278l-0.924-0.115
	c2.738-3.057,3.413-7.51,0.584-13.665c0,0,4.12-59.237,10.694-47.712c6.23,10.894-3.015,46.848-4.022,50.664
	c-3.229,4.042-6.764,10.201,0.492,11.36c0,0,22.507,7.682,40.497,0.893c0.432-0.148,0.837-0.311,1.215-0.485
	c0.696-0.292,1.387-0.6,2.066-0.939l-0.415-0.055c1.818-1.457,2.232-3.538,0.528-6.448c-5.512-9.432-9.191-8.588-19.69-7.803
	c0.486-0.677,0.726-1.123,0.726-1.123c10.603-27.846,4.118-67.434,1.2-81.758c1.81-10.961,3.154-29.579-0.735-56.083
	c2.221,0.242,7.277,1.12,16.621,4.29c0.825,4.499,2.535,3.704,4.165,1.467c0.714,0.26,1.441,0.526,2.197,0.81
	c0.923,0.346,1.867,0.676,2.821,0.994c0.709,63.39,12.506,84.436,1.573,138.214c-4.927,24.353,31.703,17.923,31.703,8.271
	c0-12.168,2.658-34.723,4.673-50.082c0.575-1.248,1.216-2.623,1.914-4.107c-0.021,11.787,0.724,30.011,4.809,44.094
	c6.566,22.64,30.442,16.541,29.724,4.66c-2.358-39.004,1.034-71.055,1.034-71.055l6.193,2.187c0.333,2.709,1.729,4.647,5.673,4.332
	c3.142-0.238,4.277-2.581,4.505-5.329c2.409,0.366,4.623,0.361,6.663,0.071c3.332,3.037,7.033,5.202,9.735,3.4
	c2.503-1.649,2.366-5.314,1.466-8.838c6.128-5.546,9.394-13.678,11.433-17.268c0,0-0.567-0.904-1.606-2.312
	c20.224,3.565,55.914,4.904,63.29,1.828c8.78-3.643,25.58,50.587,14.644,87.265c-5.523,18.537,21.461,17.35,26.541,6.405
	c3.832-8.168,6.723-49.377,7.946-69.804c1.53,5.074,2.822,10.928,3.807,17.667c1.628,17.164,3.109,37.637,2.27,48.841
	c-1.551,21.081,30.491,14.49,32.155,3.982c16.355-105.333-19.644-128.83,7.253-132.828c11.986-1.809,15.491-9.15,15.491-9.15
	s22.205-2.787,42.041-2.763C483.713,166.198,500.425,143.017,486.549,130.594z"/>
</svg>
