<?xml version="1.0" encoding="utf-8"?>
<!-- Generator: Adobe Illustrator 16.0.0, SVG Export Plug-In . SVG Version: 6.00 Build 0)  -->
<!DOCTYPE svg PUBLIC "-//W3C//DTD SVG 1.1//EN" "http://www.w3.org/Graphics/SVG/1.1/DTD/svg11.dtd">
<svg version="1.1" id="Layer_1" xmlns="http://www.w3.org/2000/svg" xmlns:xlink="http://www.w3.org/1999/xlink" x="0px" y="0px"
	 width="866px" height="702.886px" viewBox="0 -191.886 866 702.886" enable-background="new 0 -191.886 866 702.886"
	 xml:space="preserve">
<polygon fill="#37B5CA" points="374.791,180.311 370.547,224.754 365.604,225.298 "/>
<g>
	<path fill="#3B2314" d="M66.137,153.083c0,0-19.465,41.252-50.217,68.79c-30.752,27.523-5.644,104.971,51.151,90.321
		c42.586-10.994,94.551-2.08,94.551-2.08s20.039,7.417,53.353-8.566c81.383-39.062,18.024,129.933,11.541,152.588
		c-6.484,22.666,52.112,40.758,68.309-4.563c16.183-45.335,39.103-79.208,39.103-79.208s6.484,68.002,17.825,92.269
		c11.314,24.27,84.185,17.812,76.087-24.267c-8.098-42.106-17.825-140.847,1.613-132.761c19.439,8.085,82.571,21.038,116.553,9.699
		c0,0,30.766,71.241,121.434,38.876c0,0-6.482,72.845-11.339,98.741c-4.856,25.896,63.145,50.204,77.727,0
		c14.569-50.205,17.784-93.898,17.784-93.898s-6.79,73.953,12.648,112.817c19.438,38.862,105.224,8.085,79.314-40.479
		c-23.707-44.495-6.149-148.438-6.149-289.286c0-141.327-27.524-131.121-147.316-134.35C570.286,4.471,512.918,6.633,438.9,16.292
		c-122.596,16.01-123.29,66.602-213.919,61.278C117.048,71.232,106.456,91.645,98.357,94.887c-8.072,3.255-37.223-25.896-51.805,0
		c-14.556,25.896,22.694,42.093,22.694,42.093S72.582,133.657,66.137,153.083z"/>
	<path fill="#28160E" d="M64.376,260.229c-11.021-7.005,14.542-27.525,22.64-22.669C95.115,242.431,82.161,271.557,64.376,260.229z"
		/>
	<path fill="#28160E" d="M306.418,427.024c0,0,13.182-160.019,57.876-155.041c32.499,3.614,63.546,25.535,63.546,25.535
		S388.989,234.36,306.418,427.024z"/>
	<path fill="#28160E" d="M694.963,276.465c0,0,42.014,110.655,59.812,144.649C754.774,421.114,774.292,310.446,694.963,276.465z"/>
	<path fill="#28160E" d="M667.439,354.18c0,0,20.654-73.271-29.552-74.899c-50.164-1.6-69.602,7.298-69.602,7.298
		S722.889,161.501,667.439,354.18z"/>
	<path fill="#28160E" d="M235.976,107.841c0,0,48.576,4.856,37.236,37.25c-11.314,32.353-53.42,3.215-53.42,3.215
		S292.65,148.306,235.976,107.841z"/>
	<path fill="#28160E" d="M59.4,85.268c0,0,19.398,9.713,21.04,24.295c1.627,14.569,1.627,14.569,1.627,14.569l16.29-29.245
		C98.357,94.887,90.152,83.64,59.4,85.268z"/>
	<path fill="#DAC3B3" d="M680.395,54.675c19.413,27.497,25.896,59.877-1.614,69.589c-27.536,9.713-159.138-22.24-149.425,13.368
		c9.712,35.622-101.182,87.014-93.418,23.868c4.617-37.53,9.699-71.217,51.806-92.27c42.079-21.053,22.667-33.995,100.367-25.896
		C665.812,51.42,680.395,54.675,680.395,54.675z"/>
	<path fill="#DAC3B3" d="M385.507,58.291c-68.963-18.131-97.287,91.963-97.287,157.27c0,74.5,46.724-44.854,83.96-62.652
		c37.209-17.811,39.303-55.5,50.63-73.298C434.137,61.8,416.26,66.376,385.507,58.291z"/>
	<path fill="#28160E" d="M806.646,23.896c0,0,53.446,37.236,56.688,103.624l-30.752-35.635
		C832.582,91.885,814.757,35.236,806.646,23.896z"/>
	<path fill="#ED8585" d="M546.006,314.475c0,0,31.939-50.991,72.283-49.35c40.359,1.654,67.643,19.518,49.15,90.242
		C583.854,409.908,557.533,334.755,546.006,314.475z"/>
	<path fill="#ED8585" d="M648.016,352.552c1.628,14.556,8.085,37.236-12.956,35.609c-21.052-1.616-53.513-46.684-53.513-46.684
		s-30.219,12.315-46.643,1.349c-14.581-9.699,34.662-33.327,34.662-33.327"/>
	<path fill="#3B2314" d="M83.802,133.75c0,0-32.487,10.34-38.264,26.71c-5.764,16.37,7.725,16.37-1.921,30.699
		C33.971,205.475,66.604,190.919,83.802,133.75z"/>
	<path fill="#28160E" d="M117.208,164.996c0,0,50.031,14.823,55.167,8.019c5.083-6.805-3.576-15.197-29.432-18.372
		C117.115,151.455,117.208,164.996,117.208,164.996z"/>
	<path fill="#E6E7E8" d="M171.322,182.927c0,0-52.459,23.975-52.712-5.483C118.396,150.374,165.638,160.167,171.322,182.927z"/>
	<path fill="#28160E" d="M163.491,180.259c0,6.871-5.577,12.434-12.448,12.434c-6.884,0-12.435-5.563-12.435-12.434
		c0-6.871,5.55-12.447,12.435-12.447C157.914,167.812,163.491,173.388,163.491,180.259z"/>
	<path fill="#D45E5F" d="M652.858,274.839c0,0,9.725,69.615-1.614,89.04l16.195-8.512
		C667.439,355.367,696.579,297.519,652.858,274.839z"/>
	<path fill="#28160E" d="M45.538,160.46c0,0,12.354,2.428,12.354,7.271c0,4.883-15.61,30.646-14.275,23.428
		C44.938,183.928,45.538,160.46,45.538,160.46z"/>
	<path fill="#28160E" d="M660.957,247.313c0,0-166.73,1.628-195.868,9.713c-29.151,8.099,47.563,38.185,83.158,51.138
		c0,0,21.319-47.975,98.14-43.039C669.067,266.565,660.957,247.313,660.957,247.313z"/>
	<path fill="#5B3725" d="M249.917,228.996l-29.231,53.728l0,0C220.686,282.724,258.682,316.224,249.917,228.996z"/>
	<path fill="#5B3725" d="M61.134,94.887c0,0,16.197,16.183,14.556,29.151C74.089,136.979,35.239,114.325,61.134,94.887z"/>
	<path fill="#5B3725" d="M224.648,124.038c3.229-3.989,32.38-1.627,25.896,6.458C244.061,138.594,197.111,158.032,224.648,124.038z"
		/>
	<polygon fill="#FAAF40" points="257.028,143.463 276.453,169.359 271.597,187.17 231.132,188.784 226.263,169.359 239.217,141.835 
			"/>
	<polygon fill="#ED8B25" points="257.094,152.735 271.156,171.48 267.635,184.382 238.336,185.556 234.813,171.48 244.193,151.548 	
		"/>
	<path fill="#DAC3B3" d="M140.37,92.285c-5.51,17.611,29.245,9.085,32.473,23.655c3.242,14.555,80.957,3.215,63.133-8.099
		C218.164,96.514,148.441,66.389,140.37,92.285z"/>
</g>
<path fill="#28160E" d="M337.639,390.803l18.957-2.977c0,0,29.018,17.626,15.703,85.6
	C372.299,473.426,338.959,492.104,337.639,390.803z"/>
<path fill="#28160E" d="M322.989,390.803l-42.467-7.218l-17.689-8.918l-16.667,2.667l-12,19.333l5.333,10l4.801,4.641
	c0,0-18.706,22.788-12.061,58.771c0,0,34.487,16.93,47.816,2.267C293.397,457.683,322.989,390.803,322.989,390.803z"/>
<g>
	<path fill="#70412A" d="M521.377,275.397c0,0,10.553,9.513,25.082,22.494c14.516,12.995,1.627,39.184-26.109,39.17
		c-20.76-0.012-46.535,4.898-46.535,4.898s-5.697,3.734-18.238,5.616c-28.137,4.176-3.669,29.484-20.785,139.672
		c-1.721,10.994-22.067,17.157-20.439-4.896c1.693-22.666-5.684-81.609-5.684-81.609s-15.049,72.591-20.426,84.051
		c-5.323,11.448-22.107,13.689-16.316-5.697c11.42-38.368-6.138-95.085-15.33-91.27c-9.152,3.804-85.727-1.13-101.763-6.492
		c0,0-8.667,10.666-10.532,29.413c0,0-12.782,33.248-10.327,74.046c0.747,12.422-14.969,19.105-21.84-4.589
		c-6.871-23.695-7.564-67.161-7.564-67.161s-16.13,61.689-25.296,80.035c-9.166,18.332-23.094,15.569-17.944-9.899
		c11.447-56.313,4.79-79.383,4.069-145.85c-0.36-33.46,12.995-61.892,69.522-63.413c56.542-1.532,89.015-9.151,123.956-4.574
		c57.85,7.551,91.816-21.013,97.127-23.683c19.6-9.792,18.637-4.083,32.887-6.07c4.096-0.572,17.584-12.233,24.454,0
		c6.872,12.208-10.712,19.867-10.712,19.867S509.998,261.736,521.377,275.397z"/>
	<path fill="#3B2314" d="M535.52,308.339c5.189-3.31-6.871-12.995-10.674-10.715C521.004,299.921,527.127,313.661,535.52,308.339z"
		/>
	<path fill="#5B3520" d="M412.244,448.078c0,0,7.404-74.192-10.914-84.894c-18.359-10.698-43.946,20.826-43.946,20.826
		S409.495,344.107,412.244,448.078z"/>
	<path fill="#5B3520" d="M231.306,374.058c0,0-29.805,51.967-38.21,68.029C193.096,442.087,193.869,390.095,231.306,374.058z"/>
	<path fill="#5B3520" d="M244.301,410.747c0,0-0.495-25.987,23.199-26.747c8.667,0.667,33.333,4,33.333,4
		S218.124,319.812,244.301,410.747z"/>
	<path fill="#5B3520" d="M445.65,256.132c0,0-22.92,2.309-17.557,17.599c5.336,15.249,25.201,1.507,25.201,1.507
		S418.914,275.237,445.65,256.132z"/>
	<path fill="#5B3520" d="M507.275,235.04c0,0-9.139,4.575-9.926,11.46c-0.762,6.872-0.762,6.872-0.762,6.872l-7.697-13.783
		C488.891,239.589,492.76,234.293,507.275,235.04z"/>
	<path fill="#3B2314" d="M506.436,279.614c0,0-23.628,6.978-26.043,3.775c-2.402-3.215,1.68-7.165,13.9-8.658
		C506.475,273.223,506.436,279.614,506.436,279.614z"/>
	<path fill="#E6E7E8" d="M480.898,288.06c0,0,24.736,11.325,24.869-2.576C505.861,272.717,483.566,277.333,480.898,288.06z"/>
	<path fill="#3B2314" d="M491.572,282.963c0,3.229,2.628,5.856,5.87,5.856c3.243,0,5.856-2.628,5.856-5.856
		c0-3.256-2.613-5.884-5.856-5.884C494.2,277.079,491.572,279.707,491.572,282.963z"/>
	<path fill="#5B3520" d="M248.022,364.971c0,0,78.688,0.773,92.456,4.603c13.743,3.815-39.744,2.282-56.554,8.406
		c0,0-18.305-5.364-29.031-4.591C244.22,374.162,248.022,364.971,248.022,364.971z"/>
	<path fill="#5B3725" d="M439.086,313.314l13.783,25.375l0,0C452.869,338.689,434.951,354.487,439.086,313.314z"/>
	<path fill="#5B3725" d="M506.475,239.589c0,0-7.658,7.617-6.871,13.741C500.351,259.456,518.682,248.755,506.475,239.589z"/>
	<path fill="#5B3725" d="M451.014,263.805c-1.548-1.907-15.289-0.787-12.234,3.028C441.861,270.662,464.008,279.828,451.014,263.805
		z"/>
	<path fill="#DAC3B3" d="M395.419,288.086c3.763,12.047-19.985,6.217-22.199,16.17c-2.188,9.967-55.341,2.215-43.147-5.551
		C342.227,290.995,389.883,270.395,395.419,288.086z"/>
</g>
<path fill="#28160E" d="M130.884,307.284c0,0,48.963,10.246,69.456,0c20.493-10.247,58.049-38.716,56.914-53.512
	c-1.133-14.796,1.148-40.987,1.148-40.987S192.361,298.186,130.884,307.284z"/>
<path fill="#28160E" d="M390.417,474.628c0,0,14.809,5.709,21.64-5.684c6.83-11.395-4.562-60.345-4.562-60.345
	S398.382,459.818,390.417,474.628z"/>
<path fill="#D45E5F" d="M542.977,344.841c0,0,26.189-15.943,30.738-29.605c4.55-13.661-7.963,31.887-7.963,31.887L542.977,344.841z"
	/>
<path fill="#DAC3B3" d="M311.447,342.612c-7.831,9.899-74.885-12.366-84.358-8.591c-9.459,3.802,25.483-45.121,38.771-39.426
	C279.082,300.293,322.949,328.07,311.447,342.612z"/>
<path fill="#FFFFFF" d="M429.09-163.688c-9.682-27.34-55.498-28.442-55.498,12.451c0,37.256,55.497,64.351,55.497,64.351
	l0.001-0.038l0.001,0.038c0,0,55.496-33.869,55.496-64.351C484.587-192.129,438.771-191.027,429.09-163.688z"/>
</svg>
