<?xml version="1.0" encoding="utf-8"?>
<!-- Generator: Adobe Illustrator 16.0.0, SVG Export Plug-In . SVG Version: 6.00 Build 0)  -->
<!DOCTYPE svg PUBLIC "-//W3C//DTD SVG 1.0//EN" "http://www.w3.org/TR/2001/REC-SVG-20010904/DTD/svg10.dtd">
<svg version="1.0" id="Layer_1" xmlns="http://www.w3.org/2000/svg" xmlns:xlink="http://www.w3.org/1999/xlink" x="0px" y="0px"
	 width="495px" height="469px" viewBox="0 0 495 469" enable-background="new 0 0 495 469" xml:space="preserve">
<g>
	<g>
		<g>
			<g>
				<path fill="#70412A" d="M453.2983398,187.1791992c0,0,12.6645508,11.4067383,30.0947266,26.9897461
					c17.4174805,15.5966797,1.9550781,47.0429688-31.340332,47.0166016
					c-24.9008789-0.0263672-55.8530273,5.8769531-55.8530273,5.8769531s-6.8408203,4.4716797-21.8881836,6.7353516
					c-33.7636719,5.0195312-4.3916016,35.3945312-24.9277344,167.6259766
					c-2.0888672,13.1865234-26.4941406,20.5898438-24.5395508-5.8769531
					c2.034668-27.2060547-6.8276367-97.9433594-6.8276367-97.9433594s-18.0600586,87.125-24.5131836,100.8730469
					c-6.3720703,13.7363281-26.5205078,16.4414062-19.5854492-6.8251953
					c13.7216797-46.0537109-7.3632812-114.1308594-18.3813477-109.5527344
					c-10.9916992,4.5800781-72.0654297,1.3525391-91.3032227-5.0859375c0,0-13.7226562,15.6904297-43.4697266,32.6103516
					c0,0-15.3554688,39.8964844-12.3969727,88.8535156c0.8969727,14.9140625-17.9658203,22.9208984-26.2128906-5.5019531
					c-8.246582-28.4462891-9.0629883-80.6054688-9.0629883-80.6054688s-19.3725586,74.0341797-30.3637695,96.0566406
					c-11.0039062,22.0087891-27.7255859,18.6738281-21.5400391-11.8896484
					c13.7358398-67.5800781,5.7426758-95.2529297,4.8862305-175.0283203
					c-0.4282227-40.1635742,15.5830078-74.2880859,83.4311523-76.1083984
					c67.8486328-1.8349609,106.8198242-10.9785156,148.7631836-5.5029297
					c69.4414062,9.0771484,110.1933594-25.1953125,116.565918-28.4086914
					c23.5219727-11.7675781,22.3706055-4.8994141,39.4663086-7.2827148c4.9267578-0.6962891,21.0991211-14.6860352,29.359375,0
					c8.2333984,14.6459961-12.8657227,23.84375-12.8657227,23.84375S439.6293945,170.7797852,453.2983398,187.1791992z"/>
			</g>
			<g>
				<path fill="#3B2314" d="M470.2597656,226.7128906c6.2387695-3.9765625-8.2460938-15.5961914-12.8115234-12.8525391
					C452.855957,216.6054688,460.1928711,233.0981445,470.2597656,226.7128906z"/>
			</g>
			<g>
				<path fill="#5B3520" d="M322.3007812,394.4189453c0,0,8.9023438-89.0390625-13.0805664-101.8925781
					c-22.0351562-12.8251953-52.746582,24.9941406-52.746582,24.9941406S319.0068359,269.6337891,322.3007812,394.4189453z"/>
			</g>
			<g>
				<path fill="#5B3520" d="M105.1538086,305.5800781c0,0-35.7451172,62.359375-45.8393555,81.6503906
					C59.3144531,387.2304688,60.2250977,324.8300781,105.1538086,305.5800781z"/>
			</g>
			<g>
				<path fill="#5B3520" d="M120.7636719,349.6230469c0,0-11.7006836-41.5146484,16.734375-42.4238281
					c28.3950195-0.9248047,39.4130859,4.1494141,39.4130859,4.1494141S89.3427734,240.4755859,120.7636719,349.6230469z"/>
			</g>
			<g>
				<path fill="#5B3520" d="M362.409668,164.0585938c0,0-27.5117188,2.7719727-21.0722656,21.112793
					c6.3994141,18.3007812,30.2426758,1.8203125,30.2426758,1.8203125S330.3193359,186.9916992,362.409668,164.0585938z"/>
			</g>
			<g>
				<path fill="#5B3520" d="M436.362793,138.7431641c0,0-10.9643555,5.4882812-11.9013672,13.7490234
					c-0.9243164,8.2470703-0.9243164,8.2470703-0.9243164,8.2470703l-9.2373047-16.5341797
					C414.2998047,144.2050781,418.9453125,137.8457031,436.362793,138.7431641z"/>
			</g>
			<g>
				<path fill="#ED8585" d="M168.2495117,318.8857422c0,0-12.7451172-20.375-28.8505859-19.7314453
					c-16.1181641,0.6943359-27.0292969,7.8173828-19.6259766,36.0507812
					C153.1484375,357.0009766,163.6577148,326.9716797,168.2495117,318.8857422z"/>
			</g>
			<g>
				<path fill="#ED8585" d="M127.5107422,334.0800781c-0.6289062,5.8388672-3.2124023,14.8876953,5.1948242,14.2197266
					c8.3808594-0.6435547,3.2128906-15.5039062,3.2128906-15.5039062s12.1958008,17.9257812,18.769043,13.5488281
					c5.8242188-3.8417969-1.940918-18.0742188-1.940918-18.0742188"/>
			</g>
			<g>
				<path fill="#5B3725" d="M435.3583984,192.2397461c0,0-28.3544922,8.3808594-31.2597656,4.5385742
					c-2.878418-3.8823242,2.0214844-8.6079102,16.6806641-10.3886719
					C435.3989258,184.5551758,435.3583984,192.2397461,435.3583984,192.2397461z"/>
			</g>
			<g>
				<path fill="#E6E7E8" d="M404.7143555,202.3740234c0,0,29.6806641,13.5888672,29.8413086-3.0927734
					C434.6621094,183.953125,407.9140625,189.5087891,404.7143555,202.3740234z"/>
			</g>
			<g>
				<path fill="#3B2314" d="M410.4848633,196.2695312c0,3.8691406,3.1455078,7.0283203,7.0283203,7.0283203
					c3.8959961,0,7.0415039-3.1591797,7.0415039-7.0283203c0-3.9091797-3.1455078-7.0551758-7.0415039-7.0551758
					C413.6303711,189.2143555,410.4848633,192.3603516,410.4848633,196.2695312z"/>
			</g>
			<g>
				<path fill="#D45E5F" d="M129.0239258,304.6826172c0,0-2.5439453,29.734375,3.855957,40.7646484l-12.1162109,4.8320312
					C120.7636719,350.2792969,104.2700195,317.5205078,129.0239258,304.6826172z"/>
			</g>
			<g>
				<path fill="#5B3520" d="M124.4316406,289.0722656c0,0,94.4233398,0.9238281,110.956543,5.5283203
					c16.4936523,4.5800781-47.7001953,2.7314453-67.8618164,10.0820312c0,0-21.9956055-6.4404297-34.8608398-5.5019531
					C119.8666992,300.1171875,124.4316406,289.0722656,124.4316406,289.0722656z"/>
			</g>
			<g>
				<path fill="#5B3725" d="M354.5375977,232.6835938l16.5336914,30.4570312l0,0
					C371.0712891,263.140625,349.5712891,282.0976562,354.5375977,232.6835938z"/>
			</g>
			<g>
				<path fill="#5B3725" d="M435.3989258,144.2050781c0,0-9.184082,9.1435547-8.2338867,16.4936523
					C428.0625,168.0488281,450.0444336,155.2099609,435.3989258,144.2050781z"/>
			</g>
			<g>
				<path fill="#5B3725" d="M368.8491211,173.2700195c-1.8608398-2.3027344-18.3544922-0.9643555-14.6860352,3.6274414
					C357.8579102,181.4897461,384.4458008,192.4946289,368.8491211,173.2700195z"/>
			</g>
			<g>
				<path fill="#DAC3B3" d="M302.1118164,202.4013672c4.5249023,14.4580078-23.9633789,7.4570312-26.6411133,19.4121094
					c-2.6240234,11.9550781-66.4160156,2.6503906-51.7700195-6.6669922
					C238.2802734,205.8955078,295.4716797,181.168457,302.1118164,202.4013672z"/>
			</g>
			<g>
				<path fill="#DAC3B3" d="M200.5805664,259.8203125c-6.9082031,8.7294922-66.0541992-10.9101562-74.4086914-7.5771484
					c-8.3398438,3.3603516,22.4785156-39.7885742,34.1918945-34.7680664
					C172.0244141,222.4956055,210.7148438,246.9951172,200.5805664,259.8203125z"/>
			</g>
		</g>
		<g>
			<polygon fill="#FAAF40" points="363.5478516,183.0693359 380.2016602,205.2661133 376.0380859,220.5273438 
				341.3510742,221.9199219 337.1743164,205.2661133 348.2861328,181.6767578 			"/>
		</g>
		<g>
			<polygon fill="#ED8B25" points="363.6010742,191.0214844 375.6630859,207.0869141 372.6381836,218.1455078 
				347.5224609,219.1494141 344.5107422,207.0869141 352.5429688,190.0043945 			"/>
		</g>
	</g>
	<g>
		<path fill="#5B3520" d="M41.6962891,211.4375c3.7084961-8.6484375-38.8242188,38.8505859-36.5478516,61.6894531
			c2.2758789,22.8398438,13.7084961-6.8544922,13.7084961-6.8544922S27.987793,243.4345703,41.6962891,211.4375z"/>
	</g>
</g>
<g>
	<g>
		<g>
			<path fill="#404041" d="M230.3808594,80.8286133c-22.0151367,0-39.9213867-17.9267578-39.9213867-39.9619141
				c0-22.0229492,17.9125977-39.9355469,39.9355469-39.9355469c22.0288086,0,39.9482422,17.9125977,39.9482422,39.9355469
				C270.3432617,62.9018555,252.4169922,80.8286133,230.3808594,80.8286133z M230.3950195,14.6401367
				c-14.4594727,0-26.2265625,11.7675781-26.2265625,26.2265625c0,14.4785156,11.7612305,26.2524414,26.2124023,26.2524414
				c14.4794922,0,26.253418-11.7739258,26.253418-26.2524414C256.6342773,26.4077148,244.8603516,14.6401367,230.3950195,14.6401367
				z"/>
		</g>
		<g>
			<polygon fill="#404041" points="237.3295898,131.8085938 223.6201172,131.8085938 223.6342773,68.6860352 
				237.3427734,68.6860352 			"/>
		</g>
	</g>
	<g>
		<rect x="202.4414062" y="95.8896484" fill="#404041" width="58.1289062" height="13.7084961"/>
	</g>
</g>
<g>
</g>
<g>
</g>
<g>
</g>
<g>
</g>
<g>
</g>
<g>
</g>
</svg>
