<?xml version="1.0" encoding="utf-8"?>
<!-- Generator: Adobe Illustrator 16.0.0, SVG Export Plug-In . SVG Version: 6.00 Build 0)  -->
<!DOCTYPE svg PUBLIC "-//W3C//DTD SVG 1.0//EN" "http://www.w3.org/TR/2001/REC-SVG-20010904/DTD/svg10.dtd">
<svg version="1.0" id="Layer_1" xmlns="http://www.w3.org/2000/svg" xmlns:xlink="http://www.w3.org/1999/xlink" x="0px" y="0px"
	 width="866px" height="511px" viewBox="0 0 866 511" enable-background="new 0 0 866 511" xml:space="preserve">
<polygon fill="#37B5CA" points="374.7910156,180.3105469 370.546875,224.7539062 365.6035156,225.2983398 "/>
<g>
	<path fill="#3B2314" d="M66.137207,153.0825195c0,0-19.465332,41.2519531-50.2172852,68.7895508
		c-30.7524414,27.5234375-5.644043,104.9707031,51.1513672,90.3212891
		c42.5864258-10.9941406,94.5512695-2.0800781,94.5512695-2.0800781s20.0390625,7.4169922,53.3530273-8.5664062
		C296.3583984,262.484375,233,431.4794922,226.5161133,454.1347656
		c-6.484375,22.6660156,52.1118164,40.7578125,68.3085938-4.5634766
		c16.1826172-45.3349609,39.1030273-79.2080078,39.1030273-79.2080078s6.4848633,68.0019531,17.8251953,92.2685547
		c11.3144531,24.2695312,84.1845703,17.8125,76.0864258-24.2666016
		c-8.0976562-42.1064453-17.824707-140.8466797,1.6142578-132.7607422
		c19.4394531,8.0849609,82.5708008,21.0380859,116.5527344,9.6992188c0,0,30.7651367,71.2412109,121.4331055,38.8759766
		c0,0-6.4824219,72.8447266-11.3388672,98.7412109c-4.8564453,25.8955078,63.1445312,50.2041016,77.7265625,0
		c14.5693359-50.2050781,17.7841797-93.8984375,17.7841797-93.8984375s-6.7900391,73.953125,12.6484375,112.8173828
		c19.4375,38.8623047,105.2236328,8.0849609,79.3144531-40.4785156
		c-23.7070312-44.4951172-6.1494141-148.4375-6.1494141-289.2856445c0-141.3266602-27.5244141-131.1206055-147.3164062-134.3496094
		C570.2861328,4.4711914,512.918457,6.6328125,438.8999023,16.2915039
		c-122.5957031,16.0102539-123.2895508,66.6015625-213.918457,61.277832
		C117.0483398,71.2324219,106.4555664,91.6445312,98.3569336,94.8867188c-8.0717773,3.2553711-37.2226562-25.8955078-51.8046875,0
		c-14.5561523,25.8959961,22.6938477,42.0927734,22.6938477,42.0927734S72.581543,133.6572266,66.137207,153.0825195z"/>
	<path fill="#28160E" d="M64.3764648,260.2294922c-11.0205078-7.0048828,14.5419922-27.5253906,22.6401367-22.6689453
		C95.1152344,242.4306641,82.1606445,271.5566406,64.3764648,260.2294922z"/>
	<path fill="#28160E" d="M306.418457,427.0244141c0,0,13.1816406-160.0185547,57.8754883-155.0410156
		c32.4995117,3.6142578,63.5454102,25.5351562,63.5454102,25.5351562S388.9892578,234.3603516,306.418457,427.0244141z"/>
	<path fill="#28160E" d="M694.9628906,276.4648438c0,0,42.0136719,110.6552734,59.8115234,144.6494141
		C754.7744141,421.1142578,774.2919922,310.4462891,694.9628906,276.4648438z"/>
	<path fill="#28160E" d="M667.4394531,354.1796875c0,0,20.6542969-73.2705078-29.5517578-74.8994141
		c-50.1640625-1.5996094-69.6015625,7.2978516-69.6015625,7.2978516S722.8886719,161.5009766,667.4394531,354.1796875z"/>
	<path fill="#28160E" d="M235.9755859,107.8413086c0,0,48.5756836,4.8564453,37.2363281,37.25
		c-11.3144531,32.3530273-53.4199219,3.2148438-53.4199219,3.2148438S292.6499023,148.3061523,235.9755859,107.8413086z"/>
	<path fill="#28160E" d="M59.3999023,85.2675781c0,0,19.3984375,9.7128906,21.0395508,24.2949219
		c1.6274414,14.5688477,1.6274414,14.5688477,1.6274414,14.5688477l16.2900391-29.2446289
		C98.3569336,94.8867188,90.1518555,83.6401367,59.3999023,85.2675781z"/>
	<path fill="#DAC3B3" d="M680.3945312,54.675293c19.4130859,27.496582,25.8955078,59.8769531-1.6142578,69.5893555
		c-27.5361328,9.7128906-159.137207-22.2402344-149.4248047,13.3681641
		c9.7119141,35.6220703-101.1816406,87.0136719-93.4179688,23.8681641
		c4.6166992-37.5297852,9.6992188-71.2172852,51.8056641-92.2700195
		c42.0791016-21.0527344,22.6669922-33.9946289,100.3671875-25.8959961
		C665.8115234,51.4199219,680.3945312,54.675293,680.3945312,54.675293z"/>
	<path fill="#DAC3B3" d="M385.5068359,58.2910156c-68.9628906-18.1313477-97.2871094,91.9628906-97.2871094,157.2700195
		c0,74.4995117,46.7236328-44.8544922,83.9599609-62.6518555c37.2084961-17.8110352,39.3032227-55.5004883,50.6298828-73.2983398
		C434.1367188,61.7998047,416.2592773,66.3759766,385.5068359,58.2910156z"/>
	<path fill="#28160E" d="M806.6455078,23.8964844c0,0,53.4462891,37.2363281,56.6884766,103.6235352l-30.7519531-35.6352539
		C832.5820312,91.8847656,814.7568359,35.2363281,806.6455078,23.8964844z"/>
	<path fill="#ED8585" d="M546.0063477,314.4746094c0,0,31.9389648-50.9912109,72.2827148-49.3496094
		c40.359375,1.6542969,67.6425781,19.5175781,49.1503906,90.2421875
		C583.8544922,409.9082031,557.5327148,334.7548828,546.0063477,314.4746094z"/>
	<path fill="#ED8585" d="M648.015625,352.5517578c1.6279297,14.5556641,8.0849609,37.2363281-12.9560547,35.609375
		c-21.0517578-1.6162109-53.5126953-46.6835938-53.5126953-46.6835938s-30.2182617,12.3154297-46.6420898,1.3486328
		c-14.581543-9.6992188,34.6616211-33.3271484,34.6616211-33.3271484"/>
	<path fill="#3B2314" d="M83.8017578,133.7504883c0,0-32.4868164,10.3398438-38.2636719,26.7099609
		c-5.7636719,16.3701172,7.7246094,16.3701172-1.9213867,30.6987305
		C33.9707031,205.4750977,66.6044922,190.9189453,83.8017578,133.7504883z"/>
	<path fill="#28160E" d="M117.2084961,164.9960938c0,0,50.03125,14.8227539,55.1674805,8.019043
		c5.0830078-6.8046875-3.5756836-15.1967773-29.4316406-18.371582
		C117.1152344,151.4550781,117.2084961,164.9960938,117.2084961,164.9960938z"/>
	<path fill="#E6E7E8" d="M171.3217773,182.9272461c0,0-52.4589844,23.9746094-52.7119141-5.4829102
		C118.3959961,150.3740234,165.6381836,160.1669922,171.3217773,182.9272461z"/>
	<path fill="#28160E" d="M163.4907227,180.2592773c0,6.8706055-5.5771484,12.434082-12.4477539,12.434082
		c-6.8842773,0-12.4345703-5.5634766-12.4345703-12.434082c0-6.8710938,5.550293-12.4472656,12.4345703-12.4472656
		C157.9135742,167.8120117,163.4907227,173.3881836,163.4907227,180.2592773z"/>
	<path fill="#D45E5F" d="M652.8583984,274.8388672c0,0,9.7246094,69.6152344-1.6142578,89.0400391l16.1953125-8.5117188
		C667.4394531,355.3671875,696.5791016,297.5185547,652.8583984,274.8388672z"/>
	<path fill="#28160E" d="M45.5380859,160.4604492c0,0,12.3540039,2.4277344,12.3540039,7.2709961
		c0,4.8828125-15.6098633,30.6455078-14.2753906,23.4277344C44.9379883,183.9282227,45.5380859,160.4604492,45.5380859,160.4604492z
		"/>
	<path fill="#28160E" d="M660.9570312,247.3134766c0,0-166.7299805,1.6279297-195.8681641,9.7128906
		C435.9375,265.125,512.6518555,295.2109375,548.2470703,308.1640625c0,0,21.3193359-47.9746094,98.1396484-43.0390625
		C669.0673828,266.5654297,660.9570312,247.3134766,660.9570312,247.3134766z"/>
	<path fill="#5B3725" d="M249.9165039,228.9956055l-29.230957,53.7280273l0,0
		C220.6855469,282.7236328,258.6821289,316.2236328,249.9165039,228.9956055z"/>
	<path fill="#5B3725" d="M61.1342773,94.8867188c0,0,16.1967773,16.1831055,14.5556641,29.1508789
		C74.0888672,136.9794922,35.2387695,114.3251953,61.1342773,94.8867188z"/>
	<path fill="#5B3725" d="M224.6479492,124.0375977c3.2290039-3.9887695,32.3798828-1.6274414,25.8955078,6.4575195
		C244.0605469,138.59375,197.1113281,158.0322266,224.6479492,124.0375977z"/>
	<polygon fill="#FAAF40" points="257.027832,143.4628906 276.453125,169.3588867 271.5966797,187.1699219 231.1318359,188.7841797 
		226.2626953,169.3588867 239.2167969,141.8354492 	"/>
	<polygon fill="#ED8B25" points="257.0942383,152.7353516 271.15625,171.4804688 267.6347656,184.3818359 238.3364258,185.5556641 
		234.8134766,171.4804688 244.1933594,151.5478516 	"/>
	<path fill="#DAC3B3" d="M140.3696289,92.2851562c-5.5102539,17.6108398,29.2446289,9.0854492,32.4731445,23.6547852
		c3.2421875,14.5551758,80.9570312,3.2148438,63.1328125-8.0986328
		C218.1640625,96.5141602,148.440918,66.3891602,140.3696289,92.2851562z"/>
</g>
<path fill="#28160E" d="M337.6381836,390.8027344l18.9580078-2.9765625c0,0,29.0175781,17.6259766,15.7021484,85.5996094
	C372.2983398,473.4257812,338.9589844,492.1044922,337.6381836,390.8027344z"/>
<path fill="#28160E" d="M322.9892578,390.8027344l-42.4667969-7.2177734l-6.8574219,16.5429688l-1.09375,7.8984375
	l-10.9008789-2.5742188l-7.2709961,1.8261719l-10.0986328,4.0292969c0,0-18.7055664,22.7880859-12.0610352,58.7705078
	c0,0,34.4873047,16.9296875,47.815918,2.2666016C293.3974609,457.6826172,322.9892578,390.8027344,322.9892578,390.8027344z"/>
<g>
	<path fill="#70412A" d="M521.3774414,275.3974609c0,0,10.5527344,9.5126953,25.0820312,22.4941406
		c14.5151367,12.9951172,1.6269531,39.1835938-26.1103516,39.1699219
		c-20.7587891-0.0117188-46.534668,4.8984375-46.534668,4.8984375s-5.6967773,3.734375-18.237793,5.6162109
		c-28.1367188,4.1757812-3.6694336,29.484375-20.7856445,139.671875
		c-1.7211914,10.9941406-22.0673828,17.1572266-20.4394531-4.8964844c1.6933594-22.6660156-5.6835938-81.609375-5.6835938-81.609375
		s-15.0493164,72.5908203-20.4257812,84.0507812c-5.3232422,11.4482422-22.1069336,13.6894531-16.3164062-5.6972656
		c11.4204102-38.3681641-6.1376953-95.0849609-15.3295898-91.2695312
		c-9.152832,3.8037109-60.0375977,1.1210938-76.0737305-4.2412109c0,0-11.4331055,13.0742188-36.2216797,27.1621094
		c0,0-12.7817383,33.2480469-10.3271484,74.0458984c0.746582,12.421875-14.9692383,19.1054688-21.8398438-4.5888672
		c-6.8710938-23.6953125-7.5644531-67.1611328-7.5644531-67.1611328s-16.1298828,61.6894531-25.2958984,80.0351562
		c-9.1655273,18.3320312-23.0942383,15.5693359-17.9443359-9.8994141
		c11.4467773-56.3134766,4.7895508-79.3828125,4.0693359-145.8496094
		c-0.3603516-33.4599609,12.9946289-61.8916016,69.5224609-63.4130859
		c56.5415039-1.5322266,89.0141602-9.1513672,123.9560547-4.5742188
		c57.8496094,7.5507812,91.8164062-21.0126953,97.1274414-23.6826172
		c19.5986328-9.7919922,18.6367188-4.0830078,32.8862305-6.0703125c4.0961914-0.5722656,17.5839844-12.2333984,24.4541016,0
		c6.871582,12.2080078-10.7124023,19.8671875-10.7124023,19.8671875S509.9975586,261.7363281,521.3774414,275.3974609z"/>
	<path fill="#3B2314" d="M535.5195312,308.3388672c5.1899414-3.3095703-6.8710938-12.9951172-10.6738281-10.7148438
		C521.003418,299.9208984,527.1274414,313.6611328,535.5195312,308.3388672z"/>
	<path fill="#5B3520" d="M412.2436523,448.078125c0,0,7.4047852-74.1923828-10.9130859-84.8935547
		c-18.359375-10.6982422-43.9467773,20.8261719-43.9467773,20.8261719S409.4951172,344.1074219,412.2436523,448.078125z"/>
	<path fill="#5B3520" d="M231.3056641,374.0576172c0,0-29.8051758,51.9667969-38.2099609,68.0292969
		C193.0957031,442.0869141,193.8691406,390.0947266,231.3056641,374.0576172z"/>
	<path fill="#5B3520" d="M244.3007812,410.7470703c0,0-9.7529297-34.5810547,13.940918-35.3408203
		c23.6679688-0.7734375,32.8476562,3.4550781,32.8476562,3.4550781S218.1240234,319.8125,244.3007812,410.7470703z"/>
	<path fill="#5B3520" d="M445.6503906,256.1318359c0,0-22.9204102,2.3085938-17.5571289,17.5986328
		c5.3364258,15.2490234,25.2021484,1.5068359,25.2021484,1.5068359S418.9145508,275.2373047,445.6503906,256.1318359z"/>
	<path fill="#5B3520" d="M507.2749023,235.0400391c0,0-9.1381836,4.5751953-9.925293,11.4599609
		c-0.7617188,6.8720703-0.7617188,6.8720703-0.7617188,6.8720703l-7.6972656-13.7832031
		C488.890625,239.5888672,492.7597656,234.2929688,507.2749023,235.0400391z"/>
	<path fill="#ED8585" d="M283.8710938,385.1455078c0,0-10.6196289-16.9833984-24.0410156-16.4355469
		c-13.4355469,0.5722656-22.5209961,6.5097656-16.3564453,30.03125
		C271.2905273,416.8984375,280.0556641,391.8837891,283.8710938,385.1455078z"/>
	<path fill="#ED8585" d="M249.9165039,397.8193359c-0.5195312,4.8447266-2.6679688,12.3818359,4.3364258,11.8349609
		c6.9912109-0.5332031,2.6821289-12.9277344,2.6821289-12.9277344s10.1650391,14.9541016,15.6362305,11.2998047
		c4.8427734-3.203125-1.6279297-15.0634766-1.6279297-15.0634766"/>
	<path fill="#3B2314" d="M506.4350586,279.6142578c0,0-23.6274414,6.9775391-26.0429688,3.7753906
		c-2.4013672-3.2148438,1.6806641-7.1650391,13.9013672-8.6582031
		C506.4746094,273.2226562,506.4350586,279.6142578,506.4350586,279.6142578z"/>
	<path fill="#E6E7E8" d="M480.8989258,288.0595703c0,0,24.7358398,11.3251953,24.8686523-2.5761719
		C505.8608398,272.7167969,483.5668945,277.3330078,480.8989258,288.0595703z"/>
	<path fill="#3B2314" d="M491.5727539,282.9628906c0,3.2285156,2.6274414,5.8564453,5.8696289,5.8564453
		c3.2426758,0,5.8564453-2.6279297,5.8564453-5.8564453c0-3.2558594-2.6137695-5.8837891-5.8564453-5.8837891
		C494.2001953,277.0791016,491.5727539,279.7070312,491.5727539,282.9628906z"/>
	<path fill="#D45E5F" d="M251.184082,373.3125c0,0-2.1210938,24.7744141,3.215332,33.9658203l-10.0986328,4.0292969
		C244.3007812,411.3076172,230.5585938,384.0107422,251.184082,373.3125z"/>
	<path fill="#5B3520" d="M247.3554688,360.3037109c0,0,78.6875,0.7734375,92.4560547,4.6025391
		c13.7426758,3.8154297-39.7436523,2.2822266-56.5541992,8.40625c0,0-18.3046875-5.3642578-29.03125-4.5908203
		C243.5532227,369.4951172,247.3554688,360.3037109,247.3554688,360.3037109z"/>
	<path fill="#5B3725" d="M439.0864258,313.3144531l13.7827148,25.375l0,0
		C452.8691406,338.6894531,434.9506836,354.4873047,439.0864258,313.3144531z"/>
	<path fill="#5B3725" d="M506.4746094,239.5888672c0,0-7.6577148,7.6171875-6.8706055,13.7412109
		C500.3505859,259.4560547,518.6821289,248.7548828,506.4746094,239.5888672z"/>
	<path fill="#5B3725" d="M451.0136719,263.8046875c-1.5478516-1.9072266-15.2885742-0.7871094-12.234375,3.0283203
		C441.8608398,270.6621094,464.0078125,279.828125,451.0136719,263.8046875z"/>
	<path fill="#DAC3B3" d="M395.4189453,288.0859375c3.7631836,12.046875-19.9853516,6.2167969-22.1992188,16.1699219
		c-2.1884766,9.9667969-55.3408203,2.2148438-43.1469727-5.5507812
		C342.2270508,290.9951172,389.8823242,270.3945312,395.4189453,288.0859375z"/>
</g>
<path fill="#28160E" d="M130.8837891,307.2841797c0,0,48.9633789,10.2460938,69.4560547,0
	c20.4926758-10.2470703,58.0488281-38.7158203,56.9140625-53.5117188
	c-1.1333008-14.7958984,1.1484375-40.9868164,1.1484375-40.9868164S192.3613281,298.1855469,130.8837891,307.2841797z"/>
<path fill="#28160E" d="M390.4169922,474.6279297c0,0,14.8085938,5.7089844,21.6401367-5.6835938
	c6.8295898-11.3945312-4.5629883-60.3447266-4.5629883-60.3447266S398.3818359,459.8183594,390.4169922,474.6279297z"/>
<path fill="#D45E5F" d="M542.9770508,344.8408203c0,0,26.1889648-15.9433594,30.737793-29.6054688
	c4.5498047-13.6611328-7.9628906,31.8867188-7.9628906,31.8867188L542.9770508,344.8408203z"/>
<path fill="#DAC3B3" d="M311.4477539,342.6123047c-7.8310547,9.8994141-74.8852539-12.3662109-84.3583984-8.5908203
	c-9.4589844,3.8017578,25.4829102-45.1210938,38.7714844-39.4257812
	C279.0820312,300.2929688,322.9487305,328.0703125,311.4477539,342.6123047z"/>
<g>
</g>
<g>
</g>
<g>
</g>
<g>
</g>
<g>
</g>
<g>
</g>
</svg>
