<?xml version="1.0" encoding="utf-8"?>
<!-- Generator: Adobe Illustrator 16.0.0, SVG Export Plug-In . SVG Version: 6.00 Build 0)  -->
<!DOCTYPE svg PUBLIC "-//W3C//DTD SVG 1.0//EN" "http://www.w3.org/TR/2001/REC-SVG-20010904/DTD/svg10.dtd">
<svg version="1.0" id="Layer_1" xmlns="http://www.w3.org/2000/svg" xmlns:xlink="http://www.w3.org/1999/xlink" x="0px" y="0px"
	 width="600px" height="415.6142578px" viewBox="0 0 600 415.6142578" enable-background="new 0 0 600 415.6142578"
	 xml:space="preserve">
<g>
	<path fill="#35261C" d="M46.4575195,66.4194336c0,0-17.5131836,33.9042969-38.2856445,52.4990234
		c-20.7724609,18.5820312,16.3232422,71.1489258,54.7036133,61.222168
		c28.7651367-7.4106445,48.090332-7.6542969,48.090332-7.6542969s15.2412109,30.6992188,42.5869141,70.0795898
		c34.7832031,50.0791016-3.2866211,133.4125977-7.6679688,148.7211914
		c-4.3681641,15.3242188,41.5585938,40.4785156,52.5126953,9.859375
		c10.9272461-30.6445312,30.6176758-69.984375,30.6176758-69.984375s4.3818359,45.9257812,12.0366211,62.3164062
		c7.640625,16.390625,56.8671875,12.0234375,51.4038086-16.390625c-5.4775391-28.453125-12.0634766-95.152832,1.0952148-89.7036133
		c13.1181641,5.4775391,55.7587891,14.2133789,78.7353516,6.5722656c0,0,20.7734375,48.1176758,82.0351562,26.2504883
		c0,0-4.3808594,49.2265625-7.6816406,66.7128906c-3.2724609,17.4863281,42.6816406,33.9042969,52.5136719,0
		c9.8457031-33.9179688,12.0087891-63.4394531,12.0087891-63.4394531s16.1201172,42.6660156,29.265625,68.9160156
		s71.1083984,5.4648438,53.5810547-27.3574219c-16.0117188-30.0371094-24.8701172-92.949707-24.8701172-188.1035156
		c0-95.4916992-18.5810547-88.5942383-99.5351562-90.7583008c-80.9130859-2.2041016-228.484375,16.3100586-258.0068359,2.0966797
		c-29.5224609-14.1865234-28.5625-49.578125-64.5356445-69.9726562
		c-63.5078125-36.0405273-73.3530273,6.5996094-78.8300781,8.8041992c-5.4501953,2.1772461-25.1411133-17.4858398-34.9995117,0
		c-9.8320312,17.4863281,15.3222656,28.4272461,15.3222656,28.4272461S50.8256836,53.3012695,46.4575195,66.4194336z"/>
	<path fill="#281711" d="M45.28125,149.590332c-7.4384766-4.7329102,9.8447266-18.581543,15.3085938-15.3085938
		C66.0537109,137.5541992,57.3037109,157.2314453,45.28125,149.590332z"/>
	<path fill="#231713" d="M210.4199219,369.4335938c0,0,18.5952148-91.8950195,44.8452148-107.1899414
		c26.2358398-15.3085938,37.1904297,19.6914062,37.1904297,19.6914062S266.2192383,239.2944336,210.4199219,369.4335938z"/>
	<path fill="#231713" d="M472.9033203,267.7202148c0,0,42.6542969,74.3540039,54.6767578,97.3188477
		C527.5800781,365.0390625,526.4980469,290.6713867,472.9033203,267.7202148z"/>
	<path fill="#231713" d="M454.3212891,320.2070312c0,0,13.9433594-49.4838867-19.9882812-50.5786133
		c-33.8769531-1.0957031-47.0078125,4.9082031-47.0078125,4.9082031S491.7822266,190.0673828,454.3212891,320.2070312z"/>
	<path fill="#231713" d="M161.2070312,35.8554688c0,0,32.8085938,3.2729492,25.1269531,25.1542969
		c-7.6269531,21.8676758-36.0678711,2.1635742-36.0678711,2.1635742S199.4931641,63.1733398,161.2070312,35.8554688z"/>
	<path fill="#231713" d="M41.9135742,20.6005859c0,0,13.1044922,6.5727539,14.2133789,16.4179688
		c1.0957031,9.831543,1.0957031,9.831543,1.0957031,9.831543L68.230957,27.1054688
		C68.230957,27.1054688,62.6860352,19.5053711,41.9135742,20.6005859z"/>
	<path fill="#BAAFA7" d="M463.0576172,117.8774414c13.1054688,18.581543,17.4863281,40.4628906-1.0820312,47.0083008
		c-18.6083984,6.5864258-122.5117188-9.8178711-115.953125,14.2407227
		c6.5732422,24.059082-37.1621094,52.4863281-48.1035156,10.940918c-10.940918-41.5585938,6.5585938-48.1313477,35-62.3583984
		c28.4267578-14.2133789,15.3085938-22.949707,67.8085938-17.4858398
		C453.2128906,115.699707,463.0576172,117.8774414,463.0576172,117.8774414z"/>
	<path fill="#BAAFA7" d="M227.9199219,108.0317383c-46.5761719-12.2524414-90.7714844-17.4995117-56.8808594,19.6772461
		c33.9174805,37.1767578,27.3583984,50.3222656,52.5126953,38.2724609
		c25.140625-12.0092773,30.6040039-34.9726562,38.2719727-47.0087891
		C269.4785156,106.949707,248.6923828,113.4956055,227.9199219,108.0317383z"/>
	<path fill="#231713" d="M548.3662109,97.1049805c0,0,36.0820312,25.140625,38.2851562,69.9853516l-20.7851562-24.0585938
		C565.8662109,143.0317383,553.8291016,104.7592773,548.3662109,97.1049805z"/>
	<path fill="#EC8585" d="M372.2861328,293.3891602c0,0,21.5566406-34.4453125,48.8339844-33.3369141
		c27.2509766,1.109375,45.6699219,13.1728516,33.2011719,60.965332
		C397.8466797,357.8574219,380.0625,307.1015625,372.2861328,293.3891602z"/>
	<path fill="#EC8585" d="M441.1767578,319.1113281c1.0957031,9.8320312,5.4628906,25.1679688-8.7363281,24.0585938
		c-14.2275391-1.0957031-5.4638672-26.25-5.4638672-26.25s-20.6240234,30.375-31.7138672,22.9785156
		c-9.8583984-6.5605469,3.2597656-30.6328125,3.2597656-30.6328125"/>
	<path fill="#3B2416" d="M58.3994141,53.3417969c0,0-21.9360352,7.0053711-25.8579102,18.0541992
		c-3.8950195,11.0488281,5.2475586,11.0488281-1.284668,20.7319336
		C24.7519531,101.8110352,46.7958984,91.965332,58.3994141,53.3417969z"/>
	<path fill="#261813" d="M80.9570312,74.4658203c0,0,33.8095703,10.0209961,37.2851562,5.409668
		c3.4208984-4.5981445-2.4208984-10.2509766-19.8803711-12.4150391
		C80.9023438,65.3237305,80.9570312,74.4658203,80.9570312,74.4658203z"/>
	<path fill="#E7E7E7" d="M117.5385742,86.5698242c0,0-35.4594727,16.2148438-35.6079102-3.6923828
		C81.7817383,64.5800781,113.6845703,71.1928711,117.5385742,86.5698242z"/>
	<path fill="#281711" d="M104.8935547,81.4174805c0,4.6381836-3.7460938,8.3979492-8.3847656,8.3979492
		c-4.6518555,0-8.3979492-3.7597656-8.3979492-8.3979492c0-4.6386719,3.7460938-8.4121094,8.3979492-8.4121094
		C101.1474609,73.0053711,104.8935547,76.7788086,104.8935547,81.4174805z"/>
	<path fill="#D55F60" d="M444.4492188,266.6254883c0,0,6.5732422,47.0092773-1.0820312,60.1264648l10.9541016-5.734375
		C454.3212891,321.0175781,473.9853516,281.9350586,444.4492188,266.6254883z"/>
	<path fill="#261813" d="M32.5415039,71.3959961c0,0,8.3579102,1.6630859,8.3579102,4.9228516
		c0,3.2861328-10.5488281,20.6914062-9.6425781,15.809082C32.1630859,87.2592773,32.5415039,71.3959961,32.5415039,71.3959961z"/>
	<path fill="#231713" d="M449.9404297,248.0307617c0,0-112.640625,1.0820312-132.3310547,6.5449219
		c-19.6904297,5.4765625,56.8681641,3.2998047,80.9130859,12.0498047c0,0,26.25-7.6679688,41.5722656-6.5732422
		C455.4033203,261.1479492,449.9404297,248.0307617,449.9404297,248.0307617z"/>
	<path fill="#553D32" d="M124.0302734,174.3120117l45.3183594,70.3378906l14.7270508,2.9472656
		C184.0756836,247.597168,152.7138672,195.3549805,124.0302734,174.3120117z"/>
	<path fill="#553D32" d="M43.0898438,27.1054688c0,0,10.9414062,10.940918,9.8320312,19.690918
		C51.8261719,55.5327148,25.6040039,40.2236328,43.0898438,27.1054688z"/>
	<path fill="#553D32" d="M153.5527344,46.7963867c2.1767578-2.6914062,21.8676758-1.0957031,17.4863281,4.3681641
		C166.6708984,56.6279297,134.9438477,69.7460938,153.5527344,46.7963867z"/>
	<polygon fill="#FAAF42" points="175.4204102,59.9145508 188.5517578,77.4140625 185.265625,89.4370117 157.934082,90.5322266 
		154.6342773,77.4140625 163.4111328,58.8051758 	"/>
	<polygon fill="#EC8B23" points="175.4746094,66.1757812 184.9814453,78.8476562 182.5878906,87.5571289 162.7890625,88.3413086 
		160.4228516,78.8476562 166.7519531,65.3779297 	"/>
	<path fill="#BAAFA7" d="M102.1484375,19.4375c-3.71875,11.9145508,14.2138672,12.0361328,16.4042969,21.8813477
		c2.1777344,9.8457031,54.6904297,2.1777344,42.6542969-5.4633789
		C149.1572266,28.2006836,107.6123047,1.9379883,102.1484375,19.4375z"/>
</g>
<g>
</g>
<g>
</g>
<g>
</g>
<g>
</g>
<g>
</g>
<g>
</g>
</svg>
