<?xml version="1.0" encoding="utf-8"?>
<!-- Generator: Adobe Illustrator 16.0.0, SVG Export Plug-In . SVG Version: 6.00 Build 0)  -->
<!DOCTYPE svg PUBLIC "-//W3C//DTD SVG 1.1//EN" "http://www.w3.org/Graphics/SVG/1.1/DTD/svg11.dtd">
<svg version="1.1" id="Layer_1" xmlns="http://www.w3.org/2000/svg" xmlns:xlink="http://www.w3.org/1999/xlink" x="0px" y="0px"
	 width="569px" height="163.486px" viewBox="0 0 569 163.486" enable-background="new 0 0 569 163.486" xml:space="preserve">
<polygon fill="#FAFCFC" points="236.759,21.276 241,21.168 250.25,64.271 236.575,110.42 236.759,93.642 "/>
<path fill="#FAFCFC" d="M141.796,21.276h-4.742l-7.305,41.7l9.261,37.739c0,0,2.786-3.805,3.024-12.091L141.796,21.276z"/>
<g>
	<g>
		<path fill="#BA5A5A" d="M152.854,93.48c0,0,8.764,5.22,8.764,11.493c0,6.272-8.455,21.795,2.402,21.795
			c10.116,0,3.538-15.877,3.538-20.96c0-6.183,4.074-10.538,4.074-10.538L152.854,93.48z"/>
	</g>
	<g>
		<path fill="#BA5A5A" d="M228.974,93.642c0,0-8.764,5.223-8.764,11.496c0,6.272,8.45,21.795-2.407,21.795
			c-10.111,0-3.538-15.877-3.538-20.96c0-6.183-4.073-10.538-4.073-10.538L228.974,93.642z"/>
	</g>
	<g>
		<path fill="#E9848A" d="M160.298,115.957c0,0,11.577,6.899,11.577,15.185c0,8.288-11.166,28.796,3.176,28.796
			c13.362,0,4.679-20.976,4.679-27.689c0-8.171,5.372-13.925,5.372-13.925L160.298,115.957z"/>
	</g>
	<g>
		<path fill="#E9848A" d="M221.53,115.281c0,0-11.577,6.9-11.577,15.186c0,8.287,11.16,28.796-3.181,28.796
			c-13.357,0-4.68-20.977-4.68-27.689c0-8.172-5.372-13.925-5.372-13.925L221.53,115.281z"/>
	</g>
	<g>
		<path fill="#9E3F3F" d="M232.128,58.93c0,26.76-18.193,48.455-40.643,48.455c-22.439,0-40.638-21.695-40.638-48.455
			c0-26.762,18.198-48.457,40.638-48.457C213.935,10.473,232.128,32.168,232.128,58.93z"/>
	</g>
	<g>
		<path fill="#BA5A5A" d="M211.961,66.823c0,17.917-9.981,32.441-22.294,32.441c-12.307,0-22.288-14.524-22.288-32.441
			s9.98-32.442,22.288-32.442C201.98,34.381,211.961,48.906,211.961,66.823z"/>
	</g>
	<g>
		<path fill="#FFFFFF" d="M148.678,63.201c0,0,24.317,11.813,36.131,7.644c11.81-4.171,13.2-4.863,23.614-0.695
			c10.424,4.169,14.595-7.641,14.595-7.641s6.946,15.282-1.39,28.482c-8.336,13.202-17.371,27.789-29.873,25.012
			C179.248,113.222,147.985,117.393,148.678,63.201z"/>
	</g>
	<g>
		<path fill="#FAFCFC" d="M498.078,107.384c0-2.148,1.452-3.658,3.484-3.658c2.033,0,3.427,1.51,3.427,3.658
			c0,2.091-1.335,3.659-3.484,3.659C499.473,111.043,498.078,109.475,498.078,107.384z"/>
		<path fill="#FAFCFC" d="M510.797,104.248c2.265,1.394,5.574,2.556,9.059,2.556c5.17,0,8.189-2.729,8.189-6.679
			c0-3.659-2.091-5.75-7.376-7.782c-6.388-2.265-10.337-5.575-10.337-11.093c0-6.098,5.053-10.627,12.66-10.627
			c4.008,0,6.91,0.929,8.653,1.916l-1.394,4.123c-1.278-0.696-3.892-1.858-7.434-1.858c-5.344,0-7.376,3.194-7.376,5.866
			c0,3.658,2.381,5.459,7.782,7.55c6.62,2.555,9.988,5.749,9.988,11.499c0,6.039-4.471,11.266-13.705,11.266
			c-3.775,0-7.898-1.103-9.989-2.497L510.797,104.248z"/>
		<path fill="#FAFCFC" d="M560.393,92.053h-15.215v14.112h16.958v4.239h-22.011V71.262h21.14v4.239h-16.087v12.37h15.215V92.053z"/>
	</g>
	<g>
		<g>
			<path fill="#FAFCFC" d="M13.749,21.276c3.305-0.497,6.486-0.743,9.548-0.743c3.225,0,6.405,0.246,9.548,0.743l20.454,51.082
				l21.082-51.082c2.559-0.497,5.41-0.743,8.553-0.743c3.137,0,6.156,0.246,9.05,0.743l4.214,89.145
				c-3.143,0.495-6.119,0.746-8.926,0.746c-2.813,0-5.578-0.251-8.309-0.746l-2.229-60.505L58.633,91.824
				c-1.163,0.165-2.353,0.308-3.597,0.433c-1.245,0.124-2.478,0.187-3.722,0.187c-1.077,0-2.147-0.041-3.219-0.124
				c-1.077-0.082-2.196-0.249-3.349-0.495L27.884,49.047l-1.737,61.373c-2.651,0.495-5.209,0.746-7.687,0.746
				c-2.646,0-5.372-0.251-8.185-0.746L13.749,21.276z"/>
		</g>
		<g>
			<g>
				<path fill="none" d="M189.846,17.459c-19.01,0-28.52,15.021-28.52,45.055c0,30.038,9.451,45.053,28.336,45.053
					c18.772,0,28.163-15.015,28.163-45.053c0-15.017-2.272-26.28-6.816-33.791C206.47,21.216,199.416,17.459,189.846,17.459z"/>
			</g>
			<g>
				<path fill="#FAFCFC" d="M132.99,62.514c0-9.688,1.114-18.682,3.359-26.978c1.401-5.193,3.262-9.946,5.594-14.261h-32.329
					c-0.492,2.396-0.741,4.918-0.741,7.563c0,1.325,0.065,2.667,0.184,4.03c0.124,1.363,0.313,2.623,0.557,3.781h14.758v47.483
					c0,2.979-0.438,5.272-1.304,6.884c-0.866,1.609-1.948,2.832-3.225,3.657c-1.282,0.828-2.705,1.322-4.273,1.487
					c-1.574,0.168-3.062,0.249-4.463,0.249c-1.163,0-2.278-0.124-3.349-0.373c-1.082-0.249-2.072-0.454-2.976-0.619
					c-1.406,3.803-2.11,7.605-2.11,11.406c0,0.663,0.022,1.282,0.06,1.861c0.043,0.575,0.103,1.154,0.189,1.733
					c1.899,0.495,3.9,0.868,6.016,1.117c2.104,0.246,3.862,0.37,5.269,0.37c4.046,0,7.785-0.454,11.22-1.363
					c3.43-0.908,6.4-2.375,8.926-4.4c2.288-1.84,4.111-4.185,5.518-6.981c-1.385-3.092-2.569-6.367-3.521-9.854
					C134.104,81.135,132.99,72.206,132.99,62.514z"/>
			</g>
			<g>
				<path fill="#EAF4F4" d="M141.796,87.454V21.276h-0.53c-2.332,4.361-4.193,9.167-5.594,14.417
					c-2.245,8.386-3.359,17.478-3.359,27.272c0,9.798,1.114,18.824,3.359,27.087c0.952,3.524,2.142,6.835,3.527,9.961
					c0.141-0.284,0.298-0.547,0.428-0.839C141.072,95.957,141.796,92.05,141.796,87.454z"/>
			</g>
			<g>
				<path fill="#FAFCFC" d="M285.798,98.829c-0.081-1.281-0.249-2.623-0.497-4.03h-30.874V21.276
					c-3.137-0.497-6.156-0.743-9.05-0.743c-2.581,0-5.264,0.216-8.055,0.636c2.359,4.344,4.247,9.131,5.664,14.368
					c2.234,8.296,3.359,17.289,3.359,26.978c0,9.692-1.125,18.621-3.359,26.795c-1.563,5.69-3.711,10.841-6.411,15.475v5.637h48.726
					c0.248-1.401,0.416-2.745,0.497-4.027s0.124-2.583,0.124-3.906C285.922,101.329,285.879,100.112,285.798,98.829z"/>
			</g>
			<g>
				<path fill="#EAF4F4" d="M246.529,62.514c0-9.693-1.082-18.522-3.359-26.978c-1.417-5.237-3.305-10.024-5.659-14.368
					c-0.254,0.037-0.498,0.067-0.752,0.107v83.508c2.705-4.634,4.847-9.784,6.411-15.475
					C245.404,81.135,246.529,72.206,246.529,62.514z"/>
			</g>
		</g>
		<g>
			<path fill="#FAFCFC" d="M292.955,21.152c1.568-0.249,3.1-0.414,4.588-0.495c1.492-0.081,3.018-0.124,4.587-0.124
				c1.407,0,2.851,0.043,4.339,0.124c1.493,0.081,3.019,0.246,4.588,0.495v89.393c-1.569,0.249-3.095,0.414-4.588,0.498
				c-1.488,0.081-2.976,0.124-4.463,0.124c-1.488,0-2.971-0.043-4.463-0.124c-1.488-0.084-3.02-0.249-4.588-0.498V21.152z
				 M313.664,65.538l24.17-44.263c1.904-0.33,3.662-0.538,5.274-0.619s3.078-0.124,4.403-0.124c1.401,0,2.976,0.081,4.713,0.246
				c1.73,0.167,3.549,0.332,5.452,0.497l-24.425,43.023l26.535,46.121c-1.904,0.165-3.744,0.33-5.518,0.495
				c-1.78,0.168-3.371,0.251-4.771,0.251c-1.332,0-2.792-0.043-4.404-0.124c-1.617-0.084-3.413-0.292-5.393-0.622L313.664,65.538z"
				/>
		</g>
		<g>
			<path fill="#FAFCFC" d="M365.748,21.276h50.586c0.498,2.478,0.747,5.002,0.747,7.563c0,2.727-0.249,5.331-0.747,7.812H383.85
				v19.34h25.793c0.492,2.647,0.736,5.209,0.736,7.687c0,2.648-0.244,5.251-0.736,7.813H383.85v23.557H417.2
				c0.497,2.479,0.747,5.004,0.747,7.563c0,2.727-0.25,5.331-0.747,7.812h-51.452V21.276z"/>
		</g>
		<g>
			<path fill="#FAFCFC" d="M425.261,21.276c2.563-0.497,4.999-0.743,7.313-0.743c2.483,0,5.042,0.246,7.688,0.743l34.471,56.783
				V21.276c2.976-0.497,5.826-0.743,8.553-0.743c2.564,0,5.042,0.246,7.438,0.743v89.145c-2.646,0.495-5.042,0.746-7.189,0.746
				c-2.315,0-4.837-0.251-7.563-0.746l-34.714-56.661v56.661c-2.646,0.495-5.334,0.746-8.061,0.746s-5.373-0.251-7.937-0.746V21.276
				z"/>
		</g>
		<g>
			<path fill="#E9848A" d="M190.002,124.994c-8.829,0-16.451-1.528-22.883-4.577c-6.432-3.051-11.712-7.276-15.856-12.67
				c-4.144-5.394-7.222-11.766-9.229-19.123c-2.018-7.354-3.024-15.388-3.024-24.108c0-8.718,1.006-16.808,3.024-24.273
				c2.007-7.46,5.085-13.919,9.229-19.369c4.144-5.448,9.424-9.697,15.856-12.748c6.432-3.049,14.054-4.577,22.883-4.577
				s16.451,1.528,22.883,4.577c6.427,3.051,11.712,7.3,15.856,12.748c4.144,5.45,7.216,11.909,9.24,19.369
				C239.994,47.708,241,55.798,241,64.516c0,8.721-1.006,16.754-3.019,24.108c-2.023,7.357-5.096,13.729-9.24,19.123
				s-9.429,9.619-15.856,12.67C206.454,123.466,198.831,124.994,190.002,124.994z M190.002,105.054
				c16.889,0,25.339-13.511,25.339-40.538c0-13.511-2.045-23.646-6.129-30.402c-4.089-6.754-10.44-10.136-19.047-10.136
				c-17.105,0-25.658,13.517-25.658,40.538C164.507,91.543,173.005,105.054,190.002,105.054z"/>
		</g>
	</g>
	<g>
		<path fill="#F59698" d="M190.002,113.006c-7.768,0-14.493-1.347-20.151-4.03c-5.659-2.687-10.316-6.408-13.963-11.155
			c-3.646-4.752-6.356-10.364-8.13-16.84c-1.774-6.479-2.662-13.552-2.662-21.23c0-7.677,0.887-14.799,2.662-21.374
			c1.774-6.57,4.484-12.259,8.13-17.055c3.646-4.801,8.304-8.542,13.963-11.228c5.658-2.686,12.383-4.03,20.151-4.03
			c7.774,0,14.493,1.345,20.151,4.03s10.316,6.427,13.962,11.228c3.646,4.796,6.356,10.484,8.131,17.055
			c1.774,6.575,2.662,13.697,2.662,21.374c0,7.679-0.887,14.752-2.662,21.23c-1.774,6.476-4.484,12.088-8.131,16.84
			c-3.646,4.747-8.304,8.469-13.962,11.155C204.495,111.659,197.776,113.006,190.002,113.006z M190.002,95.446
			c14.877,0,22.31-11.896,22.31-35.695c0-11.899-1.802-20.822-5.394-26.773c-3.603-5.945-9.197-8.923-16.77-8.923
			c-15.066,0-22.602,11.901-22.602,35.696C167.547,83.55,175.034,95.446,190.002,95.446z"/>
	</g>
</g>
</svg>
