<?xml version="1.0" encoding="utf-8"?>
<!-- Generator: Adobe Illustrator 16.0.0, SVG Export Plug-In . SVG Version: 6.00 Build 0)  -->
<!DOCTYPE svg PUBLIC "-//W3C//DTD SVG 1.0//EN" "http://www.w3.org/TR/2001/REC-SVG-20010904/DTD/svg10.dtd">
<svg version="1.0" id="Layer_1" xmlns="http://www.w3.org/2000/svg" xmlns:xlink="http://www.w3.org/1999/xlink" x="0px" y="0px"
	 width="171.9990234px" height="39.2456055px" viewBox="0 0 171.9990234 39.2456055"
	 enable-background="new 0 0 171.9990234 39.2456055" xml:space="preserve">
<path fill="#FFFFFF" d="M49.5585938,28.2988281c0,0,2.8803711,1.7163086,2.8803711,3.7783203
	c0,2.0649414-2.7788086,7.168457,0.7900391,7.168457c3.3266602,0,1.1655273-5.2211914,1.1655273-6.8930664
	c0-2.0317383,1.3364258-3.4643555,1.3364258-3.4643555L49.5585938,28.2988281z"/>
<path fill="#FFFFFF" d="M64.7983398,28.1293945c0,0-2.8818359,1.7182617-2.8818359,3.7817383
	c0,2.0620117,2.7788086,7.1650391-0.7919922,7.1650391c-3.3237305,0-1.1635742-5.2192383-1.1635742-6.8911133
	c0-2.0336914-1.3383789-3.4648438-1.3383789-3.4648438L64.7983398,28.1293945z"/>
<g>
	<path fill="#FFFFFF" d="M151.4902344,27.6523438c0-0.6591797,0.4453125-1.1230469,1.0693359-1.1230469
		s1.0517578,0.4638672,1.0517578,1.1230469c0,0.6416016-0.4101562,1.1230469-1.0693359,1.1230469
		C151.9179688,28.7753906,151.4902344,28.2939453,151.4902344,27.6523438z"/>
	<path fill="#FFFFFF" d="M155.3930664,26.6899414c0.6948242,0.4277344,1.7109375,0.7841797,2.7802734,0.7841797
		c1.5864258,0,2.5131836-0.8374023,2.5131836-2.0493164c0-1.1230469-0.6416016-1.7646484-2.2636719-2.3886719
		c-1.9604492-0.6948242-3.1723633-1.7109375-3.1723633-3.4038086c0-1.871582,1.550293-3.2612305,3.8852539-3.2612305
		c1.2294922,0,2.1210938,0.2851562,2.6552734,0.5878906l-0.4277344,1.265625
		c-0.3916016-0.2138672-1.1938477-0.5703125-2.28125-0.5703125c-1.6396484,0-2.2631836,0.9799805-2.2631836,1.7998047
		c0,1.1230469,0.730957,1.675293,2.3881836,2.3168945c2.0317383,0.7841797,3.0654297,1.7641602,3.0654297,3.5288086
		c0,1.8535156-1.3720703,3.4575195-4.2060547,3.4575195c-1.1582031,0-2.4238281-0.3383789-3.0654297-0.7661133
		L155.3930664,26.6899414z"/>
	<path fill="#FFFFFF" d="M170.6132812,22.9472656h-4.6699219v4.3310547h5.2041016v1.3007812h-6.7543945v-12.012207h6.4873047
		v1.3012695h-4.9370117v3.7958984h4.6699219V22.9472656z"/>
</g>
<path fill="#FFFFFF" d="M2.8637695,1.2275391c1.0141602-0.1523438,1.9902344-0.2270508,2.9301758-0.2270508
	c0.9892578,0,1.965332,0.074707,2.9296875,0.2270508l6.2768555,15.6762695l6.4692383-15.6762695
	c0.7856445-0.1523438,1.6601562-0.2270508,2.625-0.2270508c0.9628906,0,1.8891602,0.074707,2.7773438,0.2270508
	l1.2929688,27.3569336c-0.9643555,0.1508789-1.8774414,0.2290039-2.7392578,0.2290039
	c-0.8632812,0-1.7114258-0.078125-2.5498047-0.2290039l-0.684082-18.5683594L16.637207,22.8769531
	c-0.3569336,0.0498047-0.722168,0.0947266-1.1040039,0.1328125s-0.7602539,0.0566406-1.1420898,0.0566406
	c-0.3300781,0-0.6586914-0.0117188-0.987793-0.0366211c-0.3300781-0.0268555-0.6738281-0.0766602-1.0273438-0.152832
	L7.2016602,9.7490234L6.668457,28.5844727c-0.8134766,0.1508789-1.5986328,0.2290039-2.3588867,0.2290039
	c-0.8115234,0-1.6484375-0.078125-2.5117188-0.2290039L2.8637695,1.2275391z"/>
<path fill="#FFFFFF" d="M39.4550781,13.8823242c0-2.9731445,0.3422852-5.7338867,1.03125-8.2788086
	c0.4296875-1.59375,1.0009766-3.0527344,1.7163086-4.3759766h-9.9204102
	c-0.1513672,0.7353516-0.2275391,1.5092773-0.2275391,2.3208008c0,0.4067383,0.0200195,0.8183594,0.0566406,1.2368164
	c0.0380859,0.418457,0.0961914,0.8051758,0.1708984,1.1606445h4.5288086v14.5703125
	c0,0.9150391-0.1347656,1.6186523-0.4003906,2.1132812c-0.265625,0.4931641-0.5976562,0.8681641-0.9892578,1.1225586
	c-0.3935547,0.2539062-0.8300781,0.4067383-1.3115234,0.456543c-0.4829102,0.0512695-0.9394531,0.0761719-1.3696289,0.0761719
	c-0.3569336,0-0.6987305-0.0380859-1.0273438-0.1147461c-0.3320312-0.0761719-0.6362305-0.1391602-0.9130859-0.190918
	c-0.4316406,1.1689453-0.6474609,2.3344727-0.6474609,3.5014648c0,0.2041016,0.0063477,0.3935547,0.0180664,0.5708008
	c0.0131836,0.1777344,0.0317383,0.3535156,0.0581055,0.5332031c0.5825195,0.1508789,1.1967773,0.265625,1.8461914,0.3417969
	c0.6455078,0.0761719,1.1850586,0.112793,1.6166992,0.112793c1.2416992,0,2.3891602-0.1391602,3.4433594-0.418457
	c1.0522461-0.2788086,1.9638672-0.7270508,2.7387695-1.3496094c0.7021484-0.5644531,1.2617188-1.2832031,1.6933594-2.1430664
	c-0.4248047-0.9477539-0.7885742-1.9521484-1.0805664-3.0229492C39.7973633,19.5966797,39.4550781,16.8574219,39.4550781,13.8823242
	z"/>
<path fill="#FFFFFF" d="M42.1582031,21.3164062V1.2275391h-0.1630859c-0.715332,1.3232422-1.2866211,2.7822266-1.7163086,4.3759766
	c-0.6889648,2.5449219-1.0307617,5.3056641-1.0307617,8.2788086c0,2.9750977,0.3417969,5.7143555,1.0307617,8.2226562
	c0.2919922,1.0708008,0.6572266,2.0751953,1.0825195,3.0229492c0.0429688-0.0864258,0.0913086-0.1660156,0.1308594-0.2539062
	C41.9355469,23.8979492,42.1582031,22.7109375,42.1582031,21.3164062z"/>
<path fill="#FFFFFF" d="M86.3476562,25.0268555c-0.0249023-0.3935547-0.0761719-0.8051758-0.1523438-1.2368164h-9.4741211v-22.5625
	c-0.9628906-0.1523438-1.8891602-0.2270508-2.7773438-0.2270508c-0.7919922,0-1.6152344,0.0664062-2.472168,0.1938477
	c0.7241211,1.3330078,1.3032227,2.8022461,1.7382812,4.4091797c0.6855469,2.5449219,1.0307617,5.3056641,1.0307617,8.2788086
	c0,2.9750977-0.3452148,5.7143555-1.0307617,8.2226562c-0.4799805,1.746582-1.1386719,3.3266602-1.9672852,4.7495117v1.7299805
	h14.9526367c0.0761719-0.4316406,0.1274414-0.8432617,0.1523438-1.2368164s0.0385742-0.7919922,0.0385742-1.1987305
	C86.3862305,25.793457,86.3725586,25.4204102,86.3476562,25.0268555z"/>
<path fill="#FFFFFF" d="M74.2973633,13.8823242c0-2.9746094-0.3320312-5.684082-1.0307617-8.2788086
	c-0.4350586-1.6069336-1.0146484-3.0761719-1.7368164-4.4091797c-0.0776367,0.0117188-0.152832,0.0219727-0.2304688,0.0332031
	v25.6269531c0.8300781-1.4228516,1.4873047-3.0029297,1.9672852-4.7495117
	C73.9521484,19.5966797,74.2973633,16.8574219,74.2973633,13.8823242z"/>
<path fill="#FFFFFF" d="M88.5439453,1.1894531c0.4814453-0.0761719,0.9516602-0.1259766,1.4082031-0.152832
	c0.4580078-0.0229492,0.9262695-0.0361328,1.4077148-0.0361328c0.4316406,0,0.8745117,0.0131836,1.3310547,0.0361328
	c0.4584961,0.0268555,0.9262695,0.0766602,1.4077148,0.152832v27.4311523
	c-0.4814453,0.0766602-0.9492188,0.1279297-1.4077148,0.152832c-0.456543,0.0268555-0.9130859,0.0400391-1.3696289,0.0400391
	c-0.4560547,0-0.9111328-0.0131836-1.3691406-0.0400391c-0.456543-0.0249023-0.9267578-0.0761719-1.4082031-0.152832V1.1894531z
	 M94.8989258,14.8105469l7.4174805-13.5830078c0.5839844-0.1010742,1.1235352-0.1640625,1.6186523-0.190918
	c0.4946289-0.0229492,0.9443359-0.0361328,1.3510742-0.0361328c0.4301758,0,0.9130859,0.0229492,1.4458008,0.074707
	c0.53125,0.0512695,1.0893555,0.1010742,1.6733398,0.1523438l-7.4951172,13.2026367l8.1425781,14.1542969
	c-0.5839844,0.0498047-1.1484375,0.0996094-1.6928711,0.1508789c-0.5463867,0.0512695-1.034668,0.078125-1.4643555,0.078125
	c-0.4082031,0-0.8564453-0.0131836-1.3515625-0.0400391c-0.4960938-0.0249023-1.0473633-0.0893555-1.6547852-0.1889648
	L94.8989258,14.8105469z"/>
<path fill="#FFFFFF" d="M110.8823242,1.2275391h15.5234375c0.152832,0.7602539,0.2290039,1.5356445,0.2290039,2.3208008
	c0,0.8369141-0.0761719,1.6352539-0.2290039,2.3974609h-9.96875v5.9345703h7.9155273
	c0.1508789,0.8134766,0.2255859,1.5986328,0.2255859,2.3588867c0,0.8120117-0.074707,1.6123047-0.2255859,2.3974609h-7.9155273
	v7.2294922h10.234375c0.152832,0.7602539,0.2290039,1.5341797,0.2290039,2.3208008
	c0,0.8369141-0.0761719,1.6352539-0.2290039,2.3974609h-15.7890625V1.2275391z"/>
<path fill="#FFFFFF" d="M129.1450195,1.2275391c0.7866211-0.1523438,1.5336914-0.2270508,2.2446289-0.2270508
	c0.7617188,0,1.546875,0.074707,2.3588867,0.2270508l10.578125,17.4262695V1.2275391
	c0.9130859-0.1523438,1.7875977-0.2270508,2.6245117-0.2270508c0.7866211,0,1.5473633,0.074707,2.2827148,0.2270508v27.3569336
	c-0.8120117,0.1508789-1.5473633,0.2290039-2.206543,0.2290039c-0.7104492,0-1.4838867-0.078125-2.3208008-0.2290039
	l-10.652832-17.3881836v17.3881836c-0.8115234,0.1508789-1.6367188,0.2290039-2.4731445,0.2290039
	c-0.8369141,0-1.6489258-0.078125-2.4355469-0.2290039V1.2275391z"/>
<path fill="#FFFFFF" d="M56.9511719,30.5483398c-2.1982422,0-4.09375-0.3803711-5.6958008-1.1391602
	c-1.6005859-0.7583008-2.9150391-1.8110352-3.9462891-3.1523438c-1.0307617-1.3447266-1.7978516-2.9301758-2.2973633-4.7612305
	c-0.5014648-1.8291016-0.7519531-3.8295898-0.7519531-5.9995117c0-2.1713867,0.2504883-4.1835938,0.7519531-6.0424805
	c0.4995117-1.855957,1.2666016-3.4628906,2.2973633-4.8212891c1.03125-1.3544922,2.3457031-2.4135742,3.9462891-3.1723633
	c1.6020508-0.7583008,3.4975586-1.1386719,5.6958008-1.1386719c2.1977539,0,4.0952148,0.3803711,5.6958008,1.1386719
	c1.5986328,0.7587891,2.9150391,1.8178711,3.9458008,3.1723633c1.0307617,1.3583984,1.7963867,2.965332,2.2993164,4.8212891
	c0.5014648,1.8588867,0.7519531,3.8710938,0.7519531,6.0424805c0,2.1699219-0.2504883,4.1704102-0.7519531,5.9995117
	c-0.5029297,1.8310547-1.2685547,3.4165039-2.2993164,4.7612305c-1.0307617,1.3413086-2.347168,2.394043-3.9458008,3.1523438
	C61.0463867,30.1679688,59.1489258,30.5483398,56.9511719,30.5483398z M56.9511719,25.5864258
	c4.203125,0,6.3066406-3.3637695,6.3066406-10.090332c0-3.3632812-0.5083008-5.8867188-1.5258789-7.5664062
	C60.7143555,6.2480469,59.1337891,5.40625,56.9907227,5.40625c-4.2563477,0-6.3862305,3.3632812-6.3862305,10.0898438
	S52.7211914,25.5864258,56.9511719,25.5864258z"/>
<g>
</g>
<g>
</g>
<g>
</g>
<g>
</g>
<g>
</g>
<g>
</g>
</svg>
