<?xml version="1.0" encoding="utf-8"?>
<!-- Generator: Adobe Illustrator 16.0.0, SVG Export Plug-In . SVG Version: 6.00 Build 0)  -->
<!DOCTYPE svg PUBLIC "-//W3C//DTD SVG 1.0//EN" "http://www.w3.org/TR/2001/REC-SVG-20010904/DTD/svg10.dtd">
<svg version="1.0" id="Layer_1" xmlns="http://www.w3.org/2000/svg" xmlns:xlink="http://www.w3.org/1999/xlink" x="0px" y="0px"
	 width="169.4995117px" height="39.2460938px" viewBox="0 -0.0002441 169.4995117 39.2460938"
	 enable-background="new 0 -0.0002441 169.4995117 39.2460938" xml:space="preserve">
<g>
	<path fill="#FFFFFF" d="M149.9301758,26.0563965c-0.6201172,0-1.0625,0.4619141-1.0625,1.1171875
		c0,0.6386719,0.4257812,1.1162109,1.0458984,1.1162109c0.6542969,0,1.0634766-0.4775391,1.0634766-1.1162109
		C150.9770508,26.5183105,150.5512695,26.0563965,149.9301758,26.0563965z"/>
	<path fill="#FFFFFF" d="M156.5385742,21.3259277c-1.6464844-0.6367188-2.3730469-1.1855469-2.3730469-2.3022461
		c0-0.8154297,0.6171875-1.7895508,2.2480469-1.7895508c1.0830078,0,1.8779297,0.3544922,2.2675781,0.5673828l0.4257812-1.2587891
		c-0.53125-0.3012695-1.4160156-0.5839844-2.640625-0.5839844c-2.3203125,0-3.8623047,1.3813477-3.8623047,3.2421875
		c0,1.6826172,1.2050781,2.6923828,3.15625,3.3828125c1.6103516,0.6201172,2.2480469,1.2578125,2.2480469,2.375
		c0,1.2050781-0.9208984,2.0380859-2.4960938,2.0380859c-1.0664062,0-2.0732422-0.3544922-2.7666016-0.7802734l-0.3886719,1.2939453
		c0.6367188,0.4238281,1.8945312,0.7607422,3.046875,0.7607422c2.8183594,0,4.1816406-1.5947266,4.1816406-3.4365234
		C159.5854492,23.0808105,158.559082,22.1062012,156.5385742,21.3259277z"/>
	<polygon fill="#FFFFFF" points="163.2368164,26.8024902 163.2368164,22.4958496 167.8774414,22.4958496 167.8774414,21.220459 
		163.2368164,21.220459 163.2368164,17.4465332 168.1450195,17.4465332 168.1450195,16.1530762 161.6948242,16.1530762 
		161.6948242,28.0944824 168.409668,28.0944824 168.409668,26.8024902 	"/>
	<path fill="#FFFFFF" d="M22.2016602,0.6740723c-0.9589844,0-1.8286133,0.0751953-2.609375,0.2270508L13.1601562,16.486084
		L6.9194336,0.901123C5.9604492,0.7492676,4.9902344,0.6740723,4.0063477,0.6740723
		c-0.934082,0-1.9047852,0.0751953-2.9130859,0.2270508L0.0336914,28.0993652
		c0.8583984,0.1503906,1.6899414,0.2275391,2.4970703,0.2275391c0.7558594,0,1.5366211-0.0771484,2.3457031-0.2275391
		L5.40625,9.3737793l5.1445312,13.0517578c0.3515625,0.0751953,0.6933594,0.125,1.0214844,0.1513672
		c0.3271484,0.0244141,0.6538086,0.0361328,0.9819336,0.0361328c0.3798828,0,0.7563477-0.0175781,1.1357422-0.0556641
		s0.7426758-0.0830078,1.0976562-0.1318359L20.3100586,9.638916l0.6801758,18.4604492
		c0.8334961,0.1503906,1.6767578,0.2275391,2.5351562,0.2275391c0.8564453,0,1.7641602-0.0771484,2.7231445-0.2275391
		L24.9628906,0.901123C24.0800781,0.7492676,23.1586914,0.6740723,22.2016602,0.6740723z"/>
	<path fill="#FFFFFF" d="M40.1606445,0.901123h-0.1616211h-9.6572266c-0.1499023,0.730957-0.2260742,1.5-0.2260742,2.3071289
		c0,0.4042969,0.0200195,0.8139648,0.0561523,1.2299805c0.0380859,0.4155273,0.0957031,0.800293,0.1699219,1.1533203h4.5024414
		v14.4873047c0,0.9091797-0.1333008,1.6083984-0.3974609,2.1005859c-0.2641602,0.4902344-0.5942383,0.8632812-0.9838867,1.1152344
		c-0.3911133,0.2529297-0.8251953,0.4042969-1.3037109,0.4541016c-0.4804688,0.0517578-0.934082,0.0761719-1.3618164,0.0761719
		c-0.3549805,0-0.6948242-0.0380859-1.0214844-0.1142578c-0.3300781-0.0761719-0.6323242-0.1386719-0.9077148-0.1894531
		c-0.4291992,1.1621094-0.644043,2.3203125-0.644043,3.4804688c0,0.203125,0.0068359,0.3916016,0.0185547,0.5683594
		c0.0131836,0.1767578,0.03125,0.3515625,0.0576172,0.5292969c0.5791016,0.1503906,1.1899414,0.2646484,1.8354492,0.3398438
		c0.6420898,0.0761719,1.1782227,0.1123047,1.6074219,0.1123047c1.234375,0,2.375-0.1386719,3.4233398-0.4160156
		c1.0463867-0.2763672,1.9521484-0.7226562,2.7231445-1.3417969c0.6982422-0.5605469,1.2543945-1.2753906,1.6835938-2.1308594
		c-0.0332031-0.0703125-0.0576172-0.1484375-0.0893555-0.2207031c0.003418-0.0117188,0.0102539-0.0195312,0.0151367-0.03125
		c0.4404297-0.9707031,0.6616211-2.1503906,0.6616211-3.5371094V0.9973145
		c0.0166016-0.0302734,0.0283203-0.065918,0.0444336-0.0961914H40.1606445z"/>
	<path fill="#FFFFFF" d="M83.9433594,23.3327637h-9.4189453V0.901123c-0.9575195-0.1518555-1.878418-0.2270508-2.7617188-0.2270508
		c-0.7871094,0-1.6054688,0.065918-2.4575195,0.1938477c0.0019531,0.0024414,0.0019531,0.0048828,0.003418,0.0083008
		c-0.0576172,0.0073242-0.1157227,0.0146484-0.1748047,0.0249023v25.3642578
		c-0.0200195,0.0351562-0.034668,0.078125-0.0561523,0.1142578v1.7197266h14.8657227
		c0.0761719-0.4287109,0.1274414-0.8378906,0.1523438-1.2294922c0.0244141-0.390625,0.0375977-0.7871094,0.0375977-1.1914062
		c0-0.3535156-0.0131836-0.7246094-0.0375977-1.1162109C84.0708008,24.1716309,84.0195312,23.7624512,83.9433594,23.3327637z"/>
	<path fill="#FFFFFF" d="M89.0825195,0.6740723c-0.4785156,0-0.9433594,0.0131836-1.3994141,0.0380859
		c-0.4521484,0.0244141-0.9208984,0.074707-1.4047852,0.1508789V28.135498
		c0.4838867,0.0761719,0.9526367,0.1279297,1.4047852,0.1523438c0.4560547,0.0263672,0.9082031,0.0390625,1.3632812,0.0390625
		c0.4521484,0,0.9082031-0.0126953,1.3603516-0.0390625c0.4550781-0.0244141,0.9208984-0.0761719,1.3994141-0.1523438V0.8630371
		c-0.4785156-0.0761719-0.9443359-0.1264648-1.3994141-0.1508789C89.9545898,0.6872559,89.512207,0.6740723,89.0825195,0.6740723z"
		/>
	<path fill="#FFFFFF" d="M106.0297852,0.901123c-0.5800781-0.0507812-1.1347656-0.1005859-1.6630859-0.1518555
		c-0.5283203-0.050293-1.0107422-0.0751953-1.4365234-0.0751953c-0.4052734,0-0.8515625,0.0131836-1.3427734,0.0380859
		c-0.4921875,0.0244141-1.0302734,0.0883789-1.6113281,0.1889648l-7.3740234,13.5043945l7.9453125,13.6938477
		c0.6044922,0.0996094,1.1523438,0.1640625,1.6435547,0.1884766c0.4921875,0.0263672,0.9375,0.0390625,1.34375,0.0390625
		c0.4287109,0,0.9140625-0.0263672,1.4560547-0.0771484c0.5410156-0.0507812,1.1025391-0.1005859,1.6835938-0.1503906
		l-8.0947266-14.0717773L106.0297852,0.901123z"/>
	<path fill="#FFFFFF" d="M114.0151367,23.4089355v-7.1879883h7.8701172
		c0.1513672-0.7817383,0.2246094-1.5756836,0.2246094-2.3833008c0-0.7558594-0.0732422-1.5375977-0.2246094-2.3452148h-7.8701172
		V5.5915527h9.9130859c0.1523438-0.7568359,0.2275391-1.5512695,0.2275391-2.3833008
		c0-0.78125-0.0751953-1.5512695-0.2275391-2.3071289h-15.4355469v27.1982422h15.7001953
		c0.1513672-0.7578125,0.2275391-1.5507812,0.2275391-2.3828125c0-0.7822266-0.0761719-1.5517578-0.2275391-2.3076172H114.0151367z"
		/>
	<path fill="#FFFFFF" d="M141.7436523,0.901123v17.3242188L131.2270508,0.901123
		c-0.8056641-0.1518555-1.5878906-0.2270508-2.34375-0.2270508c-0.7070312,0-1.4492188,0.0751953-2.2314453,0.2270508v27.1982422
		c0.7822266,0.1503906,1.5878906,0.2275391,2.4189453,0.2275391c0.8320312,0,1.6542969-0.0771484,2.4599609-0.2275391V10.8112793
		l10.5927734,17.2880859c0.8320312,0.1503906,1.6005859,0.2275391,2.3076172,0.2275391
		c0.6533203,0,1.3857422-0.0771484,2.1914062-0.2275391V0.901123c-0.7294922-0.1518555-1.4853516-0.2270508-2.2675781-0.2270508
		C143.5229492,0.6740723,142.6518555,0.7492676,141.7436523,0.901123z"/>
	<path fill="#FFFFFF" d="M64.4545898,4.2868652c-1.0249023-1.3486328-2.3339844-2.3999023-3.9233398-3.1547852
		c-1.5913086-0.7543945-3.4775391-1.1323242-5.6630859-1.1323242c-2.1850586,0-4.0698242,0.3779297-5.6625977,1.1323242
		c-1.5913086,0.7548828-2.8984375,1.8061523-3.9233398,3.1547852s-1.7875977,2.9472656-2.2841797,4.7929688
		c-0.4985352,1.847168-0.7475586,3.8491211-0.7475586,6.0063477c0,2.1582031,0.2490234,4.1459961,0.7475586,5.965332
		c0.496582,1.8212891,1.2592773,3.3974609,2.2841797,4.734375c0.8696289,1.1318359,1.9560547,2.0429688,3.2348633,2.7597656
		c0.8271484,0.6865234,1.8652344,1.7919922,1.8652344,3.0263672c0,2.0537109-2.7631836,7.1269531,0.7856445,7.1269531
		c3.3076172,0,1.1586914-5.1904297,1.1586914-6.8525391c0-0.7431641,0.1816406-1.4033203,0.4077148-1.9443359
		c0.6796875,0.0888672,1.3828125,0.1503906,2.1337891,0.1503906c0.9311523,0,1.7958984-0.0849609,2.6196289-0.2197266
		c0.2080078,0.5214844,0.3730469,1.1455078,0.3730469,1.8466797c0,1.6621094-2.1474609,6.8515625,1.1567383,6.8515625
		c3.550293,0,0.7875977-5.0742188,0.7875977-7.1240234c0-2.0517578,2.8652344-3.7597656,2.8652344-3.7597656l-0.0893555,0.0097656
		c0.7016602-0.5439453,1.3305664-1.1650391,1.8735352-1.8710938c1.0249023-1.3369141,1.7856445-2.9130859,2.2856445-4.734375
		c0.4985352-1.8193359,0.7480469-3.8071289,0.7480469-5.965332c0-2.1572266-0.2495117-4.1591797-0.7480469-6.0063477
		C66.2402344,7.2341309,65.4794922,5.635498,64.4545898,4.2868652z M48.5585938,15.0861816
		c0-6.6860352,2.1176758-10.0307617,6.3496094-10.0307617c2.1303711,0,3.7016602,0.8369141,4.7133789,2.5078125
		c1.012207,1.671875,1.5170898,4.1796875,1.5170898,7.5229492c0,6.6889648-2.0913086,10.0327148-6.2705078,10.0327148
		C50.6630859,25.1188965,48.5585938,21.7751465,48.5585938,15.0861816z"/>
</g>
</svg>
