<?xml version="1.0" encoding="utf-8"?>
<!-- Generator: Adobe Illustrator 16.0.0, SVG Export Plug-In . SVG Version: 6.00 Build 0)  -->
<!DOCTYPE svg PUBLIC "-//W3C//DTD SVG 1.0//EN" "http://www.w3.org/TR/2001/REC-SVG-20010904/DTD/svg10.dtd">
<svg version="1.0" id="Layer_1" xmlns="http://www.w3.org/2000/svg" xmlns:xlink="http://www.w3.org/1999/xlink" x="0px" y="0px"
	 width="569px" height="163.4868164px" viewBox="0 0 569 163.4868164" enable-background="new 0 0 569 163.4868164"
	 xml:space="preserve">
<g>
	<g>
		<path fill="#BA5A5A" d="M152.8540039,93.4794922c0,0,8.7636719,5.2202148,8.7636719,11.4931641
			c0,6.2724609-8.4550781,21.7954102,2.4018555,21.7954102c10.1162109,0,3.5380859-15.8774414,3.5380859-20.9599609
			c0-6.1831055,4.0737305-10.5380859,4.0737305-10.5380859L152.8540039,93.4794922z"/>
	</g>
	<g>
		<path fill="#BA5A5A" d="M228.9741211,93.6416016c0,0-8.7636719,5.2231445-8.7636719,11.4960938
			c0,6.2724609,8.4501953,21.7954102-2.4072266,21.7954102c-10.1108398,0-3.5380859-15.8774414-3.5380859-20.9599609
			c0-6.1831055-4.0732422-10.5380859-4.0732422-10.5380859L228.9741211,93.6416016z"/>
	</g>
	<g>
		<path fill="#E9848A" d="M160.2978516,115.9570312c0,0,11.5766602,6.8999023,11.5766602,15.1850586
			c0,8.2875977-11.1655273,28.7958984,3.1757812,28.7958984c13.3618164,0,4.6791992-20.9760742,4.6791992-27.6894531
			c0-8.1713867,5.3720703-13.9248047,5.3720703-13.9248047L160.2978516,115.9570312z"/>
	</g>
	<g>
		<path fill="#E9848A" d="M221.5302734,115.2807617c0,0-11.5766602,6.8999023-11.5766602,15.1850586
			c0,8.2875977,11.1601562,28.7958984-3.1806641,28.7958984c-13.3569336,0-4.6796875-20.9760742-4.6796875-27.6894531
			c0-8.1713867-5.371582-13.9248047-5.371582-13.9248047L221.5302734,115.2807617z"/>
	</g>
	<g>
		<path fill="#9E3F3F" d="M232.1279297,58.9301758c0,26.7592773-18.1928711,48.4550781-40.6430664,48.4550781
			c-22.4394531,0-40.6376953-21.6958008-40.6376953-48.4550781c0-26.7617188,18.1982422-48.4575195,40.6376953-48.4575195
			C213.9350586,10.4726562,232.1279297,32.168457,232.1279297,58.9301758z"/>
	</g>
	<g>
		<path fill="#BA5A5A" d="M211.9609375,66.8232422c0,17.9169922-9.980957,32.4418945-22.2939453,32.4418945
			c-12.3071289,0-22.2875977-14.5249023-22.2875977-32.4418945s9.9804688-32.4423828,22.2875977-32.4423828
			C201.9799805,34.3808594,211.9609375,48.90625,211.9609375,66.8232422z"/>
	</g>
	<g>
		<path fill="#FFFFFF" d="M148.6777344,63.2011719c0,0,24.3168945,11.8125,36.1313477,7.644043
			c11.8095703-4.1708984,13.199707-4.8632812,23.6137695-0.6953125c10.4243164,4.168457,14.5952148-7.6411133,14.5952148-7.6411133
			s6.9462891,15.2827148-1.3901367,28.4824219c-8.3364258,13.2021484-17.3706055,27.7895508-29.8725586,25.0117188
			C179.2480469,113.222168,147.9853516,117.3930664,148.6777344,63.2011719z"/>
	</g>
	<g>
		<path fill="#D0D2D3" d="M498.0786133,107.3842773c0-2.1484375,1.4516602-3.6586914,3.484375-3.6586914
			s3.4262695,1.5102539,3.4262695,3.6586914c0,2.0908203-1.3354492,3.6586914-3.484375,3.6586914
			C499.472168,111.0429688,498.0786133,109.4750977,498.0786133,107.3842773z"/>
		<path fill="#D0D2D3" d="M510.7963867,104.2485352c2.2651367,1.3935547,5.5751953,2.5551758,9.0595703,2.5551758
			c5.1689453,0,8.1884766-2.7294922,8.1884766-6.6787109c0-3.6586914-2.090332-5.7495117-7.3754883-7.7822266
			c-6.3881836-2.2646484-10.3369141-5.5751953-10.3369141-11.0922852c0-6.0976562,5.0522461-10.6274414,12.6601562-10.6274414
			c4.0073242,0,6.9106445,0.9291992,8.6533203,1.9165039l-1.394043,4.1230469
			c-1.277832-0.6967773-3.8911133-1.8583984-7.4335938-1.8583984c-5.3427734,0-7.3754883,3.1943359-7.3754883,5.8657227
			c0,3.6586914,2.3808594,5.4589844,7.7822266,7.5498047c6.6201172,2.5551758,9.9887695,5.7495117,9.9887695,11.4990234
			c0,6.0395508-4.4716797,11.2661133-13.7055664,11.2661133c-3.7749023,0-7.8984375-1.1030273-9.9892578-2.4970703
			L510.7963867,104.2485352z"/>
		<path fill="#D0D2D3" d="M560.3930664,92.0527344h-15.215332v14.1123047h16.9580078v4.2392578H540.125V71.2617188h21.1396484
			v4.2397461h-16.0869141v12.3696289h15.215332V92.0527344z"/>
	</g>
	<g>
		<g>
			<path fill="#44C4E2" d="M13.7485352,21.2758789c3.3051758-0.4975586,6.4863281-0.7436523,9.5478516-0.7436523
				c3.2246094,0,6.4052734,0.2460938,9.5483398,0.7436523l20.4541016,51.081543l21.0820312-51.081543
				c2.5585938-0.4975586,5.409668-0.7436523,8.5527344-0.7436523c3.137207,0,6.15625,0.2460938,9.050293,0.7436523
				l4.2143555,89.144043c-3.1430664,0.4951172-6.1186523,0.746582-8.9262695,0.746582
				c-2.8129883,0-5.5776367-0.2514648-8.309082-0.746582l-2.2290039-60.5048828L58.6328125,91.8242188
				c-1.1630859,0.1650391-2.3530273,0.3081055-3.597168,0.4326172c-1.2446289,0.1245117-2.4780273,0.1865234-3.722168,0.1865234
				c-1.0766602,0-2.1474609-0.0405273-3.21875-0.1240234c-1.0766602-0.081543-2.1962891-0.2490234-3.3486328-0.4951172
				L27.8842773,49.046875l-1.7368164,61.3730469c-2.6508789,0.4951172-5.2094727,0.746582-7.6870117,0.746582
				c-2.6455078,0-5.3720703-0.2514648-8.1850586-0.746582L13.7485352,21.2758789z"/>
		</g>
		<g>
			<g>
				<path fill="none" d="M189.8457031,17.4594727c-19.0097656,0-28.5200195,15.0200195-28.5200195,45.0546875
					c0,30.0375977,9.4506836,45.0522461,28.3359375,45.0522461c18.7719727,0,28.1630859-15.0146484,28.1630859-45.0522461
					c0-15.0170898-2.2719727-26.2802734-6.815918-33.7915039C206.4697266,21.2163086,199.4155273,17.4594727,189.8457031,17.4594727
					z"/>
			</g>
			<g>
				<path fill="#44C4E2" d="M132.9897461,62.5141602c0-9.6884766,1.1142578-18.6821289,3.359375-26.9780273
					c1.4008789-5.1933594,3.2617188-9.9458008,5.59375-14.2602539h-32.3286133
					c-0.4921875,2.3964844-0.7412109,4.9174805-0.7412109,7.5629883c0,1.3251953,0.0649414,2.6669922,0.184082,4.0302734
					c0.1240234,1.3632812,0.3134766,2.6235352,0.5571289,3.78125h14.7578125v47.4838867
					c0,2.9780273-0.4384766,5.2719727-1.3037109,6.8837891c-0.8657227,1.609375-1.9477539,2.8320312-3.2246094,3.6572266
					c-1.2817383,0.8276367-2.7045898,1.3222656-4.2734375,1.4873047c-1.5742188,0.1679688-3.0620117,0.2490234-4.4628906,0.2490234
					c-1.1630859,0-2.277832-0.1245117-3.3486328-0.3730469c-1.0820312-0.2490234-2.0722656-0.4545898-2.9755859-0.6196289
					c-1.40625,3.8032227-2.1098633,7.605957-2.1098633,11.40625c0,0.6630859,0.0219727,1.2822266,0.0595703,1.8613281
					c0.043457,0.5756836,0.1030273,1.1547852,0.1894531,1.7333984c1.8989258,0.4951172,3.9003906,0.8686523,6.015625,1.1171875
					c2.1044922,0.2460938,3.8623047,0.3706055,5.269043,0.3706055c4.0463867,0,7.784668-0.4545898,11.2197266-1.3632812
					c3.4296875-0.9086914,6.3999023-2.375,8.9262695-4.4008789c2.2880859-1.8393555,4.1113281-4.184082,5.5175781-6.980957
					c-1.3847656-3.0917969-2.5693359-6.3671875-3.5214844-9.8540039
					C134.1040039,81.1347656,132.9897461,72.2060547,132.9897461,62.5141602z"/>
			</g>
			<g>
				<path fill="#099AA8" d="M141.7963867,86.7392578V21.2758789h-0.5297852
					c-2.331543,4.3144531-4.1928711,9.0668945-5.59375,14.2602539c-2.2451172,8.2958984-3.359375,17.2895508-3.359375,26.9780273
					c0,9.6918945,1.1142578,18.6206055,3.359375,26.7944336c0.9521484,3.4868164,2.1420898,6.762207,3.5268555,9.8540039
					c0.140625-0.28125,0.2978516-0.5410156,0.4277344-0.8305664
					C141.0717773,95.1513672,141.7963867,91.2861328,141.7963867,86.7392578z"/>
			</g>
			<g>
				<path fill="#44C4E2" d="M285.7978516,98.8295898c-0.0810547-1.2817383-0.2485352-2.6235352-0.4975586-4.0302734h-30.8735352
					V21.2758789c-3.137207-0.4975586-6.15625-0.7436523-9.050293-0.7436523c-2.5805664,0-5.2636719,0.2163086-8.0551758,0.6357422
					c2.3588867,4.34375,4.246582,9.1313477,5.6640625,14.3681641c2.234375,8.2958984,3.359375,17.2895508,3.359375,26.9780273
					c0,9.6918945-1.125,18.6206055-3.359375,26.7944336c-1.5634766,5.690918-3.7109375,10.8413086-6.4106445,15.4746094v5.6367188
					h48.7255859c0.2490234-1.4008789,0.4165039-2.7451172,0.4975586-4.0273438s0.1245117-2.5830078,0.1245117-3.9057617
					C285.9223633,101.3291016,285.8789062,100.1118164,285.7978516,98.8295898z"/>
			</g>
			<g>
				<path fill="#099AA8" d="M246.5288086,62.5141602c0-9.6938477-1.0820312-18.5229492-3.359375-26.9780273
					c-1.4174805-5.2368164-3.3051758-10.0244141-5.6586914-14.3681641
					c-0.2543945,0.0375977-0.4975586,0.0673828-0.7519531,0.1079102v83.5073242
					c2.7050781-4.6333008,4.847168-9.7836914,6.4106445-15.4746094
					C245.4038086,81.1347656,246.5288086,72.2060547,246.5288086,62.5141602z"/>
			</g>
		</g>
		<g>
			<path fill="#44C4E2" d="M292.9550781,21.1513672c1.5688477-0.2485352,3.0996094-0.4135742,4.5874023-0.4946289
				c1.4931641-0.081543,3.0185547-0.1245117,4.5874023-0.1245117c1.4067383,0,2.8510742,0.0429688,4.3388672,0.1245117
				c1.4931641,0.0810547,3.0185547,0.2460938,4.5874023,0.4946289v89.3930664
				c-1.5688477,0.2490234-3.0942383,0.4140625-4.5874023,0.4975586c-1.487793,0.081543-2.9755859,0.1245117-4.4633789,0.1245117
				c-1.4873047,0-2.9697266-0.0429688-4.4628906-0.1245117c-1.487793-0.0834961-3.0185547-0.2485352-4.5874023-0.4975586V21.1513672
				z M313.6635742,65.5380859l24.1704102-44.262207c1.9042969-0.3300781,3.6625977-0.5380859,5.2744141-0.6191406
				c1.6123047-0.081543,3.078125-0.1245117,4.4038086-0.1245117c1.4008789,0,2.9750977,0.0810547,4.7119141,0.2460938
				c1.730957,0.1674805,3.5488281,0.3325195,5.4526367,0.4975586l-24.4248047,43.0234375l26.534668,46.1206055
				c-1.9038086,0.1650391-3.7431641,0.3300781-5.5175781,0.4951172c-1.7797852,0.1679688-3.3706055,0.2514648-4.7714844,0.2514648
				c-1.3310547,0-2.7915039-0.0429688-4.4038086-0.1245117c-1.6171875-0.0834961-3.4130859-0.2919922-5.3930664-0.6220703
				L313.6635742,65.5380859z"/>
		</g>
		<g>
			<path fill="#44C4E2" d="M365.7480469,21.2758789h50.5864258c0.4980469,2.4775391,0.746582,5.0014648,0.746582,7.5629883
				c0,2.7265625-0.2485352,5.3310547-0.746582,7.8115234h-32.4853516v19.3398438h25.793457
				c0.4926758,2.6479492,0.7358398,5.2094727,0.7358398,7.6870117c0,2.6479492-0.2431641,5.2504883-0.7358398,7.8120117h-25.793457
				v23.5566406h33.3510742c0.4975586,2.4799805,0.746582,5.0039062,0.746582,7.5625
				c0,2.7265625-0.2490234,5.331543-0.746582,7.8115234h-51.4521484V21.2758789z"/>
		</g>
		<g>
			<path fill="#44C4E2" d="M425.2607422,21.2758789c2.5639648-0.4975586,4.9985352-0.7436523,7.3139648-0.7436523
				c2.4829102,0,5.0415039,0.2460938,7.6870117,0.7436523l34.4707031,56.7832031V21.2758789
				c2.9755859-0.4975586,5.8261719-0.7436523,8.5527344-0.7436523c2.5644531,0,5.0419922,0.2460938,7.4384766,0.7436523v89.144043
				c-2.6455078,0.4951172-5.0419922,0.746582-7.1894531,0.746582c-2.3154297,0-4.8364258-0.2514648-7.5625-0.746582
				l-34.7143555-56.6611328v56.6611328c-2.6455078,0.4951172-5.3339844,0.746582-8.0605469,0.746582
				s-5.3720703-0.2514648-7.9360352-0.746582V21.2758789z"/>
		</g>
		<g>
			<path fill="#E9848A" d="M190.0024414,124.9941406c-8.8286133,0-16.4506836-1.5283203-22.8828125-4.5766602
				c-6.4321289-3.0512695-11.7124023-7.2763672-15.855957-12.6699219c-4.144043-5.3935547-7.222168-11.7661133-9.2290039-19.1230469
				c-2.0180664-7.3544922-3.0239258-15.3881836-3.0239258-24.1083984c0-8.7177734,1.0058594-16.8081055,3.0239258-24.2734375
				c2.0068359-7.4604492,5.0849609-13.9194336,9.2290039-19.3696289C155.4072266,15.425293,160.6875,11.1757812,167.1196289,8.125
				c6.4321289-3.0483398,14.0541992-4.5766602,22.8828125-4.5766602S206.4536133,5.0766602,212.8857422,8.125
				c6.4267578,3.0507812,11.7119141,7.300293,15.855957,12.7480469c4.144043,5.4501953,7.2163086,11.9091797,9.2397461,19.3696289
				C239.9936523,47.7080078,241,55.7983398,241,64.5161133c0,8.7202148-1.0063477,16.7539062-3.0185547,24.1083984
				c-2.0234375,7.3569336-5.0957031,13.7294922-9.2397461,19.1230469s-9.4291992,9.6186523-15.855957,12.6699219
				C206.4536133,123.4658203,198.8310547,124.9941406,190.0024414,124.9941406z M190.0024414,105.0537109
				c16.8891602,0,25.3393555-13.5107422,25.3393555-40.5375977c0-13.5112305-2.0449219-23.6459961-6.1293945-30.402832
				c-4.0893555-6.7539062-10.4404297-10.1352539-19.0473633-10.1352539c-17.1054688,0-25.6582031,13.5161133-25.6582031,40.5380859
				C164.5068359,91.5429688,173.0053711,105.0537109,190.0024414,105.0537109z"/>
		</g>
	</g>
	<g>
		<path fill="#F59698" d="M190.0024414,113.0058594c-7.7680664,0-14.4926758-1.3466797-20.1508789-4.0302734
			c-5.6586914-2.6860352-10.3164062-6.4077148-13.9628906-11.1547852c-3.6459961-4.7524414-6.355957-10.3647461-8.1303711-16.840332
			c-1.7744141-6.4780273-2.6616211-13.5512695-2.6616211-21.2304688c0-7.6762695,0.887207-14.7983398,2.6616211-21.3740234
			c1.7744141-6.5698242,4.484375-12.2583008,8.1303711-17.0541992c3.6464844-4.8007812,8.3041992-8.5419922,13.9628906-11.2275391
			c5.6582031-2.6860352,12.3828125-4.0302734,20.1508789-4.0302734c7.7739258,0,14.4926758,1.3442383,20.1513672,4.0302734
			c5.6586914,2.6855469,10.3164062,6.4267578,13.9624023,11.2275391c3.6464844,4.7958984,6.3564453,10.484375,8.1308594,17.0541992
			c1.7744141,6.5756836,2.6616211,13.6977539,2.6616211,21.3740234c0,7.6791992-0.887207,14.7524414-2.6616211,21.2304688
			c-1.7744141,6.4755859-4.484375,12.0878906-8.1308594,16.840332c-3.6459961,4.7470703-8.3037109,8.46875-13.9624023,11.1547852
			C204.4951172,111.6591797,197.7763672,113.0058594,190.0024414,113.0058594z M190.0024414,95.4458008
			c14.8769531,0,22.3100586-11.8959961,22.3100586-35.6958008c0-11.8989258-1.8017578-20.8222656-5.3935547-26.7729492
			c-3.6030273-5.9453125-9.1967773-8.9233398-16.7700195-8.9233398c-15.0664062,0-22.6020508,11.9013672-22.6020508,35.6962891
			C167.546875,83.5498047,175.0336914,95.4458008,190.0024414,95.4458008z"/>
	</g>
</g>
<g>
</g>
<g>
</g>
<g>
</g>
<g>
</g>
<g>
</g>
<g>
</g>
</svg>
