<?xml version="1.0" encoding="utf-8"?>
<!-- Generator: Adobe Illustrator 16.0.0, SVG Export Plug-In . SVG Version: 6.00 Build 0)  -->
<!DOCTYPE svg PUBLIC "-//W3C//DTD SVG 1.0//EN" "http://www.w3.org/TR/2001/REC-SVG-20010904/DTD/svg10.dtd">
<svg version="1.0" id="Layer_1" xmlns="http://www.w3.org/2000/svg" xmlns:xlink="http://www.w3.org/1999/xlink" x="0px" y="0px"
	 width="338px" height="448px" viewBox="0 0 338 448" enable-background="new 0 0 338 448" xml:space="preserve">
<g>
	<polygon fill="#E6E7E8" points="311.1699219,4.078125 333.5742188,86.1376953 333.5742188,397.7158203 271.2792969,442.2148438 
		248.0605469,73.6210938 	"/>
	<polygon fill="#F1F1F2" points="7.0566406,442.2148438 271.2792969,442.2148438 271.2792969,91.7055664 311.1699219,4.078125 
		51.3808594,4.078125 6.1806641,77.796875 	"/>
	<polygon fill="#DB833B" points="4.9638672,183.8178711 271.2587891,183.8178711 334.7802734,144.5766602 333.5537109,299.5820312 
		272.4853516,364.3408203 6.5205078,362.9492188 	"/>
	<polygon fill="#C16827" points="271.2587891,183.8178711 271.2587891,364.3408203 333.3989258,319.8310547 
		333.3989258,144.5766602 	"/>
	<path fill="#FFCF9F" d="M66.5991211,263.1044922c0,0,10.5991211-52.1704102,45.7983398-24.28125
		C112.3974609,238.8232422,121.7285156,274.6513672,66.5991211,263.1044922z"/>
	<path fill="#FFCF9F" d="M163.7119141,267.1972656c0,0-25.5283203-71.9760742,38.3544922-63.7075195
		C202.0664062,203.4897461,240.0390625,240.6376953,163.7119141,267.1972656z"/>
	<path fill="#FFCF9F" d="M104.2109375,326.2236328c0,0-25.5283203-71.9755859,38.3544922-63.7070312
		C142.5654297,262.5166016,180.5380859,299.6640625,104.2109375,326.2236328z"/>
</g>
<g>
</g>
<g>
</g>
<g>
</g>
<g>
</g>
<g>
</g>
<g>
</g>
</svg>
