<?xml version="1.0" encoding="utf-8"?>
<!-- Generator: Adobe Illustrator 16.0.0, SVG Export Plug-In . SVG Version: 6.00 Build 0)  -->
<!DOCTYPE svg PUBLIC "-//W3C//DTD SVG 1.0//EN" "http://www.w3.org/TR/2001/REC-SVG-20010904/DTD/svg10.dtd">
<svg version="1.0" id="Layer_1" xmlns="http://www.w3.org/2000/svg" xmlns:xlink="http://www.w3.org/1999/xlink" x="0px" y="0px"
	 width="765px" height="473px" viewBox="42.5 0 765 473" enable-background="new 42.5 0 765 473" xml:space="preserve">
<g>
	<g>
		<polygon fill="#929497" points="438.6806641,467.0175781 393.1933594,467.0175781 393.1933594,438.78125 410.4462891,438.78125 
			410.4462891,311.7197266 438.6806641,311.7197266 		"/>
	</g>
	<path fill="#190B03" d="M568.8779297,362.28125c-13.9521484-26.1767578-26.6728516-92.2636719-26.6728516-175.1518555
		c0-10.3959961-0.2529297-19.3984375-0.8339844-27.1972656L557.4541016,178.5625
		c-1.2509766-25.5498047-15.1328125-43.7578125-24.5888672-53.3012695
		c-11.1279297-17.8413086-33.9433594-16.0249023-77.3535156-17.1967773
		c-70.5068359-1.9121094-199.0507812,14.2275391-224.7763672,1.8476562
		c-10.6425781-5.1235352-16.7368164-13.4086914-22.4458008-22.6162109c0.1572266-0.3730469,0.3178711-0.7387695,0.4594727-1.1435547
		c4.4248047-12.640625-6.6494141-18.152832-14.6162109-20.4345703c-4.9448242-6.1347656-11.078125-11.9389648-19.6040039-16.7724609
		c-55.331543-31.3984375-63.9077148,5.7539062-68.6772461,7.6650391c0,0-3.5224609-4.8164062-15.8007812-5.6352539
		c-5.3608398-1.5083008-10.8710938-1.1401367-14.6884766,5.6352539
		C66.796875,71.8505859,88.7167969,81.3813477,88.7167969,81.3813477s0.7597656-0.7543945,0.4228516,1.4208984
		c-5.6430664,2.7236328-12.4702148,7.0024414-14.3745117,12.3935547c-1.3100586,3.7207031-0.9277344,6.0024414-0.2939453,7.890625
		c-0.1655273,3.4580078-0.4033203,7.2211914-0.7197266,9.4467773c-5.652832,8.2705078-12.6865234,17.3183594-20.2177734,24.0615234
		c-18.0981445,16.1953125,14.2177734,61.9677734,47.6386719,53.347168
		c25.0639648-6.4707031,41.9130859-6.6723633,41.9130859-6.6723633s13.2719727,26.7275391,37.0869141,61.0302734
		c30.3041992,43.6308594-2.8583984,116.2353516-6.6728516,129.5615234
		c-3.8144531,13.3466797,36.2148438,35.2587891,45.7460938,8.5859375
		c9.5219727-26.6835938,26.6655273-60.9765625,26.6655273-60.9765625s3.8129883,40.0205078,10.4858398,54.3037109
		c6.6538086,14.2822266,49.5419922,10.4775391,44.7729492-14.2832031
		c-4.762207-24.7802734-10.4892578-82.8876953,0.9541016-78.1279297
		c11.4350586,4.7617188,44.0356445,13.5849609,64.0371094,6.9121094c0,0,5.4775391,0.9355469,7.5214844,4.0253906
		c3.1987305,6.2675781,7.7875977,14.7490234,14.7739258,21.0644531c-1.3891602,5.4638672-1.597168,11.1494141,2.2739258,13.7255859
		c4.1850586,2.7929688,9.9213867-0.5839844,15.0825195-5.3095703c3.1538086,0.4492188,6.574707,0.4570312,10.2973633-0.1064453
		c0.3583984,4.2626953,2.1269531,7.8974609,7.0097656,8.2744141c9.0507812,0.6992188,9.4506836-6.2431641,8.6381836-13.3759766
		c3.293457-1.5869141,6.7592773-3.5410156,10.4155273-5.9267578c0,0,0.0224609-0.0449219,0.0605469-0.1240234
		c0.5439453,5.1855469,4.5195312,44.4541016,1.8515625,58.6738281
		c-2.8583984,15.2402344,28.5761719,28.4023438,37.1523438-1.1396484
		c5.5693359-19.1845703,8.3173828-36.7480469,9.5615234-46.7109375c6.3388672,11.3085938,12.0078125,21.5625,15.1992188,27.6582031
		c0,0-0.0068359-0.4345703-0.0429688-1.2324219c5.4580078,12.9912109,11.5058594,26.8574219,16.2480469,36.3330078
		C533.6376953,408.9736328,584.1269531,390.8662109,568.8779297,362.28125z"/>
	<g>
		<polygon fill="#6D6E70" points="733.9658203,466.7324219 383.753418,466.7324219 383.753418,310.0732422 411.9897461,310.0732422 
			411.9897461,438.4960938 705.7285156,438.4960938 705.7285156,76.0048828 733.9658203,76.0048828 		"/>
	</g>
	<g>
		<path fill="#6D6E70" d="M802.5429688,234.2626953c0,46.3427734-37.5742188,83.9169922-83.9169922,83.9169922l0,0
			c-46.3535156,0-83.9277344-37.5742188-83.9277344-83.9169922v-98.8261719
			c0-46.3525391,37.5742188-83.9272461,83.9277344-83.9272461l0,0c46.3427734,0,83.9169922,37.574707,83.9169922,83.9272461
			V234.2626953z"/>
	</g>
	<g>
		<path fill="#FFFFFF" d="M789.5546875,230.2373047c0,38.8789062-31.5351562,70.4150391-70.4248047,70.4150391l0,0
			c-38.9072266,0-70.4248047-31.5361328-70.4248047-70.4150391v-82.9257812
			c0-38.8979492,31.5175781-70.4335938,70.4248047-70.4335938l0,0c38.8896484,0,70.4248047,31.5356445,70.4248047,70.4335938
			V230.2373047z"/>
	</g>
	<g>
		<path fill="#6D6E70" d="M639.3671875,212.9008789c0,0,32.6298828-12.949707,55.4873047-12.949707
			c22.8505859,0,37.5380859,16.1948242,63.6513672,16.1948242c26.1054688,0,42.4375-16.1948242,42.4375-16.1948242
			l-6.2314453-91.9882812l-57.4179688-40.8374023l-58.7529297,6.4799805l-31.0214844,30.7827148L639.3671875,212.9008789z"/>
	</g>
	<g>
		<polygon fill="#FFFFFF" points="725.3896484,458.3398438 419.1972656,458.3398438 419.1972656,317.7753906 
			428.6074219,317.7753906 428.6074219,448.9287109 715.9785156,448.9287109 715.9785156,241.6064453 725.3896484,241.6064453 		"/>
	</g>
	<g>
		<path fill="#BBBDBF" d="M448.9941406,335.7910156c0,10.9375-8.8701172,19.8164062-19.8066406,19.8164062l0,0
			c-10.9560547,0-19.8164062-8.8789062-19.8164062-19.8164062v-25.7001953c0-10.9365234,8.8603516-19.8154297,19.8164062-19.8154297
			l0,0c10.9365234,0,19.8066406,8.8789062,19.8066406,19.8154297V335.7910156z"/>
	</g>
	<g>
		<polygon fill="#FFFFFF" points="458.1767578,458.5986328 390.7211914,458.5986328 390.7211914,346.0039062 
			400.1318359,346.0039062 400.1318359,449.1845703 458.1767578,449.1845703 		"/>
	</g>
	<g>
		<path fill="#A6A8AB" d="M411.5219727,336.8574219c0,10.9375-8.8603516,19.8164062-19.8168945,19.8164062l0,0
			c-10.9379883,0-19.8076172-8.8789062-19.8076172-19.8164062v-25.7001953c0-10.9365234,8.8696289-19.8164062,19.8076172-19.8164062
			l0,0c10.956543,0,19.8168945,8.8798828,19.8168945,19.8164062V336.8574219z"/>
	</g>
	<g>
		<path fill="#ED8585" d="M371.206543,291.9394531c0,0,13.9174805,0.1748047,16.4716797,11.7646484
			c0,0,20.1650391-0.9013672,21.8486328,13.6679688c0,0,9.4575195-14.2929688,20.4692383-14.3759766
			c0,0,10.1464844-2.65625,16.4238281-2.65625c0,0-0.7060547-26.4345703-5.4121094-27.2236328
			C436.3007812,272.3242188,371.206543,291.9394531,371.206543,291.9394531z"/>
	</g>
	<g>
		<path fill="#D45E5F" d="M442.1289062,300.6523438l-16.8125-17.34375c0,0,5.9291992,11.9677734,1.1401367,17.1318359
			c-4.7880859,5.1660156-13.6850586,7.9697266-13.6850586,7.9697266s1.8745117-7.3994141-3.144043-10.9833984
			c-5.0180664-3.5859375-0.0546875,2.7939453-5.4780273,5.4873047c-5.4233398,2.6923828-9.4667969,1.3876953-13.9155273-1.4892578
			c-4.4501953-2.8759766-0.9926758-8.7041016-0.9926758-8.7041016l11.3334961-9.4121094l-34.4135742,6.9667969
			c0,0,2.949707,7.1142578,8.9628906,10.0644531c12.4165039,6.1025391,24.8793945-0.6699219,34.402832,17.0322266
			c0,0,10.2382812-11.9394531,20.4692383-14.3759766C429.9960938,302.9960938,446.0527344,301.4433594,442.1289062,300.6523438z"/>
	</g>
</g>
</svg>
