<?xml version="1.0" encoding="utf-8"?>
<!-- Generator: Adobe Illustrator 16.0.0, SVG Export Plug-In . SVG Version: 6.00 Build 0)  -->
<!DOCTYPE svg PUBLIC "-//W3C//DTD SVG 1.1//EN" "http://www.w3.org/Graphics/SVG/1.1/DTD/svg11.dtd">
<svg version="1.1" id="Layer_1" xmlns="http://www.w3.org/2000/svg" xmlns:xlink="http://www.w3.org/1999/xlink" x="0px" y="0px"
	 width="548px" height="606px" viewBox="0 0 548 606" enable-background="new 0 0 548 606" xml:space="preserve">
<rect x="375" y="350" fill="#E2E2E2" width="22" height="263"/>
<rect x="337" y="350" fill="#E2E2E2" width="22" height="263"/>
<g>
	<path fill="#190B03" d="M526.351,362.281c-13.951-26.178-26.673-92.264-26.673-175.152c0-10.396-0.253-19.398-0.834-27.197
		l16.083,18.63c-1.251-25.55-15.133-43.758-24.589-53.301c-11.128-17.841-33.943-16.025-77.354-17.197
		c-70.508-1.912-199.051,14.228-224.776,1.848c-10.643-5.124-16.737-13.409-22.446-22.616c0.157-0.373,0.318-0.739,0.459-1.144
		c4.425-12.641-6.649-18.153-14.616-20.435c-4.945-6.135-11.078-11.939-19.604-16.772C76.67,17.547,68.094,54.699,63.324,56.61
		c0,0-3.522-4.816-15.801-5.635c-5.361-1.508-10.871-1.14-14.688,5.635C24.27,71.85,46.189,81.381,46.189,81.381
		s0.76-0.754,0.423,1.421c-5.643,2.724-12.47,7.002-14.375,12.394c-1.31,3.721-0.928,6.002-0.294,7.891
		c-0.166,3.458-0.403,7.221-0.72,9.447c-5.653,8.271-12.687,17.318-20.218,24.062c-18.098,16.195,14.218,61.968,47.639,53.347
		c25.064-6.471,41.913-6.672,41.913-6.672s13.272,26.728,37.087,61.03c30.304,43.631-2.858,116.235-6.673,129.562
		c-3.814,13.347,36.215,35.259,45.746,8.586c9.522-26.684,26.666-60.977,26.666-60.977s3.813,40.021,10.486,54.303
		c6.654,14.283,49.542,10.479,44.773-14.282c-4.762-24.78-10.489-82.888,0.954-78.128c11.435,4.762,44.036,13.585,64.037,6.912
		c0,0,5.479,0.936,7.521,4.024c3.197,6.269,7.788,14.749,14.773,21.064c-1.39,5.464-1.598,11.149,2.273,13.726
		c4.186,2.793,9.922-0.584,15.082-5.31c3.154,0.448,6.575,0.457,10.298-0.106c0.358,4.264,2.127,7.897,7.01,8.274
		c9.051,0.698,9.45-6.243,8.639-13.376c3.294-1.588,6.76-3.541,10.416-5.928c0,0,0.021-0.045,0.061-0.123
		c0.544,5.186,4.521,44.453,1.852,58.674c-2.857,15.24,28.576,28.401,37.152-1.141c5.569-19.185,8.317-36.748,9.562-46.711
		c6.339,11.309,12.008,21.562,15.198,27.658c0,0-0.007-0.436-0.043-1.232c5.458,12.992,11.507,26.857,16.248,36.334
		C491.11,408.974,541.6,390.866,526.351,362.281z"/>
	<g>
		<path fill="#D8D8D8" d="M406.467,335.791c0,10.938-8.87,19.816-19.807,19.816l0,0c-10.956,0-19.816-8.879-19.816-19.816v-25.7
			c0-10.937,8.86-19.815,19.816-19.815l0,0c10.937,0,19.807,8.879,19.807,19.815V335.791z"/>
	</g>
	<g>
		<path fill="#D8D8D8" d="M368.994,336.857c0,10.938-8.859,19.815-19.816,19.815l0,0c-10.938,0-19.808-8.879-19.808-19.815v-25.7
			c0-10.938,8.87-19.816,19.808-19.816l0,0c10.957,0,19.816,8.88,19.816,19.816V336.857z"/>
	</g>
	<g>
		<path fill="#ED8585" d="M328.68,291.939c0,0,13.917,0.174,16.472,11.765c0,0,20.166-0.901,21.85,13.668
			c0,0,9.457-14.293,20.469-14.376c0,0,10.146-2.656,16.424-2.656c0,0-0.705-26.436-5.411-27.224
			C393.773,272.324,328.68,291.939,328.68,291.939z"/>
	</g>
	<g>
		<path fill="#D45E5F" d="M399.602,300.652l-16.812-17.344c0,0,5.93,11.967,1.141,17.131c-4.789,5.166-13.686,7.971-13.686,7.971
			s1.875-7.398-3.146-10.983c-5.018-3.586-0.055,2.794-5.478,5.487c-5.423,2.691-9.467,1.388-13.915-1.489
			c-4.451-2.876-0.993-8.704-0.993-8.704l11.333-9.412l-34.413,6.967c0,0,2.95,7.115,8.963,10.064
			c12.417,6.104,24.88-0.67,34.403,17.032c0,0,10.238-11.938,20.469-14.376C387.469,302.996,403.525,301.443,399.602,300.652z"/>
	</g>
</g>
</svg>
