<?xml version="1.0" encoding="utf-8"?>
<!-- Generator: Adobe Illustrator 16.0.0, SVG Export Plug-In . SVG Version: 6.00 Build 0)  -->
<!DOCTYPE svg PUBLIC "-//W3C//DTD SVG 1.0//EN" "http://www.w3.org/TR/2001/REC-SVG-20010904/DTD/svg10.dtd">
<svg version="1.0" id="Layer_1" xmlns="http://www.w3.org/2000/svg" xmlns:xlink="http://www.w3.org/1999/xlink" x="0px" y="0px"
	 width="194.9541016px" height="258.9819336px" viewBox="0 0 194.9541016 258.9819336"
	 enable-background="new 0 0 194.9541016 258.9819336" xml:space="preserve">
<g>
	<polygon fill="#E7E7E7" points="180.9975586,0 194.2407227,48.5083008 194.2407227,232.6782227 157.418457,258.9819336 
		143.6938477,41.1098633 	"/>
	<polygon fill="#F2F2F2" points="1.2373047,258.9819336 157.418457,258.9819336 157.418457,51.7963867 180.9975586,0 27.4370117,0 
		0.7192383,43.5751953 	"/>
	<polygon fill="#46C4E2" points="0,106.2436523 157.40625,106.2436523 194.9541016,83.0517578 194.2285156,174.671875 
		158.1313477,212.9506836 0.9204102,212.1279297 	"/>
	<g>
		<path fill="#FFFFFF" d="M36.4082031,133.8056641c0,0-2.9072266,5.6162109-6.3447266,8.699707
			c-3.4370117,3.0776367,2.7001953,11.7866211,9.0625,10.1533203c4.7661133-1.2373047,7.9716797-1.2797852,7.9716797-1.2797852
			s2.5229492,5.0888672,7.0512695,11.6098633c5.7714844,8.3007812-0.5424805,22.1103516-1.2675781,24.6518555
			c-0.7255859,2.5351562,6.8867188,6.6977539,8.6962891,1.6274414c1.8164062-5.0766602,5.0766602-11.5976562,5.0766602-11.5976562
			S67.3798828,185.2758789,68.6474609,188c1.2675781,2.7124023,9.421875,1.9931641,8.5136719-2.7241211
			c-0.9018555-4.7045898-1.9926758-15.7597656,0.1889648-14.8520508c2.1699219,0.9082031,9.2392578,2.3525391,13.0419922,1.0786133
			c0,0,3.4433594,7.9838867,13.5966797,4.3515625c0,0-0.7314453,8.1542969-1.2734375,11.0551758
			c-0.5488281,2.9008789,7.0693359,5.6191406,8.6962891,0c1.6396484-5.6186523,1.9868164-10.5068359,1.9868164-10.5068359
			s3.6323242,9.2148438,5.8081055,13.5600586c2.1757812,4.3457031,11.7807617,0.9082031,8.8793945-4.527832
			c-2.6630859-4.9853516-5.0766602-17.5517578-5.0766602-33.3183594c0-15.8149414-3.0834961-14.6689453-16.4912109-15.034668
			s-37.8583984,2.7060547-42.7524414,0.347168c-4.8935547-2.3525391-4.7290039-8.215332-10.6894531-11.5942383
			c-10.5249023-5.9726562-12.1582031,1.09375-13.0664062,1.4594727c-0.8959961,0.359375-4.1625977-2.9042969-5.7958984,0
			c-1.6333008,2.8979492,2.5415039,4.7109375,2.5415039,4.7109375S37.1333008,131.6298828,36.4082031,133.8056641z"/>
		<path fill="#FFFFFF" d="M36.2128906,147.5883789c-1.230957-0.7802734,1.6333008-3.0839844,2.5351562-2.5356445
			C39.65625,145.5952148,38.199707,148.855957,36.2128906,147.5883789z"/>
		<path fill="#FFFFFF" d="M63.5766602,184.0083008c0,0,3.0776367-15.2177734,7.4233398-17.7587891
			c4.3510742-2.5356445,6.1611328,3.2666016,6.1611328,3.2666016S72.815918,162.4462891,63.5766602,184.0083008z"/>
		<path fill="#FFFFFF" d="M107.0664062,167.1635742c0,0,7.0634766,12.3227539,9.0625,16.1254883
			C116.1289062,183.2890625,115.9521484,170.9663086,107.0664062,167.1635742z"/>
		<path fill="#FFFFFF" d="M103.9887695,175.8540039c0,0,2.3100586-8.1967773-3.309082-8.3735352
			c-5.6191406-0.1831055-7.7949219,0.8105469-7.7949219,0.8105469S110.1870117,154.2919922,103.9887695,175.8540039z"/>
		<path fill="#FFFFFF" d="M55.4165039,128.7412109c0,0,5.4360352,0.5454102,4.168457,4.168457
			c-1.2675781,3.6235352-5.9785156,0.362793-5.9785156,0.362793S61.7607422,133.2724609,55.4165039,128.7412109z"/>
		<path fill="#FFFFFF" d="M35.6582031,126.2119141c0,0,2.1699219,1.0913086,2.3466797,2.7211914
			c0.1826172,1.6333008,0.1826172,1.6333008,0.1826172,1.6333008l1.8222656-3.2724609
			C40.0097656,127.2939453,39.0957031,126.0351562,35.6582031,126.2119141z"/>
		<path fill="#FFFFFF" d="M105.4331055,142.3349609c2.1699219,3.0712891,2.9008789,6.7036133-0.1767578,7.7885742
			c-3.0898438,1.0849609-20.300293-1.6274414-19.2094727,2.3583984c1.0849609,3.9858398-6.1674805,8.6967773-7.9775391,1.8100586
			s1.0908203-7.9711914,5.8017578-10.3237305c4.7172852-2.3588867,2.5351562-3.8154297,11.2319336-2.9072266
			S105.4331055,142.3349609,105.4331055,142.3349609z"/>
		<path fill="#FFFFFF" d="M66.4716797,140.7016602c-7.7216797-2.0356445-15.0410156-2.9008789-9.4282227,3.2666016
			c5.6191406,6.1552734,4.5341797,8.324707,8.7089844,6.3378906c4.1625977-1.9926758,5.0644531-5.8017578,6.3320312-7.7885742
			C73.3642578,140.5185547,69.9150391,141.609375,66.4716797,140.7016602z"/>
		<path fill="#FFFFFF" d="M119.565918,138.8852539c0,0,5.9848633,4.1689453,6.3447266,11.6040039l-3.4433594-3.9858398
			C122.4672852,146.503418,120.4741211,140.152832,119.565918,138.8852539z"/>
		<path fill="#FFFFFF" d="M90.3920898,171.4174805c0,0,3.5776367-5.7167969,8.0874023-5.527832
			c4.5219727,0.1889648,7.581543,2.1879883,5.5092773,10.1044922
			C94.6337891,182.0947266,91.684082,173.6845703,90.3920898,171.4174805z"/>
		<path fill="#FFFFFF" d="M101.8129883,175.6772461c0.1831055,1.6274414,0.9023438,4.168457-1.456543,3.9858398
			c-2.3525391-0.1767578-0.9077148-4.3515625-0.9077148-4.3515625s-3.4130859,5.0400391-5.253418,3.809082
			c-1.6274414-1.0908203,0.5483398-5.0703125,0.5483398-5.0703125"/>
		<path fill="#FFFFFF" d="M38.3828125,131.6391602c0,0-3.6323242,1.1611328-4.284668,2.9921875
			c-0.6396484,1.8286133,0.871582,1.8286133-0.2070312,3.4375C32.8125,139.6713867,36.456543,138.0444336,38.3828125,131.6391602z"
			/>
		<path fill="#FFFFFF" d="M42.1245117,135.1435547c0,0,5.5947266,1.6577148,6.1738281,0.8959961
			c0.5664062-0.7680664-0.4023438-1.7036133-3.2910156-2.0571289
			C42.1186523,133.6230469,42.1245117,135.1435547,42.1245117,135.1435547z"/>
		<path fill="#FFFFFF" d="M48.1826172,137.1425781c0,0-5.8754883,2.6933594-5.8994141-0.609375
			C42.2587891,133.5009766,47.5483398,134.5981445,48.1826172,137.1425781z"/>
		<path fill="#FFFFFF" d="M46.0917969,136.2890625c0,0.7680664-0.621582,1.3896484-1.3955078,1.3896484
			c-0.7675781,0-1.3896484-0.621582-1.3896484-1.3896484c0-0.7675781,0.6220703-1.3891602,1.3896484-1.3891602
			C45.4702148,134.8999023,46.0917969,135.5214844,46.0917969,136.2890625z"/>
		<path fill="#FFFFFF" d="M102.3554688,166.9804688c0,0,1.0908203,7.7885742-0.1889648,9.9643555l1.8222656-0.9506836
			C103.9887695,175.9941406,107.2431641,169.5161133,102.3554688,166.9804688z"/>
		<path fill="#FFFFFF" d="M34.0981445,134.6313477c0,0,1.3833008,0.2714844,1.3833008,0.8168945
			c0,0.5361328-1.7426758,3.4248047-1.590332,2.6206055C34.03125,137.2583008,34.0981445,134.6313477,34.0981445,134.6313477z"/>
		<path fill="#FFFFFF" d="M103.2573242,163.8969727c0,0-18.6606445,0.1826172-21.9272461,1.0844727
			c-3.2607422,0.9082031,9.421875,0.5488281,13.4135742,1.9990234c0,0,4.3515625-1.2675781,6.8867188-1.0908203
			S103.2573242,163.8969727,103.2573242,163.8969727z"/>
		<path fill="#FFFFFF" d="M49.2612305,151.6835938l7.5083008,11.6523438l2.4375,0.487793
			C59.2070312,163.8237305,54.0087891,155.1694336,49.2612305,151.6835938z"/>
		<path fill="#FFFFFF" d="M35.847168,127.2939453c0,0,1.8164062,1.8129883,1.6274414,3.2602539
			C37.2978516,132.0048828,32.9462891,129.4663086,35.847168,127.2939453z"/>
		<path fill="#FFFFFF" d="M54.1489258,130.5541992c0.3657227-0.4448242,3.6323242-0.1826172,2.8945312,0.7285156
			C56.324707,132.1875,51.0712891,134.3632812,54.1489258,130.5541992z"/>
		<polygon fill="#FFFFFF" points="57.78125,132.7299805 59.9443359,135.6308594 59.4082031,137.6176758 54.8740234,137.8007812 
			54.331543,135.6308594 55.7758789,132.5473633 		"/>
		<polygon fill="#FFFFFF" points="57.78125,133.7661133 59.359375,135.862793 58.9575195,137.3071289 55.6845703,137.4472656 
			55.2822266,135.862793 56.3369141,133.6352539 		"/>
		<path fill="#FFFFFF" d="M45.6289062,126.0229492c-0.609375,1.9716797,2.3583984,1.9931641,2.7241211,3.6264648
			c0.359375,1.6333008,9.0561523,0.359375,7.0634766-0.9082031
			C53.4233398,127.4736328,46.5371094,123.1220703,45.6289062,126.0229492z"/>
	</g>
	<polygon fill="#2EB4CA" points="157.40625,106.2436523 157.40625,212.9506836 194.137207,186.6411133 194.137207,83.0517578 	"/>
</g>
<g>
</g>
<g>
</g>
<g>
</g>
<g>
</g>
<g>
</g>
<g>
</g>
</svg>
