<?xml version="1.0" encoding="utf-8"?>
<!-- Generator: Adobe Illustrator 16.0.0, SVG Export Plug-In . SVG Version: 6.00 Build 0)  -->
<!DOCTYPE svg PUBLIC "-//W3C//DTD SVG 1.0//EN" "http://www.w3.org/TR/2001/REC-SVG-20010904/DTD/svg10.dtd">
<svg version="1.0" id="Layer_1" xmlns="http://www.w3.org/2000/svg" xmlns:xlink="http://www.w3.org/1999/xlink" x="0px" y="0px"
	 width="866px" height="473px" viewBox="0 0 866 473" enable-background="new 0 0 866 473" xml:space="preserve">
<g>
	<polygon fill="#929497" points="391.4023438,465.6171875 346.5761719,465.6171875 346.5761719,437.7929688 
		363.5771484,437.7929688 363.5771484,312.5810547 391.4023438,312.5810547 	"/>
</g>
<path fill="#161616" d="M519.7026367,362.4072266c-13.7490234-25.796875-26.2856445-90.9199219-26.2856445-172.6020508
	c0-10.2441406-0.2495117-19.1157227-0.8212891-26.8007812l15.8486328,18.3598633
	c-1.2319336-25.1777344-14.9121094-43.1210938-24.2314453-52.5258789
	c-10.965332-17.581543-33.4482422-15.7915039-76.2270508-16.9458008
	c-69.4794922-1.8837891-196.1503906,14.0209961-221.5024414,1.8203125
	c-10.4873047-5.0488281-16.4926758-13.2138672-22.1181641-22.2875977c0.1547852-0.3671875,0.3134766-0.7275391,0.4526367-1.1264648
	c4.3598633-12.4555664-6.5512695-17.887207-14.4018555-20.1357422c-4.8730469-6.0454102-10.9174805-11.765625-19.3198242-16.5288086
	c-54.5263672-30.940918-62.9765625,5.6699219-67.6777344,7.5537109c0,0-3.4702148-4.7456055-15.5688477-5.5532227
	c-5.2836914-1.4863281-10.7138672-1.1245117-14.4755859,5.5532227
	c-8.4414062,15.0170898,13.1611328,24.4101562,13.1611328,24.4101562s0.7480469-0.7431641,0.4165039,1.3989258
	c-5.5615234,2.684082-12.2905273,6.9008789-14.1665039,12.2148438c-1.2910156,3.6679688-0.9140625,5.9165039-0.2895508,7.7773438
	c-0.1625977,3.40625-0.3969727,7.1132812-0.7089844,9.3056641c-5.5703125,8.1503906-12.5024414,17.0673828-19.9238281,23.7124023
	c-17.8344727,15.9594727,14.0117188,61.065918,46.9453125,52.5698242
	c24.699707-6.3764648,41.3022461-6.5756836,41.3022461-6.5756836s13.0791016,26.3393555,36.5473633,60.1420898
	c29.8632812,42.9970703-2.8168945,114.5429688-6.5756836,127.6757812
	c-3.7592773,13.1513672,35.6865234,34.7451172,45.0795898,8.4589844
	c9.3837891-26.2929688,26.2753906-60.0869141,26.2753906-60.0869141s3.7592773,39.4365234,10.3349609,53.5117188
	c6.5576172,14.0751953,48.8208008,10.3261719,44.1196289-14.0751953
	c-4.6918945-24.4199219-10.3349609-81.6806641,0.9418945-76.9892578c11.2675781,4.6914062,47.8789062,12.2011719,67.5878906,5.625
	c0,0,0.9140625,2.1103516,2.9287109,5.15625c3.1523438,6.1757812,7.6743164,14.5322266,14.5581055,20.7548828
	c-1.3686523,5.3837891-1.5737305,10.9863281,2.2402344,13.5244141c4.1245117,2.7529297,9.7773438-0.5751953,14.8632812-5.2314453
	c3.1079102,0.4423828,6.4794922,0.4501953,10.1474609-0.1044922c0.3535156,4.2001953,2.0961914,7.7822266,6.9082031,8.1533203
	c8.9179688,0.6884766,9.3125-6.1523438,8.512207-13.1806641c3.2460938-1.5634766,6.6611328-3.4902344,10.2641602-5.8408203
	c0,0,0.0219727-0.0439453,0.0600586-0.1220703c0.5356445,5.1142578,4.4526367,43.8066406,1.8237305,57.8203125
	c-2.8164062,15.0166016,28.1601562,27.9873047,36.6108398-1.1240234
	c5.4882812-18.9033203,8.1977539-36.2109375,9.4238281-46.0292969
	c6.2456055,11.1435547,11.8320312,21.2460938,14.9775391,27.2529297c0,0-0.0068359-0.4277344-0.0424805-1.2138672
	c5.378418,12.8027344,11.3383789,26.4667969,16.0112305,35.8046875
	C484.9760742,408.4199219,534.7285156,390.5751953,519.7026367,362.4072266z"/>
<path fill="#6D6E70" d="M667.2685547,56.1611328c-45.6767578,0-82.7041016,37.0268555-82.7041016,82.7050781v97.3862305
	c0,41.3491211,30.3535156,75.6098633,69.9970703,81.7231445v119.5361328H365.0986328V310.9599609h-27.824707v154.3759766
	h345.1118164V317.5449219c38.4462891-7.1074219,67.5791016-40.7890625,67.5791016-81.2924805v-97.3862305
	C749.9648438,93.1879883,712.9365234,56.1611328,667.2685547,56.1611328z"/>
<g>
	<path fill="#404041" d="M343.6591797,316.1044922c0,5.8330078-4.7280273,10.5517578-10.5512695,10.5517578l0,0
		c-5.824707,0-10.5522461-4.71875-10.5522461-10.5517578v-13.6679688c0-5.8339844,4.7275391-10.5517578,10.5522461-10.5517578l0,0
		c5.8232422,0,10.5512695,4.7177734,10.5512695,10.5517578V316.1044922z"/>
</g>
<g>
	<path fill="#262626" d="M403.9467773,320.7421875c0,5.8320312-4.7280273,10.5527344-10.5522461,10.5527344l0,0
		c-5.8237305,0-10.5517578-4.7207031-10.5517578-10.5527344v-13.6689453c0-5.8320312,4.7280273-10.5507812,10.5517578-10.5507812
		l0,0c5.8242188,0,10.5522461,4.71875,10.5522461,10.5507812V320.7421875z"/>
</g>
<path fill="#FFFFFF" d="M706.5693359,218.4003906c-25.7333984,0-40.2070312-15.9599609-62.7236328-15.9599609
	c-15.0078125,0-34.2783203,5.6625977-45.4775391,9.4438477v20.4013672c0,38.3139648,31.0576172,69.3901367,69.3984375,69.3901367
	c38.3232422,0,69.3994141-31.0761719,69.3994141-69.3901367v-21.8886719
	C729.9248047,214.3945312,719.4560547,218.4003906,706.5693359,218.4003906z"/>
<g>
	<polygon fill="#FFFFFF" points="673.9355469,457.0683594 372.199707,457.0683594 372.199707,318.5498047 381.4750977,318.5498047 
		381.4750977,447.7929688 664.6601562,447.7929688 664.6601562,243.4902344 673.9355469,243.4902344 	"/>
</g>
<g>
	<path fill="#6D6E70" d="M396.0400391,339.7900391c0,9.2119141-7.4731445,16.6845703-16.6850586,16.6845703l0,0
		c-9.2202148,0-16.684082-7.4726562-16.684082-16.6845703v-21.6386719c0-9.2109375,7.4638672-16.6845703,16.684082-16.6845703l0,0
		c9.2119141,0,16.6850586,7.4736328,16.6850586,16.6845703V339.7900391z"/>
</g>
<g>
	<polygon fill="#FFFFFF" points="410.6132812,457.3203125 344.1401367,457.3203125 344.1401367,346.3662109 
		353.4145508,346.3662109 353.4145508,448.046875 410.6132812,448.046875 	"/>
</g>
<g>
	<path fill="#58595B" d="M364.4829102,340.6865234c0,9.2119141-7.4633789,16.6835938-16.684082,16.6835938l0,0
		c-9.2119141,0-16.684082-7.4716797-16.684082-16.6835938v-21.6386719c0-9.2109375,7.472168-16.6835938,16.684082-16.6835938l0,0
		c9.2207031,0,16.684082,7.4726562,16.684082,16.6835938V340.6865234z"/>
</g>
<g>
	<path fill="#ED8585" d="M324.9101562,293.0888672c0,0,13.7138672,0.1728516,16.2314453,11.59375
		c0,0,19.8720703-0.8876953,21.5292969,13.46875c0,0,9.3208008-14.0849609,20.171875-14.1669922
		c0,0,8.5322266-7.8066406,14.71875-7.8066406c0,0,0.7695312-20.859375-3.8676758-21.6376953
		C389.0561523,273.7597656,324.9101562,293.0888672,324.9101562,293.0888672z"/>
</g>
<g>
	<path fill="#D45E5F" d="M389.8349609,297.7255859l-11.6030273-13.1416016l1.1230469,16.8828125l-13.4863281,7.8525391
		l-3.097168-10.8232422l-5.3984375,5.4072266l-13.7138672-1.4667969l-0.9780273-8.5771484l-9.5732422-1.9746094
		l-8.1977539,1.2041016c0,0,13.9130859,5.4169922,16.2314453,11.59375
		c2.3183594,6.1777344,12.1459961-3.9765625,21.5292969,13.46875c0,0,10.090332-11.765625,20.171875-14.1669922
		C382.8427734,303.984375,393.7026367,298.5058594,389.8349609,297.7255859z"/>
</g>
<g>
</g>
<g>
</g>
<g>
</g>
<g>
</g>
<g>
</g>
<g>
</g>
</svg>
