<?xml version="1.0" encoding="utf-8"?>
<!-- Generator: Adobe Illustrator 16.0.0, SVG Export Plug-In . SVG Version: 6.00 Build 0)  -->
<!DOCTYPE svg PUBLIC "-//W3C//DTD SVG 1.1//EN" "http://www.w3.org/Graphics/SVG/1.1/DTD/svg11.dtd">
<svg version="1.1" id="Layer_1" xmlns="http://www.w3.org/2000/svg" xmlns:xlink="http://www.w3.org/1999/xlink" x="0px" y="0px"
	 width="765px" height="473px" viewBox="0 0 765 473" enable-background="new 0 0 765 473" xml:space="preserve">
<g>
	<g>
		<polygon fill="#929497" points="396.153,467.018 350.666,467.018 350.666,438.781 367.919,438.781 367.919,311.72 396.153,311.72 
					"/>
	</g>
	<path fill="#190B03" d="M526.351,362.281c-13.952-26.177-26.673-92.264-26.673-175.152c0-10.396-0.253-19.398-0.834-27.197
		l16.083,18.63c-1.251-25.55-15.133-43.758-24.589-53.301c-11.128-17.841-33.943-16.025-77.354-17.197
		c-70.507-1.912-199.051,14.228-224.776,1.848c-10.643-5.124-16.737-13.409-22.446-22.616c0.157-0.373,0.318-0.739,0.459-1.144
		c4.425-12.641-6.649-18.153-14.616-20.435c-4.945-6.135-11.078-11.939-19.604-16.772C76.67,17.547,68.094,54.699,63.324,56.61
		c0,0-3.522-4.816-15.801-5.635c-5.361-1.508-10.871-1.14-14.688,5.635c-8.565,15.24,13.354,24.771,13.354,24.771
		s0.76-0.754,0.423,1.421c-5.643,2.724-12.47,7.002-14.375,12.394c-1.31,3.721-0.928,6.002-0.294,7.891
		c-0.166,3.458-0.403,7.221-0.72,9.447c-5.653,8.271-12.687,17.318-20.218,24.062c-18.098,16.195,14.218,61.968,47.639,53.347
		c25.064-6.471,41.913-6.672,41.913-6.672s13.272,26.728,37.087,61.03c30.304,43.631-2.858,116.235-6.673,129.562
		c-3.814,13.347,36.215,35.259,45.746,8.586c9.522-26.684,26.666-60.977,26.666-60.977s3.813,40.021,10.486,54.304
		c6.654,14.282,49.542,10.478,44.773-14.283c-4.762-24.78-10.489-82.888,0.954-78.128c11.435,4.762,44.036,13.585,64.037,6.912
		c0,0,5.478,0.936,7.521,4.025c3.198,6.268,7.788,14.749,14.774,21.064c-1.39,5.464-1.598,11.149,2.273,13.726
		c4.186,2.793,9.922-0.584,15.082-5.31c3.154,0.449,6.575,0.457,10.298-0.106c0.358,4.263,2.127,7.897,7.01,8.274
		c9.051,0.699,9.45-6.243,8.638-13.376c3.294-1.587,6.76-3.541,10.416-5.927c0,0,0.022-0.045,0.061-0.124
		c0.544,5.186,4.52,44.454,1.852,58.674c-2.858,15.24,28.576,28.402,37.152-1.14c5.569-19.185,8.317-36.748,9.562-46.711
		c6.339,11.309,12.008,21.562,15.199,27.658c0,0-0.007-0.435-0.043-1.232c5.458,12.991,11.506,26.857,16.248,36.333
		C491.11,408.974,541.6,390.866,526.351,362.281z"/>
	<g>
		<polygon fill="#6D6E70" points="691.438,466.732 341.227,466.732 341.227,310.073 369.463,310.073 369.463,438.496 
			663.201,438.496 663.201,76.005 691.438,76.005 		"/>
	</g>
	<g>
		<path fill="#6D6E70" d="M760.016,234.263c0,46.343-37.574,83.917-83.917,83.917l0,0c-46.354,0-83.928-37.574-83.928-83.917
			v-98.826c0-46.353,37.574-83.927,83.928-83.927l0,0c46.343,0,83.917,37.575,83.917,83.927V234.263z"/>
	</g>
	<g>
		<path fill="#FFFFFF" d="M747.027,230.237c0,38.879-31.535,70.415-70.425,70.415l0,0c-38.907,0-70.425-31.536-70.425-70.415
			v-82.926c0-38.898,31.518-70.434,70.425-70.434l0,0c38.89,0,70.425,31.536,70.425,70.434V230.237z"/>
	</g>
	<g>
		<path fill="#6D6E70" d="M596.84,212.901c0,0,32.63-12.95,55.487-12.95c22.851,0,37.538,16.195,63.651,16.195
			c26.105,0,42.438-16.195,42.438-16.195l-6.231-91.988l-57.418-40.837l-58.753,6.48l-31.021,30.783L596.84,212.901z"/>
	</g>
	<g>
		<polygon fill="#FFFFFF" points="682.862,458.34 376.67,458.34 376.67,317.775 386.08,317.775 386.08,448.929 673.451,448.929 
			673.451,241.606 682.862,241.606 		"/>
	</g>
	<g>
		<path fill="#BBBDBF" d="M406.467,335.791c0,10.938-8.87,19.816-19.807,19.816l0,0c-10.956,0-19.816-8.879-19.816-19.816v-25.7
			c0-10.937,8.86-19.815,19.816-19.815l0,0c10.937,0,19.807,8.879,19.807,19.815V335.791z"/>
	</g>
	<g>
		<polygon fill="#FFFFFF" points="415.649,458.599 348.193,458.599 348.193,346.004 357.604,346.004 357.604,449.185 
			415.649,449.185 		"/>
	</g>
	<g>
		<path fill="#A6A8AB" d="M368.994,336.857c0,10.938-8.859,19.816-19.816,19.816l0,0c-10.938,0-19.808-8.879-19.808-19.816v-25.7
			c0-10.937,8.87-19.816,19.808-19.816l0,0c10.957,0,19.816,8.88,19.816,19.816V336.857z"/>
	</g>
	<g>
		<path fill="#ED8585" d="M328.68,291.939c0,0,13.917,0.175,16.471,11.765c0,0,20.166-0.901,21.85,13.668
			c0,0,9.457-14.293,20.469-14.376c0,0,10.146-2.656,16.424-2.656c0,0-0.706-26.435-5.412-27.224
			C393.773,272.324,328.68,291.939,328.68,291.939z"/>
	</g>
	<g>
		<path fill="#D45E5F" d="M399.602,300.652l-16.812-17.344c0,0,5.93,11.968,1.141,17.132c-4.789,5.166-13.686,7.97-13.686,7.97
			s1.875-7.399-3.145-10.983c-5.018-3.586-0.055,2.794-5.478,5.487c-5.423,2.692-9.467,1.388-13.915-1.489
			c-4.451-2.876-0.993-8.704-0.993-8.704l11.333-9.412l-34.413,6.967c0,0,2.95,7.114,8.963,10.064
			c12.417,6.103,24.88-0.67,34.403,17.032c0,0,10.238-11.939,20.469-14.376C387.469,302.996,403.525,301.443,399.602,300.652z"/>
	</g>
</g>
</svg>
