<?xml version="1.0" encoding="utf-8"?>
<!-- Generator: Adobe Illustrator 16.0.0, SVG Export Plug-In . SVG Version: 6.00 Build 0)  -->
<!DOCTYPE svg PUBLIC "-//W3C//DTD SVG 1.1//EN" "http://www.w3.org/Graphics/SVG/1.1/DTD/svg11.dtd">
<svg version="1.1" id="Layer_1" xmlns="http://www.w3.org/2000/svg" xmlns:xlink="http://www.w3.org/1999/xlink" x="0px" y="0px"
	 width="548px" height="284px" viewBox="0 0 548 284" enable-background="new 0 0 548 284" xml:space="preserve">
<g>
	<polygon fill="#E6E7E8" points="533.832,104.32 540.068,127.146 540.068,213.826 522.736,226.204 516.277,123.66 	"/>
	<polygon fill="#FFFFFF" points="449.23,226.204 522.736,226.204 522.736,128.695 533.832,104.32 461.564,104.32 448.988,124.825 	
		"/>
	<polygon fill="#B3C2CE" points="448.651,154.315 522.73,154.315 540.404,143.399 540.062,186.519 523.072,204.535 449.088,204.149 
			"/>
	<polygon fill="#6B7489" points="522.73,154.315 522.73,204.535 540.019,192.158 540.019,143.399 	"/>
	<path fill="#FFFFFF" d="M491.397,178.193c-0.336,1.207-1.431,1.966-2.464,1.68l0,0c-1.033-0.28-1.612-1.494-1.276-2.707l1.724-6.31
		c0.337-1.213,1.444-1.967,2.478-1.686l0,0c1.033,0.286,1.6,1.493,1.269,2.707L491.397,178.193z"/>
	<path fill="#FFFFFF" d="M475.088,174.813c0.067,1.189-0.778,2.204-1.88,2.253l0,0c-1.102,0.056-2.185-3.703-2.246-4.891
		l-0.169-3.354c-0.056-1.188,0.784-2.197,1.886-2.252l0,0c1.103-0.056,2.042,0.865,2.104,2.053L475.088,174.813z"/>
	<path fill="#FFFFFF" d="M482.051,170.184c-0.74,1.02-3.466,3.753-4.076,3.317l0,0c-0.61-0.442-0.504-1.624,0.243-2.651l3.845-5.314
		c0.734-1.021,1.83-1.5,2.44-1.058l0,0c0.609,0.448,0.504,1.636-0.237,2.651L482.051,170.184z"/>
	<path fill="#FFFFFF" d="M481.235,183.974c-0.933,1.288-4.854,4.331-5.794,3.646l0,0c-0.939-0.678-0.946-2.277-0.013-3.56
		l4.843-6.689c0.933-1.288,2.451-1.779,3.385-1.107l0,0c0.939,0.685,0.946,2.278,0.013,3.573L481.235,183.974z"/>
	<path fill="#FFFFFF" d="M501.504,178.236c-0.653,0.903-3.834,3.759-4.742,3.106l0,0c-0.909-0.66-1.107-1.93-0.454-2.825
		l3.409-4.705c0.648-0.908,1.917-1.108,2.82-0.454l0,0c0.902,0.654,1.113,1.917,0.454,2.832L501.504,178.236z"/>
	<path fill="#FFFFFF" d="M484.553,187.621c-0.884-0.678-1.052-1.948-0.374-2.832l0,0c0.679-0.883,1.954-1.058,2.838-0.379
		l4.599,3.553c0.896,0.672,1.052,1.941,0.373,2.831l0,0c-0.679,0.884-1.953,1.052-2.837,0.374L484.553,187.621z"/>
</g>
<g>
	<polygon fill="#E6E7E8" points="128.416,66.172 137.377,99.012 137.377,223.664 112.455,241.475 103.169,94.002 	"/>
	<polygon fill="#FFFFFF" points="6.744,241.475 112.455,241.475 112.455,101.233 128.416,66.172 24.474,66.172 6.389,95.67 	"/>
	<polygon fill="#2BCC3E" points="5.904,138.092 112.447,138.092 137.862,122.392 137.371,184.41 112.939,210.315 6.526,209.756 	"/>
	<polygon fill="#1DB52B" points="112.447,138.092 112.447,210.315 137.309,192.506 137.309,122.392 	"/>
	<path fill="#83FF89" d="M73.996,160.482c-2.104,2.819-5.308,3.99-7.144,2.607c-1.842-1.375-1.624-4.773,0.479-7.591
		c2.109-2.808,5.302-3.977,7.144-2.602C76.317,154.272,76.1,157.669,73.996,160.482z"/>
	<path fill="#83FF89" d="M43.167,169.555c-0.205,3.392-2.166,6.031-4.381,5.899c-2.215-0.136-3.846-2.993-3.647-6.384
		c0.206-3.392,2.16-6.031,4.375-5.894C41.736,163.307,43.366,166.164,43.167,169.555z"/>
	<path fill="#83FF89" d="M79.311,170.246c5.146,1.936,8.308,6.224,7.044,9.591c-1.257,3.378-6.46,4.549-11.619,2.613
		s-8.32-6.23-7.051-9.603C68.949,169.48,74.146,168.311,79.311,170.246z"/>
	<path fill="#83FF89" d="M47.274,169.413c-0.081-5.924,2.988-10.785,6.864-10.834c3.871-0.056,7.088,4.698,7.163,10.635
		c0.087,5.937-2.981,10.785-6.858,10.834C50.566,180.11,47.355,175.343,47.274,169.413z"/>
</g>
<g>
	<polygon fill="#E6E7E8" points="447.09,49.408 457.283,86.715 457.283,228.394 428.956,248.618 418.396,81.027 	"/>
	<polygon fill="#FFFFFF" points="308.814,248.618 428.956,248.618 428.956,89.254 447.09,49.408 328.971,49.408 308.417,82.924 	"/>
	<polygon fill="#DB833B" points="307.862,131.134 428.95,131.134 457.831,113.287 457.271,183.762 429.503,213.216 308.566,212.582 
			"/>
	<polygon fill="#C16827" points="428.95,131.134 428.95,213.216 457.196,192.973 457.196,113.287 	"/>
	<path fill="#FFCF9F" d="M335.885,167.185c0,0,4.822-23.722,20.829-11.045C356.714,156.139,360.951,172.43,335.885,167.185z"/>
	<path fill="#FFCF9F" d="M380.043,169.045c0,0-11.606-32.733,17.438-28.969C397.48,140.077,414.743,156.966,380.043,169.045z"/>
	<path fill="#FFCF9F" d="M352.986,195.878c0,0-11.6-32.727,17.442-28.968C370.428,166.911,387.691,183.806,352.986,195.878z"/>
</g>
<g>
	<polygon fill="#E6E7E8" points="309.182,12.58 322.705,62.109 322.705,250.168 285.105,277.026 271.09,54.554 	"/>
	<polygon fill="#FFFFFF" points="125.628,277.026 285.105,277.026 285.105,65.469 309.182,12.58 152.381,12.58 125.099,57.075 	"/>
	<polygon fill="#FAAF40" points="124.365,121.066 285.092,121.066 323.433,97.38 322.692,190.938 285.833,230.024 125.304,229.184 	
		"/>
	<polygon fill="#F6921E" points="285.092,121.066 285.092,230.024 322.599,203.159 322.599,97.38 	"/>
	<path fill="#F9EC31" d="M167.739,207.018c0,0,12.745-59.28,95.586-55.926c0,0-54.159-0.896-81.777,55.926
		C181.548,207.018,159.718,224.983,167.739,207.018z"/>
	<path fill="#F9EC31" d="M177.36,201.038c0,0-20.736-10.181-13.479-31.246C163.881,169.792,183.583,169.418,177.36,201.038z"/>
	<path fill="#F9EC31" d="M184.709,186.731c0,0-13.305-18.881,3.167-33.878C187.877,152.853,205.345,161.976,184.709,186.731z"/>
	<path fill="#F9EC31" d="M199.401,169.088c0,0-3.995-14.139,9.055-19.658C208.457,149.431,217.013,158.59,199.401,169.088z"/>
	<path fill="#F9EC31" d="M177.192,198.193c0,0,16.055-8.936,26.529,5.352C203.721,203.545,195.045,216.601,177.192,198.193z"/>
	<path fill="#F9EC31" d="M177.976,184.602c0,0,18.986-11.531,32.298,5.252C210.274,189.854,200.385,206.022,177.976,184.602z"/>
	<path fill="#F9EC31" d="M194.859,179.406c0,0,12.962-12.968,26.914-2.116C221.773,177.291,217.019,192.188,194.859,179.406z"/>
	<path fill="#F9EC31" d="M208.313,169.312c0,0,9.247-12.147,21.979-4.76C230.293,164.552,228.034,177.384,208.313,169.312z"/>
	<path fill="#F9EC31" d="M216.441,157.744c0,0-0.392-14.686,13.615-16.828C230.056,140.917,236.093,151.9,216.441,157.744z"/>
	<path fill="#F9EC31" d="M230.18,156.443c0,0,9.796-4.107,14.905,4.786C245.085,161.229,239.254,168.168,230.18,156.443z"/>
</g>
</svg>
