<?xml version="1.0" encoding="utf-8"?>
<!-- Generator: Adobe Illustrator 16.0.0, SVG Export Plug-In . SVG Version: 6.00 Build 0)  -->
<!DOCTYPE svg PUBLIC "-//W3C//DTD SVG 1.0//EN" "http://www.w3.org/TR/2001/REC-SVG-20010904/DTD/svg10.dtd">
<svg version="1.0" id="Layer_1" xmlns="http://www.w3.org/2000/svg" xmlns:xlink="http://www.w3.org/1999/xlink" x="0px" y="0px"
	 width="338px" height="448px" viewBox="0 0 338 448" enable-background="new 0 0 338 448" xml:space="preserve">
<g>
	<polygon fill="#E6E7E8" points="310.5380859,4.5800781 332.9609375,86.7075195 332.9609375,398.5429688 270.6147461,443.0791016 
		247.3769531,74.1806641 	"/>
	<polygon fill="#F1F1F2" points="6.1738281,443.0791016 270.6147461,443.0791016 270.6147461,92.2797852 310.5380859,4.5800781 
		50.534668,4.5800781 5.296875,78.3598633 	"/>
	<polygon fill="#B3C2CE" points="4.0791016,184.4682617 270.59375,184.4682617 334.168457,145.1948242 332.9404297,300.328125 
		271.8222656,365.140625 5.637207,363.7480469 	"/>
	<polygon fill="#6B7489" points="270.59375,184.4682617 270.59375,365.140625 332.7856445,320.5947266 332.7856445,145.1948242 	"/>
	<path fill="#FFFFFF" d="M157.8710938,270.3623047c-1.1972656,4.3652344-5.1699219,7.0791016-8.8945312,6.0576172l0,0
		c-3.7148438-1.0117188-5.7685547-5.3769531-4.5712891-9.7519531l6.2119141-22.7011719
		c1.1967773-4.3647461,5.1796875-7.0786133,8.8945312-6.0673828l0,0c3.7250977,1.0214844,5.7685547,5.3867188,4.5712891,9.7509766
		L157.8710938,270.3623047z"/>
	<path fill="#FFFFFF" d="M99.1982422,258.2070312c0.2167969,4.2714844-2.8173828,7.9140625-6.7792969,8.1103516l0,0
		c-3.9628906,0.2060547-7.8632812-13.3212891-8.0800781-17.6035156l-0.5986328-12.0732422
		c-0.2265625-4.2719727,2.8173828-7.9042969,6.7695312-8.1108398l0,0c3.9726562-0.1958008,7.3676758,3.1162109,7.5742188,7.3989258
		L99.1982422,258.2070312z"/>
	<path fill="#FFFFFF" d="M124.2421875,241.5625c-2.6728516,3.6738281-12.4755859,13.5078125-14.6738281,11.9287109l0,0
		c-2.1875-1.5888672-1.8056641-5.8505859,0.8671875-9.5449219l13.8476562-19.1210938
		c2.6523438-3.6835938,6.5834961-5.3759766,8.7709961-3.7973633l0,0c2.1977539,1.5893555,1.815918,5.871582-0.8564453,9.5454102
		L124.2421875,241.5625z"/>
	<path fill="#FFFFFF" d="M121.3012695,291.1650391c-3.3540039,4.6230469-17.4702148,15.5605469-20.8442383,13.1259766l0,0
		c-3.3740234-2.4560547-3.3945312-8.1933594-0.0410156-12.8261719l17.4282227-24.0644531
		c3.3432617-4.6328125,8.8022461-6.4072266,12.1762695-3.9619141l0,0c3.3740234,2.4453125,3.4052734,8.1826172,0.0410156,12.8164062
		L121.3012695,291.1650391z"/>
	<path fill="#FFFFFF" d="M194.234375,270.5175781c-2.362793,3.25-13.8164062,13.5175781-17.0673828,11.1650391l0,0
		c-3.2607422-2.3632812-3.9931641-6.9140625-1.640625-10.1748047l12.2695312-16.9121094
		c2.3320312-3.2617188,6.8925781-3.9833984,10.1533203-1.6308594l0,0c3.2509766,2.3525391,3.9936523,6.9140625,1.6308594,10.1748047
		L194.234375,270.5175781z"/>
	<path fill="#FFFFFF" d="M133.2294922,304.2910156c-3.1884766-2.4560547-3.7871094-7.0175781-1.3413086-10.1953125l0,0
		c2.4560547-3.1884766,7.0273438-3.796875,10.2158203-1.3515625l16.5512695,12.7539062
		c3.1992188,2.4248047,3.7871094,7.0068359,1.3417969,10.1953125l0,0c-2.4458008,3.1777344-7.0273438,3.796875-10.2158203,1.3408203
		L133.2294922,304.2910156z"/>
</g>
<g>
</g>
<g>
</g>
<g>
</g>
<g>
</g>
<g>
</g>
<g>
</g>
</svg>
