<?xml version="1.0" encoding="utf-8"?>
<!-- Generator: Adobe Illustrator 16.0.0, SVG Export Plug-In . SVG Version: 6.00 Build 0)  -->
<!DOCTYPE svg PUBLIC "-//W3C//DTD SVG 1.0//EN" "http://www.w3.org/TR/2001/REC-SVG-20010904/DTD/svg10.dtd">
<svg version="1.0" id="Layer_1" xmlns="http://www.w3.org/2000/svg" xmlns:xlink="http://www.w3.org/1999/xlink" x="0px" y="0px"
	 width="1227px" height="600px" viewBox="0 0 1227 600" enable-background="new 0 0 1227 600" xml:space="preserve">
<g>
	<path fill="#D0D2D3" d="M1159.9433594,292.7006836c0,117.7192383-95.4267578,213.1567383-213.1552734,213.1567383
		s-213.1572266-95.4375-213.1572266-213.1567383c0-117.7285156,95.4287109-213.1660156,213.1572266-213.1660156
		S1159.9433594,174.972168,1159.9433594,292.7006836z"/>
	<path fill="#D0D2D3" d="M508.1064453,292.690918c0,117.7202148-95.4277344,213.1567383-213.1567383,213.1567383
		c-117.7285156,0-213.1557617-95.4365234-213.1557617-213.1567383c0-117.71875,95.4272461-213.15625,213.1557617-213.15625
		C412.6787109,79.534668,508.1064453,174.972168,508.1064453,292.690918z"/>
	<g>
		<path fill="#70412A" d="M1085.9023438,266.6699219c0,0,9.2119141,8.296875,21.8925781,19.6328125
			c12.6689453,11.3452148,1.4208984,34.2207031-22.7988281,34.2011719
			c-18.1132812-0.0205078-40.6289062,4.2753906-40.6289062,4.2753906s-4.9765625,3.2519531-15.9228516,4.8984375
			c-24.5605469,3.6523438-3.1933594,25.7490234-18.1318359,121.9355469
			c-1.5195312,9.5917969-19.2724609,14.9775391-17.8515625-4.2753906
			c1.4804688-19.7871094-4.9658203-71.2460938-4.9658203-71.2460938s-13.1376953,63.3769531-17.8320312,73.3789062
			c-4.6347656,9.9931641-19.2919922,11.9589844-14.2470703-4.9658203c9.9814453-33.5-5.3564453-83.0205078-13.3720703-79.6904297
			c-7.9941406,3.3310547-52.421875,0.9833984-66.4160156-3.7001953c0,0-9.9804688,11.4130859-31.6210938,23.7216797
			c0,0-11.1708984,29.0214844-9.0175781,64.6347656c0.6523438,10.8496094-13.0683594,16.6728516-19.0683594-4.0019531
			c-5.9990234-20.6933594-6.5927734-58.6347656-6.5927734-58.6347656s-14.0908203,53.8544922-22.0869141,69.8720703
			c-8.0048828,16.0107422-20.1679688,13.5859375-15.6699219-8.6474609
			c9.9921875-49.1601562,4.1787109-69.2890625,3.5556641-127.3212891
			c-0.3115234-29.2148438,11.3359375-54.0380859,60.6904297-55.362793
			c49.3544922-1.3344727,77.703125-7.9858398,108.2138672-4.0019531
			c50.5136719,6.6025391,80.1572266-18.3383789,84.7919922-20.6757812
			c17.1123047-8.5595703,16.2734375-3.5634766,28.7099609-5.2973633c3.5839844-0.5063477,15.3476562-10.6831055,21.3574219,0
			c5.9892578,10.6542969-9.359375,17.3442383-9.359375,17.3442383S1075.9589844,254.7397461,1085.9023438,266.6699219z"/>
		<path fill="#3B2314" d="M1098.2412109,295.4272461c4.5380859-2.8920898-5.9990234-11.3452148-9.3193359-9.3481445
			C1085.5810547,288.0751953,1090.9169922,300.0722656,1098.2412109,295.4272461z"/>
		<path fill="#5B3520" d="M990.6103516,417.421875c0,0,6.4765625-64.7705078-9.5146484-74.1191406
			c-16.0283203-9.3310547-38.3701172,18.1816406-38.3701172,18.1816406S988.2148438,326.6494141,990.6103516,417.421875z"/>
		<path fill="#5B3520" d="M832.6513672,352.7978516c0,0-26.0019531,45.3603516-33.34375,59.3935547
			C799.3076172,412.1914062,799.9697266,366.8017578,832.6513672,352.7978516z"/>
		<path fill="#5B3520" d="M844.0068359,384.8359375c0,0-8.5117188-30.1982422,12.1728516-30.859375
			c20.65625-0.6728516,28.6708984,3.0175781,28.6708984,3.0175781S821.1513672,305.4384766,844.0068359,384.8359375z"/>
		<path fill="#5B3520" d="M1019.7871094,249.8417969c0,0-20.0126953,2.015625-15.3291016,15.3666992
			c4.6552734,13.3129883,22,1.324707,22,1.324707S996.4443359,266.5332031,1019.7871094,249.8417969z"/>
		<path fill="#5B3520" d="M1073.5830078,231.4257812c0,0-7.9755859,3.9931641-8.6572266,10.0024414
			c-0.671875,5.9980469-0.671875,5.9980469-0.671875,5.9980469l-6.7207031-12.0268555
			C1057.5332031,235.3994141,1060.9130859,230.7734375,1073.5830078,231.4257812z"/>
		<path fill="#ED8585" d="M878.5498047,362.4785156c0,0-9.2714844-14.8242188-20.9863281-14.3564453
			c-11.7265625,0.5068359-19.6621094,5.6884766-14.2763672,26.2255859
			C867.5644531,390.203125,875.2089844,368.3583984,878.5498047,362.4785156z"/>
		<path fill="#ED8585" d="M848.9150391,373.5302734c-0.4570312,4.2470703-2.3359375,10.8291016,3.7792969,10.3417969
			c6.0957031-0.4667969,2.3378906-11.2773438,2.3378906-11.2773438s8.8710938,13.0400391,13.6523438,9.8554688
			c4.2363281-2.7949219-1.4121094-13.1464844-1.4121094-13.1464844"/>
		<path fill="#5B3520" d="M1072.8525391,270.3510742c0,0-20.625,6.0957031-22.7382812,3.3007812
			c-2.0947266-2.8237305,1.46875-6.2617188,12.1337891-7.5571289
			C1072.8808594,264.7607422,1072.8525391,270.3510742,1072.8525391,270.3510742z"/>
		<path fill="#E6E7E8" d="M1050.5605469,277.7231445c0,0,21.5908203,9.8842773,21.7070312-2.2495117
			C1072.3466797,264.3222656,1052.8886719,268.3642578,1050.5605469,277.7231445z"/>
		<path fill="#3B2314" d="M1054.7578125,273.2822266c0,2.8144531,2.2900391,5.1123047,5.1123047,5.1123047
			c2.8349609,0,5.1230469-2.2978516,5.1230469-5.1123047c0-2.84375-2.2880859-5.1323242-5.1230469-5.1323242
			C1057.0478516,268.1499023,1054.7578125,270.4384766,1054.7578125,273.2822266z"/>
		<path fill="#D45E5F" d="M850.015625,352.1445312c0,0-1.8505859,21.6298828,2.8056641,29.6542969l-8.8144531,3.5146484
			C844.0068359,385.3134766,832.0097656,361.484375,850.015625,352.1445312z"/>
		<path fill="#5B3520" d="M846.6757812,340.7900391c0,0,68.6855469,0.671875,80.7119141,4.0214844
			c11.9980469,3.3300781-34.6982422,1.9863281-49.3632812,7.3330078c0,0-16.0009766-4.6845703-25.359375-4.0029297
			C843.3544922,348.8232422,846.6757812,340.7900391,846.6757812,340.7900391z"/>
		<path fill="#5B3725" d="M1014.0605469,299.7705078l12.0283203,22.15625l0,0
			C1026.0888672,321.9267578,1010.4482422,335.7148438,1014.0605469,299.7705078z"/>
		<path fill="#5B3725" d="M1072.8808594,235.3994141c0,0-6.6796875,6.6513672-5.9892578,11.9980469
			C1067.5449219,252.7436523,1083.5361328,243.4042969,1072.8808594,235.3994141z"/>
		<path fill="#5B3725" d="M1024.4726562,256.5517578c-1.3544922-1.6757812-13.3535156-0.7011719-10.6845703,2.6391602
			C1016.4765625,262.5307617,1035.8173828,270.5356445,1024.4726562,256.5517578z"/>
		<path fill="#DAC3B3" d="M975.9257812,277.7421875c3.2910156,10.5180664-17.4316406,5.4248047-19.3808594,14.1210938
			c-1.9082031,8.6962891-48.3115234,1.9282227-37.6591797-4.8500977
			C929.4921875,280.2841797,971.0947266,262.296875,975.9257812,277.7421875z"/>
		<path fill="#DAC3B3" d="M902.0683594,319.5117188c-5.0253906,6.3496094-48.0507812-7.9384766-54.1259766-5.5126953
			c-6.0673828,2.4453125,16.3496094-28.9423828,24.8710938-25.2910156
			C881.2949219,292.3598633,909.4404297,310.1816406,902.0683594,319.5117188z"/>
	</g>
	<g>
		<path fill="#3B2314" d="M46.4819336,171.465332c0,0-16.1660156,31.2910156-35.3413086,48.4594727
			c-19.175293,17.1591797,15.0654297,65.6572266,50.4746094,56.5219727
			c26.5566406-6.8554688,44.4077148-7.0698242,44.4077148-7.0698242s14.0620117,28.3193359,39.2944336,64.6640625
			c32.1083984,46.2285156-3.0283203,123.1523438-7.0698242,137.2734375
			c-4.0415039,14.140625,38.3701172,37.3574219,48.46875,9.0957031
			c10.0883789-28.2695312,28.2509766-64.6044922,28.2509766-64.6044922s4.0415039,42.4013672,11.1113281,57.5341797
			c7.0517578,15.1337891,52.4907227,11.1025391,47.4365234-15.1328125
			c-5.0444336-26.2558594-11.1108398-87.8232422,1.0126953-82.7783203
			c12.1157227,5.0458984,51.4780273,13.1191406,72.6689453,6.0488281c0,0,19.1850586,44.4169922,75.7172852,24.2382812
			c0,0-4.0419922,45.4208984-7.0698242,61.5664062c-3.0292969,16.1474609,39.3725586,31.2998047,48.4584961,0
			c9.0859375-31.2988281,11.0917969-58.546875,11.0917969-58.546875s20.1884766,51.3212891,32.3120117,75.5507812
			c12.1157227,24.2294922,65.6088867,5.0439453,49.4526367-25.2421875
			c-14.7832031-27.7353516-28.2612305-97.7548828-28.2612305-185.5771484c0-88.1142578-17.1591797-81.7543945-91.8535156-83.7705078
			c-74.7036133-2.0253906-210.8974609,15.0751953-238.1547852,1.9580078
			c-27.2485352-13.1176758-26.362793-45.78125-59.5512695-64.5952148
			c-58.6259766-33.2680664-67.7119141,6.0957031-72.7661133,8.1210938c-5.0351562,2.0258789-23.2075195-16.1464844-32.3027344,0
			c-9.0761719,16.1464844,14.1503906,26.2456055,14.1503906,26.2456055S50.503418,159.3510742,46.4819336,171.465332z"/>
		<path fill="#28160E" d="M45.390625,248.2348633c-6.8652344-4.3725586,9.0766602-17.1586914,14.1210938-14.1308594
			C64.565918,237.1333008,56.4829102,255.2954102,45.390625,248.2348633z"/>
		<path fill="#28160E" d="M197.8081055,451.1367188c0,0,17.1591797-84.8037109,41.3793945-98.9238281
			c24.2392578-14.140625,34.3276367,18.1708984,34.3276367,18.1708984S249.2954102,331.0117188,197.8081055,451.1367188z"/>
		<path fill="#28160E" d="M440.0737305,357.2578125c0,0,39.362793,68.6367188,50.4643555,89.8378906
			C490.5380859,447.0957031,489.5351562,378.4492188,440.0737305,357.2578125z"/>
		<path fill="#28160E" d="M422.9140625,405.7158203c0,0,12.8745117-45.6835938-18.425293-46.6962891
			c-31.2802734-1.0029297-43.4047852,4.5488281-43.4047852,4.5488281S457.4853516,285.5820312,422.9140625,405.7158203z"/>
		<path fill="#28160E" d="M152.378418,143.2539062c0,0,30.2866211,3.027832,23.2167969,23.2260742
			c-7.0512695,20.1782227-33.3061523,2.0058594-33.3061523,2.0058594S187.7197266,168.4858398,152.378418,143.2539062z"/>
		<path fill="#28160E" d="M42.2841797,129.1811523c0,0,12.0957031,6.0576172,13.1181641,15.1435547
			c1.0126953,9.0859375,1.0126953,9.0859375,1.0126953,9.0859375l10.1572266-18.2304688
			C66.5722656,135.1801758,61.4594727,128.1679688,42.2841797,129.1811523z"/>
		<path fill="#DAC3B3" d="M430.9868164,218.9707031c12.1054688,17.1494141,16.1464844,37.3374023-1.0029297,43.3945312
			c-17.1689453,6.0571289-113.0639648-9.0761719-107.0063477,13.1269531
			c6.0473633,22.2041016-34.3188477,48.4492188-44.4082031,10.0898438
			c-10.0986328-38.3505859,6.0483398-44.4082031,32.3037109-57.5356445
			c26.2348633-13.1274414,14.1298828-21.1904297,62.5791016-16.1464844
			C421.9013672,216.9443359,430.9868164,218.9707031,430.9868164,218.9707031z"/>
		<path fill="#DAC3B3" d="M213.9545898,209.8745117c-42.9951172-11.3061523-83.7802734-16.1464844-52.4902344,18.171875
			c31.2998047,34.3188477,25.2519531,46.4331055,48.46875,35.331543
			c23.1972656-11.1020508,28.2509766-32.3017578,35.3208008-43.4042969
			C252.3149414,208.8720703,233.1303711,214.9189453,213.9545898,209.8745117z"/>
		<path fill="#28160E" d="M509.7138672,199.7851562c0,0,33.3149414,23.2167969,35.3408203,64.6054688l-19.175293-22.2128906
			C525.8793945,242.1777344,514.7680664,206.855957,509.7138672,199.7851562z"/>
		<path fill="#ED8585" d="M347.1967773,380.9609375c0,0,19.9155273-31.7958984,45.0698242-30.7744141
			c25.1645508,1.0322266,42.1777344,12.1738281,30.6474609,56.2705078
			C370.793457,440.4638672,354.3837891,393.6005859,347.1967773,380.9609375z"/>
		<path fill="#ED8585" d="M410.7998047,404.703125c1.0126953,9.0771484,5.0444336,23.2167969-8.0737305,22.2041016
			c-13.1279297-1.0126953-5.0541992-24.2294922-5.0541992-24.2294922s-19.0195312,28.0371094-29.2641602,21.2001953
			c-9.0859375-6.046875,3.0185547-28.2695312,3.0185547-28.2695312"/>
		<path fill="#3B2314" d="M57.4956055,159.4101562c0,0-20.2558594,6.4467773-23.8588867,16.652832
			c-3.59375,10.2055664,4.8208008,10.2055664-1.1972656,19.1450195
			C26.4296875,204.1289062,46.7739258,195.0532227,57.4956055,159.4101562z"/>
		<path fill="#28160E" d="M78.3266602,178.8964844c0,0,32.8286133,11.7451172,37.7460938,9.7089844
			c12.6992188-5.2583008-8.550293-20.8886719-21.1904297-22.4375
			C78.7744141,164.1816406,78.3266602,178.8964844,78.3266602,178.8964844z"/>
		<path fill="#E6E7E8" d="M110.7460938,188.9375c0,0-35.574707,16.2529297-35.7402344-3.7109375
			C74.8598633,166.8598633,106.8891602,173.4912109,110.7460938,188.9375z"/>
		<path fill="#28160E" d="M113.4438477,185.3144531c0,4.284668-3.4765625,7.7514648-7.7612305,7.7514648
			c-4.2851562,0-7.7519531-3.4667969-7.7519531-7.7514648c0-4.2851562,3.4667969-7.7617188,7.7519531-7.7617188
			C109.9672852,177.5527344,113.4438477,181.0292969,113.4438477,185.3144531z"/>
		<path fill="#D45E5F" d="M413.8183594,356.2441406c0,0,6.0668945,43.4052734-1.003418,55.5195312l10.0991211-5.3066406
			C422.9140625,406.4570312,441.0761719,370.3837891,413.8183594,356.2441406z"/>
		<path fill="#28160E" d="M33.6367188,176.0629883c0,0,7.703125,1.5185547,7.703125,4.5375977
			c0,3.0385742-9.7285156,19.1069336-8.9003906,14.6074219C33.2661133,190.699707,33.6367188,176.0629883,33.6367188,176.0629883z"
			/>
		<path fill="#28160E" d="M418.8720703,339.0849609c0,0-103.9584961,1.0126953-122.1303711,6.0566406
			c-18.1723633,5.0449219,52.4902344,3.0302734,74.6845703,11.1025391c0,0,24.2197266-7.0595703,38.3608398-6.0576172
			C423.9169922,351.2001953,418.8720703,339.0849609,418.8720703,339.0849609z"/>
		<path fill="#5B3725" d="M118.0693359,271.0517578l41.8271484,64.9179688l13.5947266,2.7255859
			C173.4912109,338.6953125,144.5483398,290.4702148,118.0693359,271.0517578z"/>
		<path fill="#5B3725" d="M43.3647461,135.1801758c0,0,10.0996094,10.0888672,9.0766602,18.1723633
			C51.4384766,161.4257812,27.2192383,147.2949219,43.3647461,135.1801758z"/>
		<path fill="#5B3725" d="M145.3173828,153.3525391c2.0166016-2.4833984,20.1879883-1.0131836,16.1469727,4.03125
			C157.4228516,162.4287109,128.1489258,174.5527344,145.3173828,153.3525391z"/>
		<polygon fill="#FAAF40" points="165.5053711,165.4672852 177.6206055,181.6132812 174.5917969,192.715332 
			149.3588867,193.7280273 146.3212891,181.6132812 154.4038086,164.4541016 		"/>
		<polygon fill="#ED8B25" points="165.5444336,171.2519531 174.3188477,182.9379883 172.1181641,190.9824219 
			153.8481445,191.7124023 151.6577148,182.9379883 157.5,170.5112305 		"/>
		<path fill="#DAC3B3" d="M97.8818359,128.1103516c-3.4379883,10.9853516,13.1176758,11.1113281,15.1328125,20.1972656
			c2.0263672,9.0761719,50.4750977,2.0063477,39.3637695-5.0537109
			C141.2758789,136.1933594,102.9165039,111.9638672,97.8818359,128.1103516z"/>
	</g>
	<path fill="#231F20" d="M912.5576172,299.5371094C912.5576172,134.1088867,778.4472656,0,613.0205078,0
		C447.5917969,0,313.4824219,134.1088867,313.4824219,299.5371094c0,165.4277344,134.109375,299.5371094,299.5380859,299.5371094
		C778.4472656,599.0742188,912.5576172,464.9648438,912.5576172,299.5371094z"/>
	<path fill="#C1B49A" d="M799.3076172,122.6616211c0,30.6713867-24.8525391,55.5336914-55.5292969,55.5336914
		c-30.6572266,0-55.5283203-24.8623047-55.5283203-55.5336914c0-30.6665039,24.8710938-55.5288086,55.5283203-55.5288086
		C774.4550781,67.1328125,799.3076172,91.9951172,799.3076172,122.6616211z"/>
	<g>
		<path fill="#0C0B0B" d="M910.8134766,260.4956055c-20.2167969,1.0712891-42.9765625,4.0219727-74.0996094,4.859375
			c-49.3554688,1.324707-61.0019531,26.1479492-60.6914062,55.3637695
			c0.6240234,58.0322266,6.4375,78.1621094-3.5546875,127.3212891c-4.4990234,22.2324219,7.6640625,24.6572266,15.6699219,8.6474609
			c5.4140625-10.8388672,13.6035156-38.9736328,18.3378906-56.0556641c1.2451172-2.2382812,2.5703125-4.625,3.953125-7.0888672
			c0.4677734,11.8232422,1.9482422,36.578125,6.3886719,51.90625c5.9980469,20.6748047,19.7207031,14.8515625,19.0683594,4.0019531
			c-2.0449219-33.8203125,7.9072266-61.6455078,8.9199219-64.3613281c0.0488281,0.1074219,0.0976562,0.2050781,0.0976562,0.2050781
			l5.5419922-2.2099609c0.671875,0.5732422,1.6640625,0.8847656,3.1435547,0.7685547
			c2.4160156-0.1865234,3.2636719-2.015625,3.4287109-4.1396484c1.8505859,0.2832031,3.5839844,0.3212891,5.1523438,0.0888672
			c2.5410156,2.3173828,5.3457031,4.0019531,7.4111328,2.6289062c1.9179688-1.2666016,1.7724609-4.0810547,1.0810547-6.7783203
			c4.6933594-4.2460938,7.2255859-10.4492188,8.7832031-13.1953125c0,0-0.1455078-0.234375-0.4277344-0.6533203
			c6.5136719,1.6953125,16.9746094,3.0195312,27.6279297,3.7890625c4.5371094-20.7441406,7.0009766-42.2548828,7.0009766-64.3623047
			C913.6464844,287.402832,912.625,273.828125,910.8134766,260.4956055z"/>
		<path fill="#0C0B0B" d="M347.1967773,381.4775391c0,0,1.0039062,2.2197266,3.0581055,5.3662109
			c3.3984375,6.6601562,8.3364258,15.6982422,15.8251953,22.4560547c-1.4804688,5.8037109-1.7822266,11.8417969,2.3276367,14.578125
			c4.449707,2.9707031,10.546875-0.6416016,16.0292969-5.6669922c3.3305664,0.4667969,6.9824219,0.3994141,10.9077148-0.1943359
			c0.3598633,4.5654297,2.1708984,8.4912109,7.3813477,8.890625c9.6210938,0.7402344,10.0014648-6.6708984,9.125-14.2578125
			c3.4960938-1.6748047,7.1191406-3.6220703,10.9946289-6.1542969c-0.5253906,5.84375-4.1972656,45.8300781-7.0014648,60.7871094
			c-3.0292969,16.1474609,39.3725586,31.2998047,48.4584961,0c5.9111328-20.3525391,8.8134766-38.9433594,10.1279297-49.4902344
			c6.7197266,11.9785156,12.7280273,22.8457031,16.1074219,29.3037109c0,0-0.0195312-0.5449219-0.0488281-1.3251953
			c5.784668,13.7705078,12.1928711,28.4658203,17.2172852,38.515625
			c12.1157227,24.2294922,65.6088867,5.0439453,49.4526367-25.2421875
			c-14.7832031-27.7353516-28.2612305-97.7548828-28.2612305-185.5771484c0-11.0136719-0.262207-20.5527344-0.8857422-28.815918
			l17.0424805,19.7397461c-1.34375-27.3452148-16.3027344-46.6962891-26.3237305-56.7216797
			c-11.8706055-18.5371094-35.9736328-16.7407227-81.6865234-17.9726562
			c-28.3779297-0.769043-65.628418,1.222168-102.409668,3.2675781
			c-12.972168,33.5249023-20.1586914,69.9267578-20.1586914,108.0341797c0,28.8945312,4.1772461,56.7939453,11.8027344,83.2255859
			C334.0014648,384.203125,341.3056641,383.4443359,347.1967773,381.4775391z"/>
	</g>
	<path fill="#9A8479" d="M789.4628906,109.5097656c0,9.9282227-8.0449219,17.9726562-17.9697266,17.9726562
		c-9.9130859,0-17.9658203-8.0444336-17.9658203-17.9726562c0-9.9189453,8.0527344-17.9682617,17.9658203-17.9682617
		C781.4179688,91.5415039,789.4628906,99.5908203,789.4628906,109.5097656z"/>
	<path fill="#9A8479" d="M741.1972656,97.5019531c0,4.1870117-3.3886719,7.5766602-7.5664062,7.5766602
		s-7.5664062-3.3896484-7.5664062-7.5766602c0-4.1777344,3.3886719-7.5668945,7.5664062-7.5668945
		S741.1972656,93.3242188,741.1972656,97.5019531z"/>
	<path fill="#9A8479" d="M713.2089844,126.3574219c0,4.8740234-3.9443359,8.8227539-8.8134766,8.8227539
		c-4.8603516,0-8.8144531-3.9487305-8.8144531-8.8227539c0-4.8647461,3.9541016-8.8134766,8.8144531-8.8134766
		C709.2646484,117.5439453,713.2089844,121.4926758,713.2089844,126.3574219z"/>
</g>
</svg>
