<?xml version="1.0" encoding="utf-8"?>
<!-- Generator: Adobe Illustrator 16.0.0, SVG Export Plug-In . SVG Version: 6.00 Build 0)  -->
<!DOCTYPE svg PUBLIC "-//W3C//DTD SVG 1.0//EN" "http://www.w3.org/TR/2001/REC-SVG-20010904/DTD/svg10.dtd">
<svg version="1.0" id="Layer_1" xmlns="http://www.w3.org/2000/svg" xmlns:xlink="http://www.w3.org/1999/xlink" x="0px" y="0px"
	 width="866px" height="473px" viewBox="0 0 866 473" enable-background="new 0 0 866 473" xml:space="preserve">
<path fill="#D0D2D3" d="M387.5175781,232.4785156c0,90.0195312-72.9726562,162.9980469-162.9980469,162.9980469
	S61.5214844,322.4980469,61.5214844,232.4785156c0-90.0180664,72.9726562-162.9970703,162.9980469-162.9970703
	S387.5175781,142.4604492,387.5175781,232.4785156z"/>
<path fill="#D0D2D3" d="M860.3662109,226.7597656c0,85.8476562-69.5839844,155.4316406-155.4326172,155.4316406
	c-85.8466797,0-155.4311523-69.5839844-155.4311523-155.4316406c0-85.8481445,69.5844727-155.4321289,155.4311523-155.4321289
	C790.7822266,71.3276367,860.3662109,140.9116211,860.3662109,226.7597656z"/>
<g>
	<path fill="#70412A" d="M829.3496094,212.4018555c0,0,7.0449219,6.3452148,16.7402344,15.0126953
		c9.6884766,8.6762695,1.0878906,26.1694336-17.4335938,26.1538086
		c-13.8505859-0.0146484-31.0673828,3.2695312-31.0673828,3.2695312s-3.8056641,2.4863281-12.1767578,3.7460938
		c-18.7802734,2.7919922-2.4423828,19.6884766-13.8652344,93.2421875
		c-1.1611328,7.3359375-14.7373047,11.453125-13.6503906-3.2695312c1.1318359-15.1308594-3.7978516-54.4814453-3.7978516-54.4814453
		s-10.0449219,48.4648438-13.6347656,56.1132812c-3.5449219,7.6396484-14.7519531,9.1435547-10.8945312-3.7988281
		c7.6318359-25.6171875-4.0966797-63.484375-10.2255859-60.9375c-6.1142578,2.5458984-40.0869141,0.7519531-50.7880859-2.8291016
		c0,0-7.6318359,8.7265625-24.1796875,18.1396484c0,0-8.5419922,22.1914062-6.8964844,49.4257812
		c0.4990234,8.2949219-9.9931641,12.7480469-14.5800781-3.0615234c-4.5878906-15.8251953-5.0419922-44.8378906-5.0419922-44.8378906
		s-10.7753906,41.1816406-16.8896484,53.4316406c-6.1201172,12.2431641-15.4228516,10.3886719-11.9824219-6.6123047
		c7.6416016-37.5917969,3.1943359-52.984375,2.71875-97.3603516c-0.2382812-22.3417969,8.6679688-41.3237305,46.4082031-42.3364258
		c37.7412109-1.0205078,59.4199219-6.1064453,82.7509766-3.0605469
		c38.6279297,5.0488281,61.2949219-14.0151367,64.8398438-15.8022461
		c13.0849609-6.5463867,12.4443359-2.7255859,21.9541016-4.0512695c2.7402344-0.387207,11.7353516-8.1694336,16.3310547,0
		c4.5800781,8.1464844-7.1572266,13.2626953-7.1572266,13.2626953S821.7460938,203.2797852,829.3496094,212.4018555z"/>
	<path fill="#3B2314" d="M838.7851562,234.3935547c3.4697266-2.2124023-4.5878906-8.6762695-7.1269531-7.1494141
		C829.1044922,228.7705078,833.1845703,237.9448242,838.7851562,234.3935547z"/>
	<path fill="#5B3520" d="M756.4824219,327.6796875c0,0,4.9521484-49.5283203-7.2763672-56.6777344
		c-12.2578125-7.1347656-29.3408203,13.9033203-29.3408203,13.9033203S754.6494141,258.2685547,756.4824219,327.6796875z"/>
	<path fill="#5B3520" d="M635.6923828,278.2617188c0,0-19.8828125,34.6875-25.4970703,45.4199219
		C610.1953125,323.6816406,610.7001953,288.9716797,635.6923828,278.2617188z"/>
	<path fill="#5B3520" d="M644.3759766,302.7626953c0,0-6.5087891-23.0927734,9.3085938-23.5986328
		c15.7958984-0.5136719,21.9238281,2.3085938,21.9238281,2.3085938S626.8984375,242.0478516,644.3759766,302.7626953z"/>
	<path fill="#5B3520" d="M778.7929688,199.5415039c0,0-15.3046875,1.5415039-11.7216797,11.7436523
		c3.5595703,10.1806641,16.8222656,1.0126953,16.8222656,1.0126953S760.9423828,212.2978516,778.7929688,199.5415039z"/>
	<path fill="#5B3520" d="M819.9296875,185.4594727c0,0-6.0996094,3.0527344-6.6210938,7.6479492
		c-0.5136719,4.5869141-0.5136719,4.5869141-0.5136719,4.5869141l-5.1376953-9.1967773
		C807.6572266,188.4975586,810.2402344,184.9604492,819.9296875,185.4594727z"/>
	<path fill="#ED8585" d="M670.7890625,285.6650391c0,0-7.0878906-11.3349609-16.046875-10.9765625
		c-8.9658203,0.3857422-15.0351562,4.3476562-10.9169922,20.0537109
		C662.390625,306.8662109,668.2363281,290.1621094,670.7890625,285.6650391z"/>
	<path fill="#ED8585" d="M648.1289062,294.1171875c-0.3496094,3.2470703-1.7871094,8.28125,2.890625,7.9091797
		c4.6611328-0.3583984,1.7861328-8.6240234,1.7861328-8.6240234s6.7841797,9.9716797,10.4404297,7.5361328
		c3.2402344-2.1376953-1.0791016-10.0537109-1.0791016-10.0537109"/>
	<path fill="#5B3520" d="M819.3710938,215.2167969c0,0-15.7724609,4.6625977-17.3886719,2.5249023
		c-1.6015625-2.1601562,1.125-4.7885742,9.2783203-5.7788086
		C819.3925781,210.9423828,819.3710938,215.2167969,819.3710938,215.2167969z"/>
	<path fill="#E6E7E8" d="M802.3242188,220.8535156c0,0,16.5097656,7.559082,16.5996094-1.7197266
		C818.9833984,210.6069336,804.1044922,213.6977539,802.3242188,220.8535156z"/>
	<path fill="#3B2314" d="M805.5341797,217.4589844c0,2.1513672,1.75,3.9086914,3.9101562,3.9086914
		c2.1669922,0,3.9169922-1.7573242,3.9169922-3.9086914c0-2.1748047-1.75-3.925293-3.9169922-3.925293
		C807.2841797,213.5336914,805.5341797,215.2841797,805.5341797,217.4589844z"/>
	<path fill="#D45E5F" d="M648.9697266,277.7636719c0,0-1.4130859,16.5390625,2.1455078,22.6757812l-6.7392578,2.6875
		C644.3759766,303.1269531,635.2011719,284.9052734,648.9697266,277.7636719z"/>
	<path fill="#5B3520" d="M646.4160156,269.0810547c0,0,52.5234375,0.5136719,61.7197266,3.0742188
		c9.1748047,2.5478516-26.5322266,1.5205078-37.7470703,5.6083984c0,0-12.2363281-3.5830078-19.3925781-3.0605469
		C643.8769531,275.2236328,646.4160156,269.0810547,646.4160156,269.0810547z"/>
	<path fill="#5B3725" d="M774.4140625,237.7143555l9.1962891,16.9418945l0,0
		C783.6103516,254.65625,771.6513672,265.2001953,774.4140625,237.7143555z"/>
	<path fill="#5B3725" d="M819.3925781,188.4975586c0,0-5.1083984,5.0864258-4.5800781,9.1743164
		C815.3115234,201.7602539,827.5400391,194.6186523,819.3925781,188.4975586z"/>
	<path fill="#5B3725" d="M782.3740234,204.6645508c-1.0341797-1.2802734-10.2089844-0.5361328-8.1689453,2.0180664
		C776.2607422,209.2373047,791.0498047,215.3588867,782.3740234,204.6645508z"/>
	<path fill="#DAC3B3" d="M745.2519531,220.8686523c2.5166016,8.0429688-13.3300781,4.1479492-14.8193359,10.7988281
		c-1.4599609,6.6494141-36.9443359,1.4741211-28.796875-3.7089844
		C709.7451172,222.8129883,741.5585938,209.0581055,745.2519531,220.8686523z"/>
	<path fill="#DAC3B3" d="M688.7744141,252.8095703c-3.8417969,4.8554688-36.7421875-6.0703125-41.3896484-4.2158203
		c-4.6396484,1.8691406,12.5019531-22.1323242,19.0185547-19.3388672
		C672.8896484,232.046875,694.4111328,245.6748047,688.7744141,252.8095703z"/>
</g>
<g>
	<path fill="#3B2314" d="M34.519043,139.7797852c0,0-12.3618164,23.9272461-27.0249023,37.0556641
		c-14.6625977,13.121582,11.5205078,50.2070312,38.5976562,43.2216797c20.3076172-5.2421875,33.9580078-5.40625,33.9580078-5.40625
		s10.7529297,21.6552734,30.0483398,49.4477539c24.5522461,35.3496094-2.3164062,94.1738281-5.4072266,104.9716797
		c-3.0898438,10.8125,29.3413086,28.5654297,37.0639648,6.9550781
		c7.7148438-21.6181641,21.6035156-49.4023438,21.6035156-49.4023438s3.0898438,32.4238281,8.4970703,43.9960938
		c5.3911133,11.5722656,40.1381836,8.4902344,36.2734375-11.5722656c-3.8579102-20.0771484-8.4970703-67.15625,0.7744141-63.2988281
		c9.2636719,3.8583984,39.3647461,10.03125,55.5688477,4.6240234c0,0,14.6699219,33.9658203,57.8999023,18.5351562
		c0,0-3.0908203,34.7333984-5.4067383,47.0800781s30.1079102,23.9345703,37.0556641,0
		c6.9482422-23.9345703,8.4819336-44.7714844,8.4819336-44.7714844s15.4375,39.2451172,24.7089844,57.7734375
		c9.2641602,18.5283203,50.1704102,3.8574219,37.8154297-19.3017578
		c-11.3041992-21.2099609-21.6108398-74.7519531-21.6108398-141.9086914c0-67.3798828-13.1210938-62.5166016-70.2392578-64.0585938
		c-57.125-1.5488281-161.2705078,11.5283203-182.1142578,1.4970703
		c-20.8359375-10.03125-20.1586914-35.0078125-45.5375977-49.3950195
		c-44.8305664-25.4389648-51.7783203,4.6616211-55.6430664,6.2099609c-3.8505859,1.5493164-17.7460938-12.3466797-24.7016602,0
		c-6.9404297,12.3476562,10.8208008,20.0698242,10.8208008,20.0698242S37.5947266,130.515625,34.519043,139.7797852z"/>
	<path fill="#28160E" d="M33.6850586,198.4838867c-5.25-3.3442383,6.9404297-13.121582,10.7978516-10.8056641
		C48.3481445,189.9941406,42.1674805,203.8833008,33.6850586,198.4838867z"/>
	<path fill="#28160E" d="M150.2368164,353.640625c0,0,13.121582-64.8486328,31.6416016-75.6464844
		c18.5356445-10.8134766,26.2504883,13.8964844,26.2504883,13.8964844S189.6083984,261.7822266,150.2368164,353.640625z"/>
	<path fill="#28160E" d="M335.4931641,281.8515625c0,0,30.1005859,52.4863281,38.5898438,68.6982422
		C374.0830078,350.5498047,373.315918,298.0556641,335.4931641,281.8515625z"/>
	<path fill="#28160E" d="M322.3720703,318.9072266c0,0,9.8447266-34.9326172-14.0898438-35.7080078
		c-23.9194336-0.7666016-33.1904297,3.4785156-33.1904297,3.4785156S348.8081055,227.0424805,322.3720703,318.9072266z"/>
	<path fill="#28160E" d="M115.496582,118.2060547c0,0,23.1601562,2.315918,17.7539062,17.7607422
		c-5.3920898,15.4301758-25.46875,1.5341797-25.46875,1.5341797S142.5214844,137.5009766,115.496582,118.2060547z"/>
	<path fill="#28160E" d="M31.3095703,107.4453125c0,0,9.2490234,4.6318359,10.0307617,11.5795898
		c0.7749023,6.9482422,0.7749023,6.9482422,0.7749023,6.9482422l7.7670898-13.940918
		C49.8823242,112.0322266,45.972168,106.6708984,31.3095703,107.4453125z"/>
	<path fill="#DAC3B3" d="M328.5454102,176.105957c9.2563477,13.1137695,12.3466797,28.5512695-0.7670898,33.1835938
		c-13.1289062,4.6323242-86.4589844-6.9404297-81.8266602,10.0375977
		c4.6245117,16.9790039-26.2431641,37.0488281-33.9580078,7.715332c-7.7226562-29.3256836,4.625-33.9575195,24.7016602-43.9960938
		c20.0615234-10.0380859,10.8056641-16.2045898,47.8540039-12.3466797
		C321.5976562,174.5566406,328.5454102,176.105957,328.5454102,176.105957z"/>
	<path fill="#DAC3B3" d="M162.5834961,169.1503906c-32.8779297-8.6455078-64.065918-12.347168-40.1386719,13.8959961
		c23.934082,26.2431641,19.3100586,35.5063477,37.0629883,27.0170898
		c17.7387695-8.4892578,21.6035156-24.7011719,27.0102539-33.1904297
		C191.9169922,168.3833008,177.246582,173.0083008,162.5834961,169.1503906z"/>
	<path fill="#28160E" d="M388.7460938,161.4355469c0,0,25.4760742,17.7529297,27.0244141,49.402832l-14.6625977-16.9863281
		C401.1079102,193.8520508,392.6108398,166.8417969,388.7460938,161.4355469z"/>
	<path fill="#ED8585" d="M264.472168,299.9765625c0,0,15.2290039-24.3134766,34.4643555-23.53125
		c19.2431641,0.7890625,32.2524414,9.3085938,23.4355469,43.0292969
		C282.5161133,345.4785156,269.9677734,309.6435547,264.472168,299.9765625z"/>
	<path fill="#ED8585" d="M313.1079102,318.1328125c0.7744141,6.9404297,3.8574219,17.7529297-6.1733398,16.9794922
		c-10.0385742-0.7744141-3.8652344-18.5283203-3.8652344-18.5283203s-14.543457,21.4394531-22.3779297,16.2128906
		C273.7436523,328.171875,283,311.1777344,283,311.1777344"/>
	<path fill="#3B2314" d="M42.9418945,130.5605469c0,0-15.4897461,4.9296875-18.2451172,12.734375
		c-2.7480469,7.8046875,3.6860352,7.8046875-0.9160156,14.640625
		C19.1860352,164.7563477,34.7426758,157.815918,42.9418945,130.5605469z"/>
	<path fill="#28160E" d="M58.8706055,145.4619141c0,0,25.1035156,8.980957,28.8642578,7.4243164
		c9.7109375-4.0214844-6.5385742-15.9736328-16.2045898-17.1577148
		C59.2128906,134.2099609,58.8706055,145.4619141,58.8706055,145.4619141z"/>
	<path fill="#E6E7E8" d="M83.6611328,153.1396484c0,0-27.2036133,12.4287109-27.3300781-2.8374023
		C56.2192383,136.2573242,80.7124023,141.3291016,83.6611328,153.1396484z"/>
	<path fill="#28160E" d="M85.7241211,150.3691406c0,3.2768555-2.6586914,5.9277344-5.9350586,5.9277344
		c-3.2768555,0-5.9282227-2.6508789-5.9282227-5.9277344c0-3.2763672,2.6513672-5.9350586,5.9282227-5.9350586
		C83.0654297,144.434082,85.7241211,147.0927734,85.7241211,150.3691406z"/>
	<path fill="#D45E5F" d="M315.4165039,281.0771484c0,0,4.6391602,33.1914062-0.7670898,42.4550781l7.7226562-4.0576172
		C322.3720703,319.4746094,336.2602539,291.890625,315.4165039,281.0771484z"/>
	<path fill="#28160E" d="M24.6967773,143.2949219c0,0,5.8901367,1.1616211,5.8901367,3.4702148
		c0,2.3237305-7.4394531,14.6108398-6.8061523,11.1704102C24.4135742,154.4873047,24.6967773,143.2949219,24.6967773,143.2949219z"
		/>
	<path fill="#28160E" d="M319.28125,267.9560547c0,0-79.4956055,0.7753906-93.3916016,4.6318359
		c-13.8959961,3.8574219,40.1386719,2.3164062,57.1103516,8.4892578c0,0,18.5209961-5.3994141,29.3334961-4.6318359
		C323.1391602,277.2197266,319.28125,267.9560547,319.28125,267.9560547z"/>
	<path fill="#5B3725" d="M89.2612305,215.9326172l31.9848633,49.640625l10.3955078,2.0849609
		C131.6416016,267.6582031,109.5092773,230.78125,89.2612305,215.9326172z"/>
	<path fill="#5B3725" d="M32.1362305,112.0322266c0,0,7.722168,7.7158203,6.9404297,13.8964844
		C38.3095703,132.1020508,19.7895508,121.2963867,32.1362305,112.0322266z"/>
	<path fill="#5B3725" d="M110.0981445,125.9287109c1.5415039-1.8994141,15.4370117-0.7744141,12.3466797,3.0825195
		C119.3544922,132.8691406,96.9692383,142.140625,110.0981445,125.9287109z"/>
	<polygon fill="#FAAF40" points="125.5351562,135.1928711 134.7993164,147.5395508 132.4833984,156.0292969 
		113.1879883,156.8032227 110.8652344,147.5395508 117.0458984,134.4179688 	"/>
	<polygon fill="#ED8B25" points="125.5654297,139.6162109 132.2749023,148.5522461 130.5913086,154.7036133 116.621582,155.262207 
		114.9458008,148.5522461 119.4135742,139.050293 	"/>
	<path fill="#DAC3B3" d="M73.8242188,106.6259766c-2.6289062,8.3999023,10.0307617,8.4970703,11.5722656,15.4448242
		c1.5488281,6.9404297,38.597168,1.5341797,30.1000977-3.8647461
		C107.0073242,112.8076172,77.6738281,94.2792969,73.8242188,106.6259766z"/>
</g>
<path fill="#231F20" d="M697.6289062,238.8305664c0,126.5229492-102.5732422,229.0893555-229.0893555,229.0893555
	c-126.5224609,0-229.0888672-102.5664062-229.0888672-229.0893555c0-126.5219727,102.5664062-229.0883789,229.0888672-229.0883789
	C595.0556641,9.7421875,697.6289062,112.3085938,697.6289062,238.8305664z"/>
<path fill="#F1F1F2" d="M668.3994141,239.9775391c0,110.3779297-89.4824219,199.859375-199.8598633,199.859375
	c-110.3779297,0-199.8603516-89.4814453-199.8603516-199.859375c0-110.3999023,89.4824219-199.8818359,199.8603516-199.8818359
	C578.9169922,40.0957031,668.3994141,129.5776367,668.3994141,239.9775391z"/>
<g>
</g>
<g>
</g>
<g>
</g>
<g>
</g>
<g>
</g>
<g>
</g>
</svg>
