<?xml version="1.0" encoding="utf-8"?>
<!-- Generator: Adobe Illustrator 16.0.0, SVG Export Plug-In . SVG Version: 6.00 Build 0)  -->
<!DOCTYPE svg PUBLIC "-//W3C//DTD SVG 1.1//EN" "http://www.w3.org/Graphics/SVG/1.1/DTD/svg11.dtd">
<svg version="1.1" id="Layer_1" xmlns="http://www.w3.org/2000/svg" xmlns:xlink="http://www.w3.org/1999/xlink" x="0px" y="0px"
	 width="495px" height="327.5px" viewBox="0 0 495 327.5" enable-background="new 0 0 495 327.5" xml:space="preserve">
<g>
	<g>
		<g>
			<path fill="#00A551" d="M483.254,56.171c0,0-6.016,13.593-1.582,24.776c4.439,11.176,3.319,21.12,3.319,21.12
				s-15.273-1.394-19.867-0.371c0,0-1.247-17.276-2.731-23.333c-1.478-6.058-3.838-19.979,1.093-27.066L483.254,56.171z"/>
			<path fill="#007A34" d="M479.928,57.677c0,0-6.036,13.585-1.582,24.776c4.439,11.184,3.305,21.127,3.305,21.127
				s-15.266-1.4-19.859-0.371c0,0-1.254-17.29-2.731-23.34c-1.484-6.064-3.831-19.979,1.093-27.059L479.928,57.677z"/>
			<path fill="#00A551" d="M485.922,61.171c0,0-6.029,13.586-1.589,24.77c4.446,11.19,3.326,21.12,3.326,21.12
				s-15.28-1.394-19.874-0.357c0,0-1.247-17.283-2.731-23.348c-1.478-6.064-3.83-19.972,1.1-27.052L485.922,61.171z"/>
			<path fill="#009345" d="M482.575,62.677c0,0-6.009,13.592-1.576,24.769c4.433,11.198,3.312,21.134,3.312,21.134
				s-15.266-1.4-19.867-0.378c0,0-1.239-17.262-2.724-23.333c-1.484-6.064-3.838-19.972,1.092-27.066L482.575,62.677z"/>
			<g>
				<path fill="#3B2314" d="M371.649,94.651c0,0-19.713-2.248-20.882-22.815c-1.19-20.567-12.213-32.759,1.162-45.694
					c9.132-8.837,15.658,3.858,24.812-8.291c6.513-8.663,51.541-7.486,53.781,4.496c2.255,11.982,14.16,24.804-8.123,24.524
					c-22.269-0.294-33.467,17.745-33.467,17.745L371.649,94.651z"/>
				<path fill="#E0A589" d="M445.572,85.842c-7.157-24.223-8.348-42.094-30.904-49.727c-22.549-7.633-59.979,4.993-55.729,27.85
					c4.237,22.879,6.625,40.624,37.99,46.275C428.268,115.892,449.528,99.288,445.572,85.842z"/>
				<path fill="#E0A589" d="M361.594,58.874c0,0-17.486-6.954-16.813,3.803c0.672,10.729,0.875,26.001,19.391,15.343
					C382.665,67.368,361.594,58.874,361.594,58.874z"/>
				<path fill="#F1F1F2" d="M436.818,76.332c-0.581-1.484-42.634-14.062-42.963-2.206C393.526,86.003,445.096,97.103,436.818,76.332
					z"/>
				<path fill="#C88364" d="M406.44,50.471c-5.938-18.046-21.408-1.702-18.096,3.858C391.664,59.883,409.893,60.94,406.44,50.471z"
					/>
				<path fill="#C88364" d="M435.103,60.751c0,0-2.64-16.709-7.661-11.051C422.399,55.324,423.408,63.986,435.103,60.751z"/>
				<path fill="#E0A589" d="M388.331,105.009c0,0,12.191,20.147,11.484,29.342c-0.693,9.181,12.311,19.671,17.023,0.554
					c4.706-19.118-10.861-29.706-10.861-29.706L388.331,105.009z"/>
				<path fill="#E0A589" d="M413.1,114.225c0,0,25.945,31.338,52.822,17.689c9.454-4.804,12.479-15.273,13.277-23.733
					c0,0,5.428,0.07,5.477-1.03c0.154-5.252-1.197-11.226-1.197-11.226s-25.799,4.048-25.574-11.715
					c0.224-13.474,5.973-13.614,18.067-16.352c7.906-1.778,15.182,8.915,16.337,15.967c1.205,7.262-1.057,10.68-1.057,10.68
					s6.849,33.389-17.83,49.146c-27.682,17.668-45.399,4.93-45.399,4.93s5.89,39.405-5.511,68.817
					c-11.415,29.405-19.805,44.503-19.805,44.503s20.483,13.873,10.337,17.115c-10.161,3.187-22.78-2.507-24.027-12.178
					c-1.281-9.664,16.94-20.252,14.041-46.436c-2.906-26.198-24.391,27.255-21.148,43.641c3.229,16.395-17.948,13.782-19.468,5.085
					c-1.485-8.677,5.14-3.936,9.755-14.216c4.622-10.309,3.929-68.705,12.381-103.005c0,0-24.097,38.753-27.731,53.467
					c0,0-2.374,20.21-9.496,17.409c-7.114-2.787-10.651-7.304-0.308-21.905c10.35-14.608,6.827-40.414,47.458-85.001L413.1,114.225z
					"/>
				<path fill="#F1F1F2" d="M403.568,51.577c-1.352-1.492-9.811-6.569-15.882,5.441C387.687,57.019,413.4,62.312,403.568,51.577z"/>
				<path fill="#F1F1F2" d="M434.948,61.388c0,0-4.201-12.472-10.427-4.132C424.521,57.256,425.158,63.146,434.948,61.388z"/>
				<path fill="#3B2314" d="M399.213,31.283c3.193,0.182-30.309,11.233-24.006,32.01c0,0-5.133-2.29-6.498-7.304
					c-1.373-5.035-4.356,17.64-0.421,24.853c3.95,7.199-13.711-3.375-9.643-26.295C362.749,31.64,379.262,29.994,399.213,31.283z"/>
				<path fill="#3B2314" d="M395.502,53.748c-0.561,2.297,0.847,4.615,3.137,5.175c2.312,0.574,4.636-0.826,5.196-3.116
					c0.567-2.311-0.841-4.629-3.145-5.196C398.394,50.043,396.068,51.444,395.502,53.748z"/>
				<path fill="#3B2314" d="M426.986,58.377c-0.378,1.575,0.567,3.13,2.122,3.522c1.562,0.378,3.116-0.561,3.516-2.129
					c0.371-1.555-0.567-3.138-2.129-3.509C428.934,55.877,427.371,56.829,426.986,58.377z"/>
				<path fill="#C88364" d="M424.515,53.111c0,0,4.691,12.591,2.856,13.683c-1.827,1.121-11.015,0.414-10.161-3.018
					C418.051,60.345,425.299,66.815,424.515,53.111z"/>
				<path fill="#58595B" d="M430.635,199.113c0,0,4.489,21.897-10.126,43.264l-12.557,15.098l10.785,0.567l-10.75,7.745
					l-18.025-4.958c0,0,16.317-28.193,11.968-46.422c0,0-17.71,14.867-18.844,40.575c0,0-13.18,7.143-14.812-1.044
					c0,0,6.162-24.993,8.138-58.306C377.861,170.766,430.635,199.113,430.635,199.113z"/>
				<path fill="#404041" d="M415.663,114.337c0,0-6.492,9.223-23.047-1.611L365.2,137.761l12.444,25.427l6.933-11.281
					c0,0-7.283,15.028-9.048,36.744c-1.303,15.812-0.826,9.685-0.826,9.685s30.967,34.664,58.642,4.573c0,0,9.139-11.8-1.526-50.798
					l4.3,1.582l1.016-25.224L415.663,114.337z"/>
				<path fill="#DB8E72" d="M412.707,111.528l2.956,2.809c0,0-2.851,8.137-13.312,5.56c-10.295-2.535-10.077-9.762-10.077-9.762
					l-15.945-7.045c0,0-20.49-18.053,2.527-8.214c0,0,36.191,17.759,48.04,13.914L412.707,111.528z"/>
				<path fill="#DB8E72" d="M453.863,73.083c1.478,3.312,2.893,8.543,7.71,3.095c4.825-5.456,1.604-7.92-2.262-9.496
					C455.453,65.155,451.882,68.727,453.863,73.083z"/>
				<path fill="#DB8E72" d="M461.608,92.396c0,0,24.377,2.367,28.039-1.933C493.311,86.15,486.153,106.752,461.608,92.396z"/>
				<polygon fill="#DB8E72" points="436.938,133.524 443.688,152.656 436.496,152.313 				"/>
				<path fill="#231F20" d="M424.06,133.048c0,0,12.955,31.779,12.633,43.649c-0.329,11.884,1.568,29.496-13.229,34.692
					C408.66,216.592,436.37,192.72,424.06,133.048z"/>
				<path fill="#404047" d="M377.294,208.861l7.29,12.703l-5.042-0.729l1.274,11.758l-4.775-3.774l0.987,10.638l-5.603,3.83
					C371.426,243.287,373.526,211.557,377.294,208.861z"/>
				<polygon fill="#404047" points="404.283,257.607 393.982,255.066 400.67,240.598 				"/>
				<path fill="#DB8E72" d="M362.441,269.128c-0.582-2.171,4.656-1.976,4.656-1.976l0.869,4.902l3.305-2.836l2.584,4.293
					l4.405,1.078C378.261,274.59,366.055,281.978,362.441,269.128z"/>
				<path fill="#DB8E72" d="M391.706,270.619c0,0,13.249,7.416,16.793,5.693c3.543-1.723,6.239-4.174,5.399-0.749
					c-0.854,3.452-2.431,5.644-7.83,4.32C400.677,278.554,389.893,275.906,391.706,270.619z"/>
				<path fill="#DB8E72" d="M370.354,148.398l7.29,14.79l-5.735,10.532C371.909,173.721,366.832,156.368,370.354,148.398z"/>
			</g>
			<path fill="#231F20" d="M389.962,260.829c0,0-5.714,5.497-1.197,10.841c4.517,5.35,15.757,12.29,23.677,9.783
				c7.92-2.508,9.349-8.579,4.867-9.776c-4.468-1.197-9.496-5.812-10.428-6.681C405.95,264.135,395.984,260.878,389.962,260.829z"/>
			<path fill="#231F20" d="M381.776,256.25c0,0,0.77,8.018,1.911,11.127c1.135,3.116-2.794,10.693-10.378,10.182
				c-7.599-0.518-13.312-2.794-12.675-8.872c0.63-6.071,4.698-7.654,7.079-8.929c2.389-1.268,3.145-2.395,3.145-2.395
				S378.162,255.199,381.776,256.25z"/>
		</g>
		<path fill="#00A551" d="M418.59,124.974c-1.135-0.245-5.932-8.109-5.932-8.109l-6.968,1.358l-4.461,10.049l11.611,6.604
			L418.59,124.974z"/>
		<polygon fill="#00A551" points="421.496,192.426 430.48,170.45 413.177,127.033 407.463,127.747 402,173.476 		"/>
		<path fill="#9D1D20" d="M484.241,100.401c0,0,0.792,5.315,0.435,6.75c-0.364,1.429-8.704,1.016-13.368,0.896
			c-4.671-0.126-6.863,0.154-6.863,0.154l-0.847-9.769c0,0,2.821,3.817,7.43,4.923c4.601,1.106,4.342-3.138,7.227-2.605
			C481.133,101.283,481.854,102.684,484.241,100.401z"/>
		<path fill="#9D1D20" d="M486.734,92.404c0.07,1.274-0.924,2.367-2.213,2.451c-1.31,0.077-3.291-0.728-3.368-2.01
			c-0.077-1.281,1.786-2.542,3.088-2.619C485.537,90.148,486.657,91.122,486.734,92.404z"/>
		<path fill="#9D1D20" d="M479.557,93.993c0.035,0.645-2.01,1.282-2.486,1.303c-0.469,0.028-0.882-0.462-0.917-1.106
			c-0.042-0.637,0.309-1.177,0.777-1.205C477.399,92.964,479.515,93.356,479.557,93.993z"/>
		<path fill="#9D1D20" d="M483.863,86.956c0.057,0.826-0.588,1.527-1.436,1.576c-0.848,0.056-3.319,1.029-3.368,0.203
			c-0.042-0.819,2.339-3.116,3.187-3.172C483.093,85.52,483.814,86.136,483.863,86.956z"/>
	</g>
	<g>
		<g>
			<g>
				<path fill="#AE2627" d="M129.134,105.331c-20.596,7.787-27.857,12.542-30.217,17.696c-6.464,14.083,37.738-4.475,23.403,4.083
					c-14.37,8.585-24.601,10.406-37.864,13.795c-13.25,3.396-8.467,14.902,21.247,9.923c29.748-4.965,37.83-8.949,13.326,1.884
					C94.54,163.553,94.54,163.553,92.95,176.074c-1.036,8.305,2.927,11.555,13.187,17.29c10.231,5.728,16.66,4.131,33.187,2.759
					c18.593-1.534,0,0,27.255-1.079c27.22-1.079,21.842,15.07,61.359-0.063c39.545-15.14,12.276-4.097,50.876-22.171
					c38.593-18.074,61.33-2.724,62.248-21.317c0.91-18.585-25.876-8.046-30.512-18.831l49.111,3.306
					c9.293-7.612-17.815-15.561-39.511-18.04c-26.659-3.032-33.473-2.402-38.606-8.137c-10.062-11.247,30.295-12.641-8.823-21.961
					c-19.174-4.559-36.639-6.331-59.048-4.896c-22.507,1.443-40.413,3.361-54.545,8.404
					C140.92,97.831,129.134,105.331,129.134,105.331z"/>
			</g>
		</g>
		<path fill="#C43037" d="M269.618,172.475c-4.901,2.304-17.927,8.515-25.995,10.308c-8.067,1.793-30.476,0.448-12.997-8.067
			c17.479-8.516,12.997,1.792,28.236-11.205c15.237-12.997,11.652-9.86,16.134-14.79c4.482-4.93,16.135-12.549,17.479-1.793
			C293.82,157.685,277.237,168.889,269.618,172.475z"/>
		<path fill="#C43037" d="M239.142,88.664c9.153,2.178,15.686-2.689,25.995,0.448c10.308,3.138,23.754,4.93,15.687,7.619
			c-8.067,2.689-14.342-2.241-10.757,5.826c3.586,8.067,10.309,11.205-0.896,12.549c-11.204,1.344-27.157-6.555-38.004-11.344
			c-10.847-4.79-20.708-13.306-11.295-15.099C229.282,86.872,229.73,86.423,239.142,88.664z"/>
		<path fill="#C43037" d="M121.718,115.107c5.826-3.585,10.308-8.515,17.031-9.86s12.101-6.274,7.619,0.896
			s-11.205,8.963-5.378,11.652c5.827,2.689,13.894-1.345,16.135,14.79s-2.689,24.202,2.689,31.373
			c5.378,7.171,21.064,14.342-0.896,10.308s-29.132-2.241-33.165-11.653c-4.034-9.412-41.681-27.787-5.827-47.059"/>
		<path fill="#8C1B23" d="M258.092,147.131l9.965-1.8c1.471-4.334,1.884-9.181,0.974-14.188
			c-1.667-9.321-24.973-24.426-24.973-24.426C234.492,93.916,228,91.515,228,91.515s-1.492-0.729-4.622-4.629
			c-3.417-4.237-8.803-6.086-11.282-6.653c-6.828-1.582-13.27-3.172-23.936,1.114c-4.958,1.996-26.94,12.388-30.098,20.063
			l-0.624,2.108l-0.56,4.033l3.411,2.115l4.783,9.32l4.615,18.964l-2.094,12.647l6.274,17.332
			c11.338-1.086,24.321-3.754,24.321-3.754s23.445-4.11,41.989-2.171c9.769,1.016,17.626-2.262,22.746-7.871
			C266.474,149.155,258.092,147.131,258.092,147.131z"/>
		<path fill="#700A16" d="M255.753,128.854c4.817-2.724-5.554-11.989-9.076-10.126C243.133,120.604,247.966,133.224,255.753,128.854
			z"/>
		<path fill="#700A16" d="M191.13,90.716c0,0-17.752,10.666-7.521,21.037c10.168,10.343,21.058-8.425,21.058-8.425
			S176.719,116.5,191.13,90.716z"/>
		<path fill="#700A16" d="M238.827,105.779c0,0-21.373-1.506-23.277-3.054c-1.87-1.568,2.031-2.297,12.927-0.756
			C239.331,103.482,238.827,105.779,238.827,105.779z"/>
		<path fill="#700A16" d="M176.004,138.286l11.155,23.432l0,0C187.16,161.718,170.325,175.044,176.004,138.286z"/>
		<path fill="#700A16" d="M197.629,101.493c2.227,0.168,9.909-9.552,5.532-9.881C198.742,91.29,179.148,100.219,197.629,101.493z"/>
		<polygon fill="#FAAF40" points="182.587,102.376 198.959,115.17 198.924,127.026 174.113,134.792 167.86,123.566 171.291,104.344 
					"/>
		<polygon fill="#ED8B25" points="184.184,108.111 196.04,117.383 195.997,125.961 178.042,131.592 173.518,123.447 175.99,109.533 
					"/>
		<path fill="#700A16" d="M258.406,147.068l9.65-1.737c1.373-6.204-32.052-10.539-44.195-0.938
			C223.862,144.393,249.569,140.457,258.406,147.068C259.905,142.558,258.406,147.068,258.406,147.068z"/>
		<path fill="#77121A" d="M158.063,101.409c0,0,1.562-6.19,5.119-6.036c1.373,0.056-3.466,8.179-2.297,8.823
			c4.167,2.367,0,0,0.638,4.573c0.637,4.559,1.19,7.997,4.573,6.87c3.375-1.141,3.375-1.141,3.375-1.141l-1.611,9.068l6.253,11.226
			l4.293-0.952c0,0-6.093,3.032-6.169,9.622c-0.077,6.59-2.402,4.937-2.192,9.699c0.196,4.762,6.344,11.891,7.017,11.982
			c0.666,0.091,15.932-5.119,22.612-4.601c6.688,0.504,14.293,1.673,14.293,1.673s-31.121,7.024-40.099,5.715
			c0,0-9.125-15.133-9.86-20.084c-0.728-4.937,3.445-5.805,3.403-7.654s1.24-6.52,1.24-6.52s-5.511-7.78-6.674-9.776
			c-1.177-1.975,1.954-5.952-1.142-6.716c-3.081-0.784-4.3-2.962-5.091-1.555c-0.777,1.394-1.079,0.056-0.658-4.629
			c0.42-4.685,1.071-5.035-3.383-3.704C147.257,108.594,158.063,101.409,158.063,101.409z"/>
		<path fill="#8C1B23" d="M192.314,124.757c-1.127,2.024-1.289,5.455-8.53,4.993c-7.234-0.462-7.206-5.189-6.197-8.319
			C178.602,118.293,194.009,121.696,192.314,124.757z"/>
		<path fill="#8C1B23" d="M172.846,111.689c2.486,1.555,4.118,2.269,2.199,3.172C173.133,115.765,170.353,110.121,172.846,111.689z"
			/>
		<path fill="#8C1B23" d="M173.518,118.58c0.595-0.917,2.983,2.57,0.35,2.871C171.242,121.753,172.328,120.408,173.518,118.58z"/>
		<path fill="#8C1B23" d="M191.095,127.25c2.998,0.539,5.147,1.429,5.147,1.429l-14.391,4.496
			C181.852,133.174,187.321,126.57,191.095,127.25z"/>
	</g>
	<g>
		<g>
			<path fill="#00A551" d="M22.782,37.655c0,0,4.524,14.538-1.316,25.393c-5.84,10.861-5.861,21.113-5.861,21.113
				s15.708,0.378,20.259,1.961c0,0,3.298-17.43,5.532-23.41c2.22-6.009,6.26-19.889,2.08-27.683L22.782,37.655z"/>
			<path fill="#007A34" d="M25.989,39.581c0,0,4.531,14.545-1.316,25.406c-5.833,10.861-5.862,21.1-5.862,21.1
				s15.708,0.386,20.259,1.982c0,0,3.312-17.451,5.532-23.438c2.234-5.987,6.261-19.874,2.073-27.668L25.989,39.581z"/>
			<path fill="#00A551" d="M19.483,42.424c0,0,4.524,14.545-1.31,25.407c-5.847,10.854-5.882,21.1-5.882,21.1
				s15.714,0.392,20.273,1.975c0,0,3.298-17.438,5.532-23.432c2.22-6.001,6.26-19.881,2.08-27.668L19.483,42.424z"/>
			<path fill="#009345" d="M22.705,44.364c0,0,4.51,14.531-1.316,25.385c-5.84,10.869-5.868,21.114-5.868,21.114
				s15.7,0.378,20.259,1.968c0,0,3.298-17.43,5.518-23.432c2.241-5.987,6.274-19.867,2.087-27.668L22.705,44.364z"/>
			<g>
				<path fill="#E6E7E8" d="M131.816,89.98c0,0,20.329,0.057,23.95-20.735c3.627-20.798,16.289-31.905,4.208-46.646
					c-8.25-10.07-16.4,2.086-24.272-11.366c-5.616-9.58-51.583-13.697-55.273-1.771c-3.697,11.933-17.325,23.564,5.378,25.911
					c22.689,2.332,31.961,22.01,31.961,22.01L131.816,89.98z"/>
				<path fill="#E0A589" d="M62.208,73.713c6.155-39.881,8.879-43.264,32.738-48.368c23.845-5.112,60.441,12.149,53.417,34.916
					c-7.002,22.78-11.526,40.561-44.111,42.612C71.683,104.925,59.589,90.702,62.208,73.713z"/>
				<path fill="#E0A589" d="M146.27,54.756c0,0,18.614-5,16.66,5.861c-1.954,10.84-11.505,19.909-21.534,13.333
					C123.104,61.948,146.27,54.756,146.27,54.756z"/>
				<path fill="#F1F1F2" d="M68.945,66.388c0.903-1.366,45.693-5.147,43.537,6.807C110.324,85.17,56.284,85.471,68.945,66.388z"/>
				<path fill="#C88364" d="M101.62,40.926c1.015-15.581,28.438,4.307,17.955,6.058C113.042,48.083,100.877,52.193,101.62,40.926z"
					/>
				<path fill="#C88364" d="M71.242,47.999c0,0,4.664-16.688,9.104-10.336C84.806,43.972,82.754,52.677,71.242,47.999z"/>
				<path fill="#E0A589" d="M113.609,98.56c0,0-14.776,19.068-15.14,28.508c-0.378,9.426-14.86,18.564-17.395-1.443
					C78.545,105.611,95.64,96.668,95.64,96.668L113.609,98.56z"/>
				<path fill="#E0A589" d="M87.327,105.016c0,0-30.105,28.824-55.848,11.765c-9.055-5.994-10.896-17.01-10.714-25.714
					c0,0-5.525-0.567-5.441-1.695c0.455-5.364,2.542-11.275,2.542-11.275s25.771,7.157,27.395-8.914
					c1.38-13.733-4.46-14.552-16.442-18.768c-7.843-2.745-16.513,7.283-18.516,14.328c-2.08,7.241-0.182,10.988-0.182,10.988
					s-10.91,33.159,12.353,52.108c26.079,21.247,45.61,10.386,45.61,10.386s-10.645,39.397-2.507,70.673
					c8.137,31.274,14.888,47.619,14.888,47.619s-22.472,11.716-12.528,16.205c9.958,4.432,23.481,0.125,25.883-9.56
					c2.451-9.692-14.839-22.605-8.803-48.915c6.043-26.31,21.597,30.617,16.373,46.912c-5.217,16.303,16.639,16.148,19.209,7.479
					c2.528-8.663-4.769-4.622-8.25-15.624c-3.494-11.036,4.111-70.385-0.448-106.289c0,0,19.951,42.283,21.905,57.683
					c0,0,0.042,20.848,7.619,18.845c7.563-1.996,11.702-6.184,2.892-22.262c-8.81-16.086-2.171-41.927-38.257-92.095L87.327,105.016
					z"/>
				<path fill="#F1F1F2" d="M104.414,42.39c1.555-1.352,10.756-5.525,15.525,7.409C119.939,49.798,93.14,52.158,104.414,42.39z"/>
				<path fill="#F1F1F2" d="M71.326,48.678c0,0,5.742-12.206,11.092-2.983C82.418,45.694,81.081,51.612,71.326,48.678z"/>
				<path fill="#F05A28" d="M111.207,24.98c-3.264-0.203,26.337,10.679,18.487,56.254c0,0,7.661-22.57,9.65-27.521
					c1.996-4.951,2.346,18.474-2.514,25.344c-4.874,6.855,14.356-1.821,12.92-25.617C148.287,29.645,131.669,26.017,111.207,24.98z"
					/>
				<path fill="#262261" d="M112.369,45.555c0.301,2.402-1.407,4.587-3.81,4.888c-2.416,0.322-4.615-1.379-4.916-3.781
					c-0.308-2.416,1.401-4.608,3.81-4.909C109.855,41.444,112.061,43.139,112.369,45.555z"/>
				<path fill="#262261" d="M79.778,46.549c0.203,1.646-0.945,3.124-2.57,3.327c-1.632,0.203-3.109-0.938-3.319-2.577
					c-0.203-1.631,0.945-3.116,2.563-3.319C78.09,43.769,79.568,44.924,79.778,46.549z"/>
				<path fill="#C88364" d="M82.916,41.479c0,0-9.209,15.617-7.479,16.947c1.723,1.345,9.615,2.367,9.167-1.219
					C84.127,53.615,80.492,55.331,82.916,41.479z"/>
				<path fill="#929497" d="M59.463,189.337c0,0-7.157,21.744,5.196,45.211l5.168,9.517l-5.217,6.646l10.035,9.153l18.921-2.928
					c0,0-13.277-30.616-6.702-48.656c0,0,16.282,17.22,14.384,43.523c0,0,12.584,8.816,15.196,0.686c0,0-3.319-26.169-1.386-60.301
					C116.515,166.704,59.463,189.337,59.463,189.337z"/>
				<path fill="#D0D2D3" d="M84.694,104.834c0,0,5.525,10.14,23.649,1.071l24.951,28.712l-15.666,24.412l-5.729-12.304
					c0,0,5.638,16.163,4.867,38.46c-0.532,16.253-0.294,9.958-0.294,9.958s-35.603,31.625-60.218-2.276
					c0,0-7.913-13.075,7.542-51.506l-4.552,1.1l1.94-25.791L84.694,104.834z"/>
				<path fill="#DB8E72" d="M88.042,102.32l-3.348,2.514c0,0,1.947,8.62,12.899,7.22c10.771-1.358,11.408-8.739,11.408-8.739
					l17.059-5.287c0,0,22.983-15.953-1.611-8.663c0,0-38.922,13.803-50.519,8.502L88.042,102.32z"/>
				<path fill="#DB8E72" d="M50.695,58.342c-1.905,3.193-3.964,8.34-8.208,2.241c-4.258-6.121-0.7-8.257,3.417-9.398
					C50.009,50.085,53.223,54.14,50.695,58.342z"/>
				<path fill="#DB8E72" d="M40.527,77.067c0,0-25.084-0.455-28.298-5.266C9.007,66.99,13.86,88.797,40.527,77.067z"/>
				<polygon fill="#DB8E72" points="60.793,121.844 51.662,140.513 59.015,141.011 				"/>
				<path fill="#BBBDBF" d="M73.952,122.873c0,0-16.94,30.812-18.004,42.935c-1.071,12.129-5.084,29.832,9.363,36.87
					C79.757,209.708,54.386,182.152,73.952,122.873z"/>
				<path fill="#BBBDBF" d="M103.329,139.407c0,0,7.696,33.369,2.724,49.335C101.074,204.757,133.014,153.826,103.329,139.407z"/>
				<path fill="#DB8E72" d="M120.598,268.638c0.847-2.144-4.51-2.563-4.51-2.563l-1.457,4.889l-3.04-3.285l-3.123,4.062
					l-4.615,0.581C103.854,272.321,115.401,281.285,120.598,268.638z"/>
				<path fill="#DB8E72" d="M90.632,266.697c0,0-14.356,5.98-17.752,3.81c-3.403-2.171-5.854-4.993-5.406-1.4
					c0.462,3.614,1.807,6.029,7.451,5.315C80.569,273.707,91.858,272.286,90.632,266.697z"/>
				<path fill="#DB8E72" d="M126.788,144.834l-9.16,14.195l4.594,11.401C122.222,170.43,129.428,153.371,126.788,144.834z"/>
			</g>
			<path fill="#404041" d="M93.566,256.936c0,0,5.168,6.268-0.063,11.177c-5.231,4.916-17.486,10.645-25.252,7.164
				c-7.759-3.495-8.495-9.832-3.796-10.519c4.699-0.7,10.351-4.804,11.408-5.574C76.914,258.406,87.432,256.284,93.566,256.936z"/>
			<path fill="#404041" d="M102.432,253.245c0,0-1.715,8.067-3.242,11.1c-1.527,3.025,1.569,11.204,9.356,11.583
				c7.773,0.363,13.873-1.268,13.942-7.535c0.07-6.247-3.879-8.348-6.162-9.916c-2.269-1.59-2.914-2.815-2.914-2.815
				S106.235,252.594,102.432,253.245z"/>
		</g>
		<path fill="#D0D2D3" d="M70.198,112.859c0,0-26.702,12.773-35.54,3.2c-8.852-9.559-10.624-13.824-11.303-19.762L3.559,95.863
			c0,0-1.24,30.987,21.064,41.17c22.304,10.182,39.174,4.327,39.174,4.327L70.198,112.859z"/>
		<path fill="#D0D2D3" d="M122.299,122.789c0,0,25.007,18.166,27.206,66.667c0,0-12.647,16.163-21.05,6.653
			c0,0-6.723-28.278-14.076-43.088L122.299,122.789z"/>
		<path fill="#D0D2D3" d="M95.177,7.424c7.493,9.027,18.208,2.515,26.163,7.914c7.962,5.413,5.679,5.609,23.894,8.116
			c18.208,2.5,18.208,2.5,11.093-6.415C147.104,5.463,85.247-4.516,95.177,7.424z"/>
		<path fill="#AE2627" d="M15.52,90.863c0,0,12.941,0.147,17.297,1.541s2.962,0.427,2.962,0.427s0.266-5.021,1.505-8.046
			c1.24-3.011-2.57-1.19-5.792-0.644c-3.214,0.532-6.681-0.757-8.41-1.401c-1.73-0.644-2.612,0.133-5.049,0.785
			c-2.43,0.637-3.179,4.146-3.179,4.146L15.52,90.863z"/>
		<path fill="#8C1B23" d="M116.487,134.315c2.808,6.513-0.511,8.509-2.332,4.699C112.327,135.198,115.059,130.996,116.487,134.315z"
			/>
		<path fill="#AE2627" d="M92.334,136.557c-3.795-0.707-2.619-4.811,0.203-5.84C95.366,129.673,98.511,137.698,92.334,136.557z"/>
		<path fill="#8C1B23" d="M76.921,117.222c1.008,4.741,4.398,5.007,5.196,1.94c0.798-3.06,0.945-4.398,1.148-6.184
			C83.469,111.199,76.333,114.449,76.921,117.222z"/>
		<path fill="#AE2627" d="M55.107,142.726c0,0-20.154,2.689-32.563-7.276c-12.402-9.972-1.177-5.553,0.112-4.958
			c1.289,0.603,5.49-0.729,8.361,1.849c2.864,2.584-2.283,4.251,7.066,5.309c9.356,1.057,11.583,1.302,15.54,2.206
			C57.579,140.751,61.935,142.138,55.107,142.726z"/>
		<path fill="#8C1B23" d="M60.66,133.427c2.556,2.675-4.804,2.619-4.804,2.619S58.237,130.898,60.66,133.427z"/>
		<path fill="#AE2627" d="M40.429,128.896c4.916,1.394,1.323,4.202-0.456,4.006C38.188,132.698,37.803,128.146,40.429,128.896z"/>
		<path fill="#8C1B23" d="M85.485,121.347c2.227,0.007,2.409,2.528-0.413,3.564C82.257,125.947,81.417,121.34,85.485,121.347z"/>
		<path fill="#AE2627" d="M51.5,134.652c2.08,0.854-2.08,2.472-3.816,1.828C45.954,135.835,48.482,133.412,51.5,134.652z"/>
		<path fill="#8C1B23" d="M15.324,89.372c0,0,15.679-7.367,20.456,3.459c0,0-14.839-0.938-20.259-1.968"/>
	</g>
	<g>
		<path fill="#77121A" d="M247.909,290.711c-0.791-29.776,24.384-25.771,72.298-41.479c47.913-15.721,23.138-54.307,60.336-51.303
			c37.207,3.019,100.387,69.503,13.124,93.103C306.397,314.625,249.598,354.275,247.909,290.711z"/>
		<path fill="#9D1D20" d="M256.572,294.758c-16.058-25.112,1.568-40.21,49.481-55.932c47.899-15.714,23.124-54.314,60.323-51.303
			c37.227,3.019,119.35,60.82,32.087,84.42C311.201,295.528,286.698,341.873,256.572,294.758z"/>
		<path fill="#FFFFFF" d="M359.094,198.196c14.72-9.041,29.748,8.25,24.629,21.8c-5.133,13.543-31.583,31.94-31.793,16.834
			C351.727,221.739,348.646,204.631,359.094,198.196z"/>
		<path fill="#FFFFFF" d="M288.036,285.367c-14.552-9.32-5.49-30.385,8.929-31.652c14.433-1.261,40.932,22.416,27.416,29.146
			C310.872,289.611,298.358,291.984,288.036,285.367z"/>
		<path fill="#9D1D20" d="M361.601,205.997c7.696-4.727,15.539,4.32,12.871,11.394c-2.688,7.066-16.506,16.681-16.61,8.789
			C357.764,218.287,356.139,209.365,361.601,205.997z"/>
		<path fill="#9D1D20" d="M294.094,280.851c-9.237-5.925-3.48-19.3,5.679-20.091c9.167-0.812,20.168,13.872,11.597,18.165
			C302.784,283.189,300.655,285.052,294.094,280.851z"/>
		<path fill="#77121A" d="M237.069,267.518c-6.478-29.084,18.992-29.966,62.998-54.567c44.027-24.601,13.208-52.746,49.398-61.905
			c53.376-13.516,107.907,72.318,37.038,97.696C301.397,279.212,250.893,329.576,237.069,267.518z"/>
		<path fill="#9D1D20" d="M246.341,269.82c-20.567-21.568-6.155-39.769,37.851-64.355c44.013-24.608,12.283-57.753,49.391-61.919
			c37.102-4.167,128.783,36.821,47.654,76.695C300.108,260.122,284.927,310.297,246.341,269.82z"/>
		<path fill="#FFFFFF" d="M345.991,167.551c14.713-9.041,29.748,8.25,24.622,21.8c-5.126,13.543-31.568,31.933-31.786,16.835
			C338.624,191.088,335.55,173.98,345.991,167.551z"/>
		<path fill="#FFFFFF" d="M274.927,254.729c-14.552-9.335-5.49-30.392,8.942-31.66c14.419-1.26,31.771,21.87,18.249,28.614
			C288.61,258.42,285.241,261.348,274.927,254.729z"/>
		<path fill="#9D1D20" d="M348.498,175.353c7.696-4.727,15.54,4.307,12.871,11.38c-2.682,7.072-16.512,16.701-16.61,8.802
			C344.661,187.643,343.036,178.707,348.498,175.353z"/>
		<path fill="#9D1D20" d="M280.998,250.191c-9.244-5.902-3.494-19.278,5.672-20.084c9.153-0.798,20.176,13.887,11.597,18.166
			C289.682,252.552,287.546,254.408,280.998,250.191z"/>
		<polygon fill="#F1F1F2" points="334.423,246.635 304.311,218.945 324.668,196.809 354.787,224.506 		"/>
		<polygon fill="#231F20" points="323.891,229.953 322.518,228.68 336.811,213.161 338.176,214.414 		"/>
		<polygon fill="#231F20" points="325.613,231.361 325.011,230.814 339.297,215.275 339.898,215.836 		"/>
		<polygon fill="#231F20" points="321.223,227.32 320.053,226.249 334.346,210.731 335.508,211.802 		"/>
		<polygon fill="#231F20" points="318.723,225.023 316.747,223.217 331.033,207.691 333.008,209.505 		"/>
		<polygon fill="#231F20" points="316.146,222.496 314.982,221.424 329.262,205.899 330.431,206.971 		"/>
		<polygon fill="#231F20" points="314.569,221.046 313.484,220.045 327.756,204.52 328.849,205.528 		"/>
		<polygon fill="#231F20" points="330.494,236.018 329.129,234.751 343.414,219.239 344.787,220.493 		"/>
		<polygon fill="#231F20" points="332.21,237.433 331.614,236.887 345.894,221.361 346.496,221.907 		"/>
		<polygon fill="#231F20" points="327.714,233.301 326.25,231.957 340.529,216.424 341.985,217.769 		"/>
		<polygon fill="#231F20" points="334.801,239.66 333.723,238.665 347.994,223.14 349.08,224.142 		"/>
		<polygon fill="#231F20" points="322.217,231.41 318.891,228.357 319.745,227.419 323.071,230.479 		"/>
		<polygon fill="#231F20" points="328.407,237.11 324.059,233.112 324.913,232.174 329.269,236.18 		"/>
		<polygon fill="#231F20" points="333.288,241.606 329.64,238.252 330.508,237.307 334.156,240.675 		"/>
		<path fill="#77121A" d="M246.397,264.212c-27.136-12.298,5.819-39.482,38.053-78.243c32.228-38.774-9.271-58.312,23.852-75.525
			c33.117-17.22,121.983,5.532,60.596,71.891C307.518,248.7,313.807,294.716,246.397,264.212z"/>
		<path fill="#9D1D20" d="M254.751,258.344c-26.947-12.731-20.042-34.896,12.186-73.678c32.233-38.761-9.272-58.292,23.845-75.512
			c33.123-17.234,133.418-11.919,72.038,54.461C301.439,229.968,305.312,282.244,254.751,258.344z"/>
		<path fill="#FFFFFF" d="M310.991,127.096c10.469-13.726,30.735-2.983,30.806,11.492c0.077,14.482-17.977,41.156-23.614,27.136
			C312.574,151.704,303.554,136.851,310.991,127.096z"/>
		<path fill="#F1F1F2" d="M275.991,233.98c-16.926-3.467-16.03-26.38-3.025-32.738c13.011-6.366,37.514,8.984,27.318,20.133
			C290.081,232.51,288.008,236.452,275.991,233.98z"/>
		<path fill="#9D1D20" d="M316.131,133.476c5.483-7.171,16.058-1.562,16.107,6.008c0.034,7.563-9.412,21.499-12.34,14.167
			C316.972,146.326,312.244,138.573,316.131,133.476z"/>
		<path fill="#9D1D20" d="M280.024,227.587c-10.742-2.213-10.175-16.751-1.919-20.799c8.264-4.033,23.824,5.708,17.354,12.787
			C288.981,226.655,287.665,229.148,280.024,227.587z"/>
		<polygon fill="#FFFFFF" points="313.183,228.511 268.68,207.488 281.523,180.296 326.02,201.319 		"/>
		<polygon fill="#231F20" points="294.66,214.071 292.644,213.098 301.663,194.036 303.68,194.981 		"/>
		<polygon fill="#231F20" points="297.14,215.101 296.243,214.674 305.256,195.612 306.152,196.039 		"/>
		<polygon fill="#231F20" points="290.647,212.033 288.918,211.214 297.931,192.138 299.668,192.965 		"/>
		<polygon fill="#231F20" points="286.957,210.29 284.044,208.924 293.057,189.834 295.963,191.214 		"/>
		<polygon fill="#231F20" points="283.092,208.322 281.362,207.51 290.36,188.441 292.098,189.253 		"/>
		<polygon fill="#231F20" points="280.746,207.223 279.143,206.459 288.147,187.391 289.759,188.146 		"/>
		<polygon fill="#231F20" points="304.437,218.679 302.398,217.713 311.426,198.651 313.456,199.604 		"/>
		
			<rect x="310.464" y="199.421" transform="matrix(0.9043 0.4268 -0.4268 0.9043 119.3726 -112.6428)" fill="#231F20" width="0.984" height="21.079"/>
		<polygon fill="#231F20" points="300.228,216.564 298.092,215.542 307.091,196.466 309.24,197.495 		"/>
		<polygon fill="#231F20" points="310.669,221.354 309.059,220.591 318.071,201.529 319.675,202.292 		"/>
		<polygon fill="#231F20" points="293.47,215.941 288.54,213.616 289.079,212.468 294.002,214.8 		"/>
		<polygon fill="#231F20" points="302.608,220.269 296.173,217.229 296.727,216.081 303.155,219.113 		"/>
		<polygon fill="#231F20" points="309.829,223.679 304.437,221.144 304.976,219.988 310.375,222.531 		"/>
	</g>
	<g>
		<path fill="#E6E7E8" d="M166.999,262.909l-21.478-13.165c0,0,12.934-13.796,33.208-43.824
			c20.273-30.014,23.452-29.328,24.881-29.888c1.45-0.54,41.933,29.279,41.933,29.279s-24.51,41.113-53.782,75.708L166.999,262.909z
			"/>
		<path fill="#6D6E70" d="M99.54,317.713c1.702,7.57,7.752,7.802,12.234,2.325c4.482-5.504,23.712-27.696,29.706-40.203
			c6.001-12.5,13.004-15.049,13.004-15.049s11.891-2.15,6.226-7.144c-9.188-8.13-12.675-9.006-15.189-7.898
			C142.993,250.844,98.153,311.523,99.54,317.713z"/>
		<path fill="#D0D2D3" d="M179.001,271.796l53.894-75.063l12.647,8.578c0,0-27.22,46.758-53.782,75.708L179.001,271.796z"/>
		<path fill="#404041" d="M106.298,323.659c-8.348,1.407,21.464-31.002,29.034-48.18c7.57-17.179,12.872-15.294,18.369-15.294
			c11.744,0.021,7.234,3.732,2.528,7.912c-4.699,4.182-7.584,6.653-19.412,26.576C124.981,314.598,113.532,322.454,106.298,323.659z
			"/>
	</g>
</g>
</svg>
