<?xml version="1.0" encoding="utf-8"?>
<!-- Generator: Adobe Illustrator 16.0.0, SVG Export Plug-In . SVG Version: 6.00 Build 0)  -->
<!DOCTYPE svg PUBLIC "-//W3C//DTD SVG 1.0//EN" "http://www.w3.org/TR/2001/REC-SVG-20010904/DTD/svg10.dtd">
<svg version="1.0" id="Layer_1" xmlns="http://www.w3.org/2000/svg" xmlns:xlink="http://www.w3.org/1999/xlink" x="0px" y="0px"
	 width="495px" height="448px" viewBox="0 0 495 448" enable-background="new 0 0 495 448" xml:space="preserve">
<g>
	<path fill="#77121A" d="M212.2670898,401.0351562C196.1357422,355.1875,237.21875,348.8300781,303.7182617,300.4677734
		c66.5107422-48.3642578,8.7241211-95.8769531,67.9863281-109.8222656
		c59.2724609-13.9453125,190.6069336,57.6601562,66.9667969,137.9453125
		C315.0214844,408.8769531,246.6845703,498.8427734,212.2670898,401.0351562z"/>
	<path fill="#9D1D20" d="M227.7304688,402.9667969c-37.4848633-30.9375-17.6806641-63.1992188,48.8188477-111.5634766
		c66.5107422-48.3623047,8.7236328-95.8754883,67.9863281-109.8208008
		c59.2729492-13.9453125,215.6743164,34.6831055,92.034668,114.9692383
		C312.9194336,376.8369141,298.0722656,461.0292969,227.7304688,402.9667969z"/>
	<path fill="#FFFFFF" d="M369.2841797,218.0585938c22.0751953-17.5112305,49.7636719,7.5981445,44.0966797,30.5224609
		c-5.6772461,22.9238281-44.9453125,57.8398438-48.2036133,33.4306641
		C361.9194336,257.5908203,353.6088867,230.4858398,369.2841797,218.0585938z"/>
	<path fill="#FFFFFF" d="M271.0942383,372.9853516c-25.3642578-12.2792969-14.7724609-48.140625,8.3422852-52.9902344
		c23.1137695-4.8388672,55.6850586,29.2597656,35.1064453,42.7910156
		C293.9658203,376.3164062,289.09375,381.6982422,271.0942383,372.9853516z"/>
	<path fill="#9D1D20" d="M374.8564453,230.199707c11.5366211-9.1376953,26.0014648,3.9794922,23.0405273,15.9506836
		c-2.9716797,11.9707031-23.4868164,30.2148438-25.184082,17.4589844
		C371.0146484,250.8525391,366.6630859,236.7055664,374.8564453,230.199707z"/>
	<path fill="#9D1D20" d="M280.0410156,364.484375c-16.1098633-7.7900391-9.3818359-30.5654297,5.2958984-33.6328125
		c14.6777344-3.078125,35.3623047,18.5732422,22.2978516,27.1699219
		C294.5595703,366.6064453,291.4707031,370.0244141,280.0410156,364.484375z"/>
</g>
<g>
	<path fill="#77121A" d="M185.109375,353.9453125c-16.1318359-45.8466797,24.9501953-52.2050781,91.4506836-100.5664062
		c66.5107422-48.3637695,8.7241211-95.8774414,67.9858398-109.8222656
		c59.2724609-13.9453125,190.6074219,57.6591797,66.9672852,137.9453125
		C287.862793,361.7880859,219.5268555,451.7539062,185.109375,353.9453125z"/>
	<path fill="#9D1D20" d="M200.5722656,355.8769531c-37.484375-30.9365234-17.6811523-63.1992188,48.8188477-111.5625
		c66.5107422-48.3623047,8.7241211-95.8764648,67.9858398-109.8212891
		c59.2729492-13.9458008,215.6748047,34.6821289,92.034668,114.9677734
		C285.7612305,329.7480469,270.9140625,413.9394531,200.5722656,355.8769531z"/>
	<path fill="#FFFFFF" d="M342.1264648,170.9692383c22.0742188-17.5112305,49.7636719,7.5986328,44.0961914,30.5229492
		c-5.6777344,22.9233398-44.9458008,57.8398438-48.2036133,33.4301758
		C334.7612305,210.5024414,326.4511719,183.3969727,342.1264648,170.9692383z"/>
	<path fill="#FFFFFF" d="M243.9360352,325.8955078c-25.3647461-12.2783203-14.7734375-48.1396484,8.3417969-52.9902344
		c23.1147461-4.8378906,55.6855469,29.2607422,35.1074219,42.7919922
		C266.8066406,329.2275391,261.9355469,334.609375,243.9360352,325.8955078z"/>
	<path fill="#9D1D20" d="M347.6977539,183.1108398c11.5361328-9.1376953,26.0014648,3.9794922,23.0405273,15.9506836
		c-2.9711914,11.9711914-23.4858398,30.2148438-25.184082,17.4584961
		C343.855957,203.7631836,339.5043945,189.6162109,347.6977539,183.1108398z"/>
	<path fill="#9D1D20" d="M252.8828125,317.3955078c-16.1103516-7.7900391-9.3818359-30.5654297,5.2958984-33.6328125
		c14.6772461-3.078125,35.3618164,18.5722656,22.2978516,27.1699219
		C267.4008789,319.5175781,264.3125,322.9345703,252.8828125,317.3955078z"/>
</g>
<g opacity="0.1">
	<path d="M109.1845703,243.4228516l-51.4829102-7.8212891c0,0,13.5629883-36.6884766,28.081543-110.1401367
		c14.5185547-73.4619141,21.109375-74.7148438,23.4013672-76.9111328C111.4775391,46.3535156,212.543457,70.625,212.543457,70.625
		s-13.6586914,98.0097656-41.6450195,187.4121094L109.1845703,243.4228516z"/>
	<path d="M24.7167969,401.9677734c9.3291016,13.0869141,21.0458984,8.671875,25.1635742-5.390625
		c4.1176758-14.0615234,22.9228516-71.7744141,24.3027344-100.4179688
		c1.390625-28.6445312,12.6831055-39.109375,12.6831055-39.109375s20.9389648-13.6367188,6.1342773-18.6147461
		c-24.0385742-8.0874023-30.4379883-6.75-34.3432617-2.6323242
		C54.7304688,239.9208984,17.1074219,391.2910156,24.7167969,401.9677734z"/>
	<path d="M139.2080078,250.7041016l42.3671875-186.2456055L212.543457,70.625c0,0-14.2851562,110.925293-41.6450195,187.4121094
		L139.2080078,250.7041016z"/>
	<path d="M42.3774414,407.890625c-3.3969727,4.8710938,15.9716797-76.3066406,16.5976562-115.1074219
		c0.6367188-38.7783203,11.6533203-41.2734375,22.7114258-43.8623047c28.4536133-6.6650391,8.0551758-0.2236328,2.440918,11.5253906
		c-5.5927734,11.7373047-8.4477539,20.0898438-15.0063477,67.5507812
		C62.5625,375.4472656,52.6396484,393.2119141,42.3774414,407.890625z"/>
</g>
<g>
	<path fill="#E6E7E8" d="M91.3017578,202.2456055l-51.4824219-7.8217773c0,0,13.5629883-36.6889648,28.0810547-110.1401367
		c14.519043-73.4624023,21.109375-74.7148438,23.4013672-76.9116211
		c2.2929688-2.1962891,103.3583984,22.0751953,103.3583984,22.0751953s-13.6582031,98.0092773-41.6450195,187.4121094
		L91.3017578,202.2456055z"/>
	<path fill="#3B2314" d="M6.8339844,360.7910156c9.3291016,13.0849609,21.0458984,8.6699219,25.1635742-5.3916016
		c4.1176758-14.0625,22.9243164-71.7744141,24.3037109-100.4179688
		c1.3901367-28.6445312,12.6816406-39.1088867,12.6816406-39.1088867s20.9394531-13.6381836,6.1342773-18.6152344
		c-24.0375977-8.0869141-30.4370117-6.7495117-34.3432617-2.6323242
		C36.8476562,198.7431641-0.7753906,350.1142578,6.8339844,360.7910156z"/>
	<path fill="#D0D2D3" d="M121.3261719,209.5253906l42.3657227-186.2446289l30.9682617,6.1665039
		c0,0-14.2841797,110.925293-41.6450195,187.4121094L121.3261719,209.5253906z"/>
	<path fill="#2B1910" d="M24.4941406,366.7138672c-3.3959961,4.8701172,15.9726562-76.3066406,16.5986328-115.1074219
		c0.637207-38.7802734,11.652832-41.2744141,22.7114258-43.8632812c28.453125-6.6650391,8.0551758-0.2226562,2.440918,11.5253906
		c-5.5932617,11.737793-8.4477539,20.0898438-15.0063477,67.5517578
		C44.6801758,334.2685547,34.7568359,352.0351562,24.4941406,366.7138672z"/>
</g>
<g>
	
		<rect x="292.6280518" y="237.3482971" transform="matrix(0.8111763 0.5848017 -0.5848017 0.8111763 214.6978149 -141.1882324)" fill="#F1F1F2" width="66.7126541" height="49.0509682"/>
	<polygon fill="#231F20" points="318.4277344,276.2910156 315.9658203,274.4980469 336.0976562,246.5976562 
		338.5498047,248.3789062 	"/>
	<polygon fill="#231F20" points="321.484375,278.2441406 320.4018555,277.46875 340.534668,249.5585938 341.6064453,250.3427734 	
		"/>
	<polygon fill="#231F20" points="313.5883789,272.5556641 311.4975586,271.0380859 331.6196289,243.1367188 
		333.7207031,244.6542969 	"/>
	<polygon fill="#231F20" points="309.1098633,269.3183594 305.5649414,266.7724609 325.6870117,238.8598633 
		329.2314453,241.4169922 	"/>
	<polygon fill="#231F20" points="304.4506836,265.7207031 302.3491211,264.2138672 322.4711914,236.3125 324.5727539,237.8198242 	
		"/>
	<polygon fill="#231F20" points="301.6064453,263.671875 299.6538086,262.2607422 319.7646484,234.3598633 321.7280273,235.7714844 
			"/>
	<polygon fill="#231F20" points="330.3032227,284.8457031 327.8408203,283.0517578 347.9633789,255.1611328 
		350.4360352,256.9443359 	"/>
	<polygon fill="#231F20" points="333.3496094,286.7978516 332.277832,286.0234375 352.3886719,258.1210938 353.4711914,258.8974609 
			"/>
	<polygon fill="#231F20" points="325.2519531,280.9609375 322.640625,279.0820312 342.7519531,251.1708984 345.3632812,253.0488281 
			"/>
	<polygon fill="#231F20" points="337.9868164,289.8964844 336.0341797,288.4960938 356.1455078,260.5947266 
		358.0981445,262.0166016 	"/>
	<polygon fill="#231F20" points="315.9975586,278.9863281 310.0224609,274.6777344 311.222168,272.9912109 317.206543,277.3095703 	
		"/>
	
		<rect x="319.0033875" y="282.3204041" transform="matrix(0.8109532 0.585111 -0.585111 0.8109532 227.0105591 -135.9030762)" fill="#231F20" width="9.6319189" height="2.0672276"/>
	<polygon fill="#231F20" points="335.9072266,293.3457031 329.3486328,288.6230469 330.5581055,286.9355469 
		337.1171875,291.6699219 	"/>
</g>
<g>
	<path fill="#77121A" d="M199.5849609,346.7822266c-46.3457031-14.6357422,1.7719727-65.0576172,46.4526367-134.0727539
		c44.6904297-69.0366211-26.309082-92.6181641,23.9848633-126.9189453
		c50.3046875-34.3115234,198.5986328-14.6772461,112.0610352,104.6640625
		C295.5356445,309.8164062,314.6289062,383.1201172,199.5849609,346.7822266z"/>
	<path fill="#9D1D20" d="M211.9599609,335.6591797c-46.1025391-15.3994141-39.215332-52.6181641,5.465332-121.6547852
		c44.690918-69.0258789-26.3095703-92.6079102,23.9853516-126.9086914
		c50.3149414-34.3217773,213.7426758-45.1362305,127.1948242,74.2265625
		C282.0683594,280.6640625,298.4648438,364.5693359,211.9599609,335.6591797z"/>
	<path fill="#FFFFFF" d="M277.6108398,112.237793c14.3061523-24.2607422,49.1801758-10.7827148,52.1196289,12.6503906
		c2.9394531,23.4223633-21.1513672,70.1186523-32.9741211,48.5117188
		C284.9443359,151.78125,267.4541016,129.4731445,277.6108398,112.237793z"/>
	<path fill="#F1F1F2" d="M241.644043,292.1054688c-28.081543-2.3466797-31.074707-39.6191406-11.25-52.449707
		c19.8349609-12.8208008,62.4887695,7.3012695,48.1396484,27.3168945
		C264.1855469,286.9892578,261.574707,293.7597656,241.644043,292.1054688z"/>
	<path fill="#9D1D20" d="M287.1831055,121.5664062c7.472168-12.671875,25.6943359-5.6245117,27.2329102,6.6118164
		c1.527832,12.2363281-11.0688477,36.6362305-17.2348633,25.3432617
		C291.0146484,142.2192383,281.8662109,130.5771484,287.1831055,121.5664062z"/>
	<path fill="#9D1D20" d="M246.9389648,280.9609375c-17.8291016-1.4970703-19.7285156-25.1513672-7.1420898-33.3027344
		c12.5976562-8.140625,39.6816406,4.6269531,30.5756836,17.3515625
		C261.2563477,277.7128906,259.6005859,282.0117188,246.9389648,280.9609375z"/>
</g>
<g>
	
		<rect x="230.3649292" y="215.543396" transform="matrix(0.9485 0.316777 -0.316777 0.9485 89.979248 -73.3246155)" fill="#FFFFFF" width="80.2701416" height="49.0523682"/>
	<polygon fill="#231F20" points="268.027832,256.2324219 264.5566406,255.0546875 275.4672852,222.4311523 278.9262695,223.5986328 
			"/>
	
		<rect x="276.1051636" y="223.6546021" transform="matrix(0.9489861 0.315318 -0.315318 0.9489861 90.0721283 -75.0278931)" fill="#231F20" width="1.6104771" height="34.4002838"/>
	<polygon fill="#231F20" points="261.1181641,253.7070312 258.1679688,252.7197266 269.0678711,220.0961914 
		272.0283203,221.0830078 	"/>
	<polygon fill="#231F20" points="254.8139648,251.6064453 249.8266602,249.9501953 260.7255859,217.3046875 265.703125,218.9711914 
			"/>
	<polygon fill="#231F20" points="248.159668,249.1748047 245.2099609,248.1982422 256.1088867,215.5756836 259.0600586,216.5517578 
			"/>
	<polygon fill="#231F20" points="244.1591797,247.8378906 241.4106445,246.9150391 252.2988281,214.2905273 
		255.0585938,215.2143555 	"/>
	<polygon fill="#231F20" points="284.7319336,261.8046875 281.2617188,260.6367188 292.171875,228.0136719 295.6420898,229.1699219 
			"/>
	<polygon fill="#231F20" points="288.9243164,262.9931641 287.3959961,262.484375 298.2949219,229.8598633 299.8129883,230.3701172 
			"/>
	<polygon fill="#231F20" points="277.515625,259.1933594 273.8535156,257.9619141 284.7421875,225.3286133 288.4145508,226.5595703 
			"/>
	<polygon fill="#231F20" points="295.3452148,264.9345703 292.5961914,264.0234375 303.4848633,231.3989258 
		306.2441406,232.3222656 	"/>
	<polygon fill="#231F20" points="266.4355469,259.5009766 258.0195312,256.6894531 258.6669922,254.7265625 
		267.0932617,257.5380859 	"/>
	
		<rect x="271.1142883" y="260.8796082" transform="matrix(0.9485273 0.3166953 -0.3166953 0.9485273 97.2007141 -74.2145691)" fill="#231F20" width="11.5912619" height="2.0718489"/>
	
		<rect x="285.2990112" y="265.3067322" transform="matrix(0.9485627 0.3165893 -0.3165893 0.9485627 99.246048 -78.1617737)" fill="#231F20" width="9.7227688" height="2.0701518"/>
</g>
<g>
</g>
<g>
</g>
<g>
</g>
<g>
</g>
<g>
</g>
<g>
</g>
</svg>
