<?xml version="1.0" encoding="utf-8"?>
<!-- Generator: Adobe Illustrator 16.0.0, SVG Export Plug-In . SVG Version: 6.00 Build 0)  -->
<!DOCTYPE svg PUBLIC "-//W3C//DTD SVG 1.0//EN" "http://www.w3.org/TR/2001/REC-SVG-20010904/DTD/svg10.dtd">
<svg version="1.0" id="Layer_1" xmlns="http://www.w3.org/2000/svg" xmlns:xlink="http://www.w3.org/1999/xlink" x="0px" y="0px"
	 width="338px" height="448px" viewBox="0 0 338 448" enable-background="new 0 0 338 448" xml:space="preserve">
<g>
	<polygon fill="#E6E7E8" points="308.5361328,4.5800781 330.7612305,85.9838867 330.7612305,395.0712891 268.9638672,439.2148438 
		245.9306641,73.5673828 	"/>
	<polygon fill="#F1F1F2" points="6.8535156,439.2148438 268.9638672,439.2148438 268.9638672,91.5068359 308.5361328,4.5800781 
		50.8232422,4.5800781 5.984375,77.7094727 	"/>
	<polygon fill="#2BCC3E" points="4.7773438,182.8833008 268.9433594,182.8833008 331.9580078,143.9555664 330.7407227,297.7216797 
		270.1611328,361.9638672 6.3217773,360.5830078 	"/>
	<polygon fill="#1DB52B" points="268.9433594,182.8833008 268.9433594,361.9638672 330.5874023,317.8095703 
		330.5874023,143.9555664 	"/>
	<path fill="#83FF89" d="M173.5991211,238.4101562c-5.2163086,6.9755859-13.1430664,9.8701172-17.7045898,6.4541016
		c-4.5615234-3.40625-4.0292969-11.8232422,1.1865234-18.809082c5.2265625-6.9755859,13.1425781-9.8701172,17.7045898-6.4643555
		C179.3574219,223.0073242,178.8256836,231.4248047,173.5991211,238.4101562z"/>
	<path fill="#83FF89" d="M97.1660156,260.8916016c-0.5112305,8.4072266-5.3696289,14.953125-10.8623047,14.6259766
		c-5.4921875-0.328125-9.5419922-7.4052734-9.0410156-15.8125c0.5112305-8.4072266,5.359375-14.953125,10.8515625-14.6259766
		C93.6171875,245.40625,97.6572266,252.484375,97.1660156,260.8916016z"/>
	<path fill="#83FF89" d="M186.7724609,262.609375c12.7749023,4.796875,20.609375,15.4345703,17.4794922,23.7900391
		c-3.1293945,8.3662109-16.0268555,11.2607422-28.8115234,6.4638672
		c-12.7954102-4.7861328-20.6196289-15.4335938-17.4794922-23.7998047
		C161.0908203,260.7070312,173.9775391,257.8125,186.7724609,262.609375z"/>
	<path fill="#83FF89" d="M107.3530273,260.5439453c-0.2045898-14.6982422,7.4047852-26.7363281,17.019043-26.8691406
		c9.6044922-0.1328125,17.5717773,11.6601562,17.7661133,26.3779297
		c0.2148438,14.7080078-7.4047852,26.7460938-17.0092773,26.8583984
		C115.5146484,287.0644531,107.5473633,275.2509766,107.3530273,260.5439453z"/>
</g>
<g>
</g>
<g>
</g>
<g>
</g>
<g>
</g>
<g>
</g>
<g>
</g>
</svg>
