<?xml version="1.0" encoding="utf-8"?>
<!-- Generator: Adobe Illustrator 16.0.0, SVG Export Plug-In . SVG Version: 6.00 Build 0)  -->
<!DOCTYPE svg PUBLIC "-//W3C//DTD SVG 1.0//EN" "http://www.w3.org/TR/2001/REC-SVG-20010904/DTD/svg10.dtd">
<svg version="1.0" id="Layer_1" xmlns="http://www.w3.org/2000/svg" xmlns:xlink="http://www.w3.org/1999/xlink" x="0px" y="0px"
	 width="342.2167969px" height="582.3007812px" viewBox="0 0 342.2167969 582.3007812"
	 enable-background="new 0 0 342.2167969 582.3007812" xml:space="preserve">
<g>
	<polygon fill="#E6E6E6" points="41.5390625,104.5966797 54.0678711,68.7353516 103.5053711,79.4726562 72.3408203,170.4912109 
		28.637207,157.9248047 	"/>
	<path fill="#3B2416" d="M263.3232422,201.2978516c0,0,41.9072266,5.3754883,54.8076172-36.53125
		c12.9003906-41.9023438,34.375-59.0947266-6.4609375-97.78125c-40.8164062-38.6767578-68.7509766-31.1503906-79.5117188-51.5644531
		c-10.7333984-20.4179688-42.9677734-17.1923828-53.7011719,6.4414062
		c-10.7509766,23.6391602-41.90625,44.0527344,4.2919922,54.8037109
		c46.1884766,10.737793,60.1699219,53.7148438,60.1699219,53.7148438L263.3232422,201.2978516z"/>
	<path fill="#DFA589" d="M115.0571289,145.4238281c27.0688477-46.4033203,38.6582031-82.7294922,89.175293-87.0302734
		c50.4892578-4.2958984,121.4003906,40.8320312,100.9980469,85.9594727
		c-20.4140625,45.1230469-34.3769531,80.5791016-102.0771484,76.2832031
		C135.4707031,216.340332,100.0053711,171.2172852,115.0571289,145.4238281z"/>
	<path fill="#DFA589" d="M302.3251953,132.4384766c0,0,39.6630859-5.4599609,32.8212891,16.4150391
		c-6.8417969,21.8798828-15.0527344,53.3330078-47.8730469,21.8798828
		C254.4423828,139.2802734,302.3251953,132.4384766,302.3251953,132.4384766z"/>
	<path fill="#F1F1F1" d="M137.9560547,130.2133789c1.9736328-2.7641602,95.2910156-7.3491211,89.9199219,17.355957
		C222.4960938,172.2832031,110.2822266,168.9414062,137.9560547,130.2133789z"/>
	<path fill="#C68263" d="M213.9042969,92.2719727c21.4833984-34.3110352,45.1279297,7.3491211,35.4462891,17.1606445
		C239.6796875,119.234375,201.4589844,112.1455078,213.9042969,92.2719727z"/>
	<path fill="#C68263" d="M149.4335938,98.9042969c0,0,9.2988281-29.456543,21.4931641-18.9570312
		C180.8310547,88.4785156,171.9882812,111.5405273,149.4335938,98.9042969z"/>
	<path fill="#DFA589" d="M223.5751953,214.1855469c0,0-35.4648438,35.465332-38.6855469,54.8037109
		c-3.2304688,19.3339844-35.4560547,34.3857422-35.4560547-7.5214844c0-41.9023438,37.6064453-55.8691406,37.6064453-55.8691406
		L223.5751953,214.1855469z"/>
	<path fill="#DFA589" d="M167.7060547,220.6362305c0,0-69.6274414,51.5268555-118.1992188,9.6713867
		c-31.1552734-26.859375-8.5825195-81.6586914-8.5825195-81.6586914s41.8696289,19.831543,49.4282227-12.8920898
		c6.4321289-27.9394531-5.3803711-31.1650391-29.0146484-42.9824219
		c-15.4238281-7.6977539-35.8935547,10.6958008-41.8974609,24.7143555
		c-6.171875,14.3862305-3.2392578,22.5639648-3.2392578,22.5639648s-31.1650391,65.5458984,11.8212891,110.668457
		c48.2089844,50.6245117,91.3261719,33.3061523,91.3261719,33.3061523S87.1318359,362.4667969,95.7138672,429.078125
		c8.6015625,66.6210938,18.2543945,102.0761719,18.2543945,102.0761719s-49.409668,18.2539062-30.0668945,30.0859375
		c19.34375,11.8027344,48.3393555,6.4414062,55.8603516-12.9023438
		c7.5400391-19.3339844-24.7045898-50.4980469-5.3798828-103.1367188
		c19.3334961-52.6582031,36.5449219,68.7519531,21.5024414,100.9785156
		c-15.0332031,32.2441406,30.0756836,37.6152344,37.6069336,20.421875
		c7.5205078-17.1933594-8.6015625-10.7421875-12.8837891-34.3769531
		C176.2978516,508.5917969,207.453125,388.25,207.453125,313.0390625c0,0,30.0849609,92.3945312,30.0849609,124.640625
		c0,0-5.3798828,42.9667969,10.7519531,40.8261719c16.1132812-2.1503906,25.7753906-9.6796875,11.8125-45.1269531
		c-13.9726562-35.4648438,6.4599609-87.0253906-54.7998047-199.8505859L167.7060547,220.6362305z"/>
	<path fill="#F1F1F1" d="M219.265625,96c3.5751953-2.3876953,23.6533203-8.5961914,30.0849609,19.3388672
		C249.3505859,115.3388672,193.4912109,113.1884766,219.265625,96z"/>
	<path fill="#F1F1F1" d="M149.4335938,100.3007812c0,0,15.0424805-23.6347656,23.6435547-3.2255859
		C173.0771484,97.0751953,168.7763672,108.8969727,149.4335938,100.3007812z"/>
	<path fill="#3B2416" d="M238.6181641,56.2480469c-6.6933594-1.2006836,56.9404297,38.6767578,33.3056641,78.4335938
		c0,0,11.8125-2.1455078,17.1835938-11.8173828c5.3710938-9.6757812,0,38.6816406-11.8125,51.5693359
		c-11.8125,12.8964844,30.0742188,0,33.3144531-49.4238281C313.8203125,75.5869141,280.515625,63.7744141,238.6181641,56.2480469z"
		/>
	<path fill="#3B2416" d="M234.8486328,104.5917969c0,5.0546875-4.0771484,9.1362305-9.1318359,9.1362305
		c-5.0361328,0-9.1220703-4.081543-9.1220703-9.1362305c0-5.0361328,4.0859375-9.1269531,9.1220703-9.1269531
		C230.7714844,95.4648438,234.8486328,99.5556641,234.8486328,104.5917969z"/>
	<path fill="#3B2416" d="M167.4360352,98.1503906c0,3.4116211-2.7832031,6.1669922-6.1899414,6.1669922
		c-3.3886719,0-6.1621094-2.7553711-6.1621094-6.1669922s2.7734375-6.1669922,6.1621094-6.1669922
		C164.652832,91.9833984,167.4360352,94.7387695,167.4360352,98.1503906z"/>
	<path fill="#C68263" d="M175.2089844,88.4785156c0,0-16.0947266,23.6435547-12.8740234,26.8603516
		c3.2119141,3.2250977,22.5546875,6.4458008,22.5546875-1.0751953
		C184.8896484,106.7514648,166.6074219,116.4179688,175.2089844,88.4785156z"/>
	<path fill="#59595C" d="M88.1928711,387.171875c0,0-20.4228516,42.9765625-1.0610352,94.5546875l18.2539062,37.6074219
		L82.8125,515.0332031l18.2636719,21.484375l39.7749023-1.0722656c0,0-19.3618164-66.6191406-1.0893555-102.0664062
		c0,0,29.0146484,39.7460938,18.2636719,93.4746094c0,0,23.6337891,21.484375,31.1650391,5.3710938
		c0,0,0-54.7988281,12.8916016-124.6308594C211.7070312,355.4296875,88.1928711,387.171875,88.1928711,387.171875z"/>
	<path fill="#45C3E1" d="M162.3349609,219.5654297c0,0,8.722168,22.3544922,48.4599609,8.3916016l43.9267578,65.7373047
		l-38.6767578,46.2080078l-8.5917969-26.8632812c0,0,7.3916016,34.7753906,0,80.5742188
		c-5.3710938,33.3242188-3.2207031,20.421875-3.2207031,20.421875s-81.6630859,55.8691406-123.5605469-20.421875
		c0,0-12.9018555-29.0058594,29.0234375-104.2109375l-9.6899414,1.0664062l10.7514648-52.6396484L162.3349609,219.5654297z"/>
	<path fill="#D98C71" d="M169.8564453,215.2607422l-7.5214844,4.3046875c0,0,1.7314453,18.2636719,24.7050781,18.2636719
		c22.5546875,0,29.0048828-15.6103516,29.0048828-15.6103516l33.3056641-5.878418c0,0,51.5693359-26.8642578-1.0605469-18.2680664
		c0,0-83.8139648,18.2680664-106.3681641,4.3007812L169.8564453,215.2607422z"/>
	<path fill="#D98C71" d="M104.4082031,114.8310547c-4.7753906,6.1015625-10.3505859,16.2016602-17.5371094,2.4765625
		c-7.2050781-13.7211914,0.7167969-17.2070312,9.5039062-18.449707
		C105.1435547,97.6245117,110.6635742,106.8398438,104.4082031,114.8310547z"/>
	<path fill="#D98C71" d="M78.5214844,150.7949219c0,0-51.5693359-7.5214844-56.9404297-18.2587891
		C16.2011719,121.784668,20.5014648,167.9921875,78.5214844,150.7949219z"/>
	<polygon fill="#D0D1D2" points="57.0185547,155.0947266 29.1308594,147.4296875 26.0585938,156.0302734 45.9599609,163.3886719 	
		"/>
	<polygon fill="#D98C71" points="109.1928711,245.4804688 84.972168,285.1020508 100.0053711,288.0625 	"/>
	<path fill="#37B5CA" d="M135.4707031,253.9418945c0,0-42.9775391,59.097168-48.3388672,83.800293
		c-5.3803711,24.7246094-18.2822266,60.171875,9.652832,78.4433594
		C124.7197266,434.4492188,79.5917969,371.0585938,135.4707031,253.9418945z"/>
	<path fill="#37B5CA" d="M194.5615234,291.5478516c0,0,11.8212891,33.3115234,7.5205078,46.1943359
		C197.7724609,350.6445312,230.0263672,315.1894531,194.5615234,291.5478516z"/>
	<path fill="#FBED1F" d="M146.2128906,276.5107422l-8.5917969,17.1835938h-12.9013672L120.4189453,303.375h10.7607422
		l-7.5214844,16.1054688l12.8925781,4.3007812l5.3710938-17.1835938c0,0,22.5541992-3.2226562,40.8271484,10.7402344
		l2.140625-11.8203125c0,0-21.484375-9.6640625-34.3764648-10.7441406l5.3710938-12.8964844L146.2128906,276.5107422z"/>
	<path fill="#404047" d="M193.4912109,434.4492188l-21.5029297,22.5546875l10.7607422,1.0800781l-8.6015625,23.6425781
		l11.8125-5.3710938l-7.5029297,21.484375l9.6533203,10.7519531
		C188.1103516,508.5917969,199.9326172,441.9707031,193.4912109,434.4492188z"/>
	<polygon fill="#404047" points="112.9072266,521.4824219 135.4707031,521.4824219 129.0200195,488.1679688 	"/>
	<path fill="#D98C71" d="M193.4912109,566.6015625c2.3457031-4.1894531-8.6015625-6.4414062-8.6015625-6.4414062
		l-4.2822266,9.6816406l-5.3984375-7.5410156l-7.5029297,7.5410156h-9.6806641
		C158.0253906,569.8417969,179.5283203,591.3242188,193.4912109,566.6015625z"/>
	<path fill="#D98C71" d="M132.2407227,554.7792969c0,0-31.1645508,8.6015625-37.597168,3.2304688
		c-6.4506836-5.3710938-10.7421875-11.8300781-10.7421875-4.2910156c0,7.5214844,2.1318359,12.8828125,13.9628906,12.8828125
		S133.3203125,566.6015625,132.2407227,554.7792969z"/>
	<path fill="#D98C71" d="M238.6181641,313.0390625l-22.5732422,26.8632812l6.4511719,24.7050781
		C222.4960938,364.6074219,241.8291016,331.3007812,238.6181641,313.0390625z"/>
	<path fill="#919395" d="M72.3408203,170.4912109c-0.5498047,2.5366211-11.7475586-1.4755859-25.1889648-4.4677734
		c-13.4604492-3.0019531-21.6333008-7.4516602-21.0932617-9.9931641c0.5771484-2.53125,9.6806641,1.9272461,23.1411133,4.9291992
		C62.6503906,163.9472656,72.8994141,167.9594727,72.3408203,170.4912109z"/>
	<path fill="#BABCBE" d="M104.1201172,79.9472656c-0.3540039,1.6386719-13.0415039,0.2050781-28.3168945-3.1875
		c-15.2749023-3.4072266-22.0888672-6.3813477-21.7353516-8.0244141c0.362793-1.6425781,7.7817383-1.3261719,23.0571289,2.0761719
		C92.3911133,74.2089844,104.4921875,78.3046875,104.1201172,79.9472656z"/>
</g>
<polygon fill="#37B5CA" points="113.7910156,241.3105469 109.546875,285.7539062 104.6035156,286.2983398 "/>
<g>
</g>
<g>
</g>
<g>
</g>
<g>
</g>
<g>
</g>
<g>
</g>
</svg>
