<?xml version="1.0" encoding="utf-8"?>
<!-- Generator: Adobe Illustrator 16.0.0, SVG Export Plug-In . SVG Version: 6.00 Build 0)  -->
<!DOCTYPE svg PUBLIC "-//W3C//DTD SVG 1.0//EN" "http://www.w3.org/TR/2001/REC-SVG-20010904/DTD/svg10.dtd">
<svg version="1.0" id="Layer_1" xmlns="http://www.w3.org/2000/svg" xmlns:xlink="http://www.w3.org/1999/xlink" x="0px" y="0px"
	 width="495px" height="469px" viewBox="0 0 495 469" enable-background="new 0 0 495 469" xml:space="preserve">
<g>
	<g>
		<path fill="#5B3520" d="M39.6650391,208.9428711c3.7519531-12.8120117-39.2758789,57.5463867-36.9731445,91.3774414
			c2.3022461,33.8447266,13.8681641-10.1435547,13.8681641-10.1435547S25.7963867,256.3457031,39.6650391,208.9428711z"/>
	</g>
	<g>
		<g>
			<g>
				<path fill="#70412A" d="M456.0717773,181.855957c0,0,12.8120117,11.5390625,30.4458008,27.3037109
					c17.6191406,15.777832,1.9770508,47.5922852-31.7055664,47.5649414
					c-25.1904297-0.0263672-56.503418,5.9443359-56.503418,5.9443359s-6.9199219,4.5234375-22.1435547,6.8134766
					c-34.15625,5.0771484-4.4414062,35.8085938-25.2172852,169.5761719
					c-2.112793,13.3417969-26.8027344,20.8300781-24.8251953-5.9453125
					c2.0585938-27.5195312-6.9072266-99.0839844-6.9072266-99.0839844s-18.2695312,88.1416016-24.7983398,102.0517578
					c-6.4462891,13.8955078-26.8291016,16.6289062-19.8134766-6.9091797
					c13.8818359-46.5888672-7.4487305-115.4589844-18.5952148-110.8251953
					c-11.1196289,4.6308594-72.9042969,1.3681641-92.3666992-5.1474609c0,0-42.1870117-8.6113281-52.5893555,54.6611328
					c0,0-6.9204102,18.6894531-3.9272461,68.2207031c0.9072266,15.0869141-18.1757812,23.1845703-26.5175781-5.5673828
					c-8.3432617-28.78125-9.1689453-81.5458984-9.1689453-81.5458984s-19.597168,74.8955078-30.7167969,97.1757812
					c-11.1333008,22.2636719-28.0488281,18.8945312-21.7915039-12.0273438
					c13.8950195-68.3671875,5.8100586-96.3613281,4.9433594-177.0673828
					c-0.4331055-40.6298828,15.7641602-75.1523438,84.402832-76.9936523
					c68.6376953-1.855957,108.0634766-11.105957,150.4946289-5.5668945
					C329.0205078,183.6708984,370.2470703,149,376.6938477,145.7490234
					c23.7958984-11.9042969,22.6308594-4.9570312,39.9257812-7.3676758c4.984375-0.7041016,21.3452148-14.8574219,29.7011719,0
					c8.3291016,14.8168945-13.0151367,24.1206055-13.0151367,24.1206055S442.2441406,165.2651367,456.0717773,181.855957z"/>
			</g>
			<g>
				<path fill="#3B2314" d="M473.2314453,221.8496094c6.3110352-4.0219727-8.3427734-15.777832-12.9614258-13.0009766
					C455.625,211.6245117,463.046875,228.3100586,473.2314453,221.8496094z"/>
			</g>
			<g>
				<path fill="#5B3520" d="M323.5498047,391.5078125c0,0,9.0058594-90.0771484-13.2319336-103.078125
					c-22.2929688-12.9755859-53.3618164,25.2832031-53.3618164,25.2832031S326.8813477,335.7890625,323.5498047,391.5078125z"/>
			</g>
			<g>
				<path fill="#5B3520" d="M103.8745117,301.6328125c0,0-36.1606445,63.0878906-46.3720703,82.6015625
					C57.5024414,384.234375,58.4228516,321.109375,103.8745117,301.6328125z"/>
			</g>
			<g>
				<path fill="#5B3520" d="M114.9262695,351.1083984c0,0,2.7895508-22.2128906,29.9311523-31.7861328
					c14.7348633-5.2001953,26.8701172-6.9355469,26.8701172-6.9355469S83.1396484,240.6894531,114.9262695,351.1083984z"/>
			</g>
			<g>
				<path fill="#5B3520" d="M364.1254883,158.4667969c0,0-27.8320312,2.8032227-21.3173828,21.3574219
					c6.4736328,18.5136719,30.5947266,1.8422852,30.5947266,1.8422852S331.6621094,181.6665039,364.1254883,158.4667969z"/>
			</g>
			<g>
				<path fill="#5B3520" d="M438.9399414,132.8554688c0,0-11.0922852,5.5527344-12.0400391,13.9091797
					c-0.9355469,8.3432617-0.9355469,8.3432617-0.9355469,8.3432617l-9.3447266-16.7265625
					C416.6196289,138.3813477,421.3198242,131.9487305,438.9399414,132.8554688z"/>
			</g>
			<g>
				<path fill="#5B3725" d="M437.9238281,186.9750977c0,0-28.6850586,8.4785156-31.6235352,4.5913086
					c-2.9125977-3.9277344,2.0444336-8.7084961,16.8745117-10.5097656
					C437.9648438,179.2016602,437.9238281,186.9750977,437.9238281,186.9750977z"/>
			</g>
			<g>
				<path fill="#E6E7E8" d="M406.9233398,197.2275391c0,0,30.0253906,13.746582,30.1879883-3.128418
					C437.2197266,178.5917969,410.1601562,184.2124023,406.9233398,197.2275391z"/>
			</g>
			<g>
				<path fill="#3B2314" d="M412.7597656,191.0522461c0,3.9140625,3.1826172,7.1098633,7.1108398,7.1098633
					c3.940918,0,7.1240234-3.1958008,7.1240234-7.1098633c0-3.9550781-3.1831055-7.1376953-7.1240234-7.1376953
					C415.9423828,183.9145508,412.7597656,187.097168,412.7597656,191.0522461z"/>
			</g>
			<g>
				<path fill="#5B3520" d="M120.5874023,290.7177734c0,0,98.3115234-4.8496094,115.0375977-0.1884766
					c16.6860352,4.6308594-47.8349609,12.6914062-68.2314453,20.125c0,0-2.5869141,3.3857422-15.6020508,4.3349609
					C138.8442383,315.9375,120.5874023,290.7177734,120.5874023,290.7177734z"/>
			</g>
			<g>
				<path fill="#5B3725" d="M356.1621094,227.8896484l16.7255859,30.8125l0,0
					C372.8876953,258.7021484,351.1376953,277.8779297,356.1621094,227.8896484z"/>
			</g>
			<g>
				<path fill="#5B3725" d="M437.9648438,138.3813477c0,0-9.2915039,9.25-8.3300781,16.6855469
					C430.5424805,162.5019531,452.7807617,149.5141602,437.9648438,138.3813477z"/>
			</g>
			<g>
				<path fill="#5B3725" d="M370.6396484,167.7841797c-1.8818359-2.3295898-18.5678711-0.9750977-14.8574219,3.6704102
					C359.5205078,176.0996094,386.4179688,187.2329102,370.6396484,167.7841797z"/>
			</g>
			<g>
				<path fill="#DAC3B3" d="M298.4941406,220.3598633c4.5776367,14.6269531-24.2431641,7.5439453-26.9516602,19.6386719
					c-2.6547852,12.0932617-67.1894531,2.6811523-52.3725586-6.7456055
					C233.9189453,223.8950195,291.7763672,198.8798828,298.4941406,220.3598633z"/>
			</g>
			<g>
				<path fill="#DAC3B3" d="M97.4550781,243.8037109c0.9077148-11.2280273,61.7036133-27.9262695,66.8637695-35.4291992
					c5.1333008-7.5039062,3.4404297,46.1010742-9.2363281,48.4584961
					C142.4462891,259.1611328,96.1274414,260.2871094,97.4550781,243.8037109z"/>
			</g>
		</g>
		<g>
			<g>
				<polygon fill="#FAAF40" points="365.5473633,178.4160156 382.3955078,200.8706055 378.1835938,216.3100586 
					343.0927734,217.7192383 338.8666992,200.8706055 350.1079102,177.0078125 				"/>
			</g>
			<g>
				<polygon fill="#ED8B25" points="365.6020508,186.4604492 377.8046875,202.7128906 374.7436523,213.8999023 
					349.3364258,214.9155273 346.2890625,202.7128906 354.4150391,185.4311523 				"/>
			</g>
		</g>
	</g>
</g>
<g>
	<g>
		<path fill="#404041" d="M213.5219727,130.472168c-10.0424805,0-19.4887695-3.9072266-26.5854492-11.0107422
			c-7.1035156-7.1035156-11.0175781-16.550293-11.0239258-26.5927734c0-10.0356445,3.9067383-19.4755859,11.0107422-26.5786133
			c14.2001953-14.2211914,38.984375-14.2211914,53.1850586,0c14.6538086,14.6533203,14.6538086,38.5039062,0,53.1713867
			C233.0117188,126.5649414,223.5649414,130.472168,213.5219727,130.472168z M213.5219727,69.140625
			c-6.3452148,0-12.3037109,2.4648438-16.793457,6.9541016c-4.4829102,4.4833984-6.9477539,10.4360352-6.9477539,16.7739258
			c0,6.3383789,2.4711914,12.2978516,6.9614258,16.7871094c8.965332,8.965332,24.5952148,8.965332,33.5605469,0
			c9.2436523-9.2573242,9.2436523-24.3105469,0-33.5610352C225.8198242,71.6054688,219.8608398,69.140625,213.5219727,69.140625z"/>
	</g>
	<g>
		
			<rect x="240.420105" y="34.0006409" transform="matrix(0.7071068 0.7071068 -0.7071068 0.7071068 112.9727478 -158.1197205)" fill="#404041" width="13.8673029" height="46.6193275"/>
	</g>
	<g>
		<polygon fill="#404041" points="275.1044922,79.8466797 261.2358398,79.8466797 261.2358398,44.2954102 226.5375977,44.28125 
			226.5375977,30.4130859 275.1044922,30.4267578 		"/>
	</g>
</g>
<g>
</g>
<g>
</g>
<g>
</g>
<g>
</g>
<g>
</g>
<g>
</g>
</svg>
