<?xml version="1.0" encoding="utf-8"?>
<!-- Generator: Adobe Illustrator 16.0.0, SVG Export Plug-In . SVG Version: 6.00 Build 0)  -->
<!DOCTYPE svg PUBLIC "-//W3C//DTD SVG 1.1//EN" "http://www.w3.org/Graphics/SVG/1.1/DTD/svg11.dtd">
<svg version="1.1" id="Layer_1" xmlns="http://www.w3.org/2000/svg" xmlns:xlink="http://www.w3.org/1999/xlink" x="0px" y="0px"
	 width="192.818px" height="43.723px" viewBox="0 0 192.818 43.723" enable-background="new 0 0 192.818 43.723"
	 xml:space="preserve">
<g>
	<path fill="#242935" d="M64.714,19.216h6.077L60.15,40.674H53.75l-1.526-21.458h5.607l0.396,11.757v0.749
		c0,1.407-0.079,2.662-0.236,3.759h0.117c0.138-0.628,0.355-1.398,0.654-2.313c0.298-0.913,0.57-1.626,0.814-2.135L64.714,19.216z"
		/>
	<path fill="#242935" d="M80.297,40.674h-12.74l4.535-21.458h12.741l-0.954,4.652h-7.001l-0.69,3.376h6.518l-1.058,4.651h-6.517
		l-0.837,4.053h7.001L80.297,40.674z"/>
	<path fill="#242935" d="M93.193,28.111h8.954L99.696,39.78c-2.445,0.792-4.996,1.188-7.646,1.188c-2.554,0-4.535-0.742-5.945-2.23
		c-1.409-1.486-2.113-3.598-2.113-6.326c0-2.612,0.538-4.971,1.614-7.076c1.076-2.104,2.551-3.702,4.426-4.805
		c1.874-1.103,4.054-1.652,6.538-1.652c2.604,0,4.795,0.523,6.576,1.572l-2.157,4.534c-1.498-0.88-2.994-1.323-4.491-1.323
		c-1.291,0-2.435,0.357-3.429,1.066c-0.992,0.709-1.785,1.759-2.377,3.146c-0.591,1.389-0.888,2.872-0.888,4.447
		c0,2.585,1.022,3.877,3.067,3.877c0.616,0,1.268-0.069,1.952-0.206l0.749-3.407h-3.36L93.193,28.111z"/>
	<path fill="#242935" d="M115.116,18.877c2.546,0,4.522,0.728,5.937,2.181c1.416,1.453,2.122,3.481,2.122,6.084
		c0,2.604-0.486,4.982-1.459,7.14c-0.975,2.16-2.318,3.813-4.029,4.964c-1.712,1.149-3.698,1.725-5.959,1.725
		c-2.634,0-4.667-0.729-6.099-2.188c-1.436-1.458-2.152-3.482-2.152-6.077c0-2.593,0.506-4.977,1.513-7.146
		c1.009-2.173,2.382-3.83,4.118-4.97C110.844,19.448,112.846,18.877,115.116,18.877z M117.378,27.199
		c0-1.115-0.235-1.988-0.704-2.62c-0.47-0.63-1.149-0.945-2.04-0.945c-0.969,0-1.86,0.411-2.673,1.231
		c-0.813,0.822-1.459,1.953-1.945,3.393c-0.481,1.438-0.726,2.91-0.726,4.418c0,2.367,0.979,3.552,2.936,3.552
		c0.93,0,1.793-0.405,2.591-1.218c0.798-0.813,1.424-1.907,1.878-3.288C117.149,30.342,117.378,28.833,117.378,27.199z"/>
	<path fill="#242935" d="M137.518,34.377c0,2.175-0.718,3.863-2.158,5.072c-1.438,1.208-3.443,1.813-6.018,1.813
		c-1.077,0-2.095-0.119-3.054-0.359c-0.959-0.239-1.785-0.59-2.481-1.05v-5.137c0.823,0.518,1.765,0.953,2.826,1.306
		c1.063,0.354,2.023,0.529,2.884,0.529c0.725,0,1.273-0.152,1.646-0.456c0.371-0.303,0.557-0.734,0.557-1.291
		c0-0.265-0.059-0.513-0.178-0.742c-0.115-0.229-0.282-0.46-0.497-0.688c-0.215-0.229-0.793-0.735-1.73-1.521
		c-1.146-0.921-1.979-1.859-2.497-2.817c-0.519-0.959-0.776-2.012-0.776-3.156c0-1.28,0.319-2.436,0.961-3.456
		c0.642-1.021,1.546-1.815,2.715-2.379c1.17-0.563,2.479-0.843,3.928-0.843c2.338,0,4.443,0.523,6.313,1.571l-1.982,4.357
		c-1.673-0.86-3.098-1.29-4.271-1.29c-0.626,0-1.109,0.138-1.446,0.41c-0.338,0.272-0.506,0.674-0.506,1.202
		c0,0.48,0.163,0.928,0.49,1.344c0.329,0.416,0.952,0.974,1.872,1.666c1.155,0.853,2.01,1.746,2.568,2.687
		C137.239,32.087,137.518,33.164,137.518,34.377z"/>
	<path fill="#242935" d="M152.836,19.509h6.075l-10.643,21.46h-6.396l-1.528-21.46h5.608l0.396,11.759v0.748
		c0,1.406-0.077,2.661-0.234,3.758h0.118c0.138-0.625,0.354-1.397,0.652-2.313c0.3-0.913,0.57-1.625,0.814-2.134L152.836,19.509z"/>
	<path fill="#242935" d="M167.41,36.948h-6.576L159,40.97h-5.961l10.922-21.46h7.382l1.806,21.46h-5.593L167.41,36.948z
		 M162.933,32.367h4.3l-0.251-6.223l-0.026-1.265c0-0.732,0.02-1.373,0.059-1.923c-0.235,0.842-0.534,1.654-0.896,2.438
		L162.933,32.367z"/>
	<path fill="#242935" d="M181.508,33.16l-1.657,7.811h-5.739l4.535-21.462h5.682c2.466,0,4.354,0.488,5.666,1.469
		c1.312,0.979,1.966,2.453,1.966,4.418c0,1.525-0.348,2.856-1.042,3.992c-0.693,1.135-1.728,2.001-3.098,2.598l3.287,7.573
		l0.588,1.412h-6.253l-2.861-7.811H181.508z M182.433,28.801h0.75c0.93,0,1.668-0.268,2.215-0.801
		c0.548-0.532,0.823-1.278,0.823-2.237c0-0.606-0.169-1.068-0.508-1.389c-0.336-0.317-0.828-0.476-1.476-0.476h-0.776
		L182.433,28.801z"/>
</g>
<path fill="#242935" d="M42.181,30.897c1.367-2.896,2.059-5.991,2.059-9.208C44.24,9.73,34.51,0,22.55,0
	C10.589,0,0.858,9.73,0.858,21.689s9.731,21.688,21.692,21.688c3.23,0,6.336-0.697,9.24-2.075l12.798,2.421L42.181,30.897z
	 M40.028,39.156l-8.768-1.655l-0.554,0.28c-2.552,1.299-5.293,1.959-8.157,1.959c-2.795,0-5.443-0.639-7.809-1.779
	c1.53-4.66,3.02-7.899,4.004-8.531c0.179-0.11,1.055-0.328,1.974-0.48c3.567-0.589,6.433-2.169,8.463-4.677
	c1.357-1.676,1.715-2.907,2.058-7.023c0.179-2.181,0.288-2.796,0.699-4.101c0.261-0.85,0.439-1.616,0.413-1.713
	c-0.097-0.248-0.316-0.218-2.551,0.372c-1.098,0.288-3.417,0.808-5.145,1.149c-4.402,0.864-5.103,1.125-7.063,2.58
	c-2.784,2.069-4.732,6.075-4.718,9.709c0.014,1.385,0.22,2.373,0.453,2.113c0.056-0.068,0.247-0.467,0.411-0.877
	c0.835-2.019,3.265-5.091,5.334-6.75c1.058-0.852,3.184-1.688,3.184-1.248c0,0.152-0.728,1.057-1.591,1.963
	c-0.811,0.862-1.083,1.221-2.605,3.427c-1.577,2.32-3.635,6.461-5.021,10.149c-0.318,0.85-0.609,1.642-0.889,2.408
	c-4.625-3.273-7.653-8.658-7.653-14.742c0-9.953,8.098-18.051,18.053-18.051c9.954,0,18.051,8.098,18.051,18.051
	c0,2.851-0.653,5.584-1.941,8.129l-0.279,0.551L40.028,39.156z"/>
<g>
	<path fill="#242935" d="M59.594,5.897c0,1.125-0.228,2.118-0.679,2.979c-0.453,0.862-1.1,1.526-1.939,1.991
		s-1.825,0.698-2.955,0.698h-2.274l1.998-9.452h2.211c1.188,0,2.093,0.322,2.711,0.966C59.285,3.726,59.594,4.664,59.594,5.897z
		 M54.092,10.615c0.871,0,1.636-0.198,2.295-0.591c0.66-0.396,1.165-0.952,1.516-1.671c0.353-0.72,0.527-1.543,0.527-2.469
		c0-0.928-0.222-1.628-0.666-2.104c-0.444-0.476-1.095-0.715-1.953-0.715h-1.149l-1.616,7.551L54.092,10.615L54.092,10.615z"/>
	<path fill="#242935" d="M63.188,11.695c-0.793,0-1.416-0.235-1.869-0.704c-0.452-0.47-0.678-1.121-0.678-1.953
		c0-0.81,0.161-1.587,0.481-2.331c0.32-0.743,0.746-1.32,1.276-1.734s1.114-0.621,1.752-0.621c0.659,0,1.155,0.144,1.487,0.43
		c0.332,0.287,0.498,0.688,0.498,1.2c0,0.774-0.357,1.384-1.073,1.826c-0.716,0.441-1.739,0.663-3.071,0.663h-0.213l-0.025,0.517
		c0,0.564,0.132,1.005,0.396,1.322c0.266,0.316,0.675,0.475,1.231,0.475c0.271,0,0.55-0.039,0.837-0.116
		c0.286-0.078,0.644-0.22,1.07-0.427v0.943c-0.405,0.189-0.764,0.321-1.073,0.397C63.905,11.657,63.563,11.695,63.188,11.695z
		 M64.086,5.276c-0.444,0-0.861,0.203-1.25,0.608c-0.392,0.404-0.689,0.967-0.896,1.687h0.078c0.982,0,1.735-0.128,2.259-0.385
		c0.523-0.256,0.786-0.628,0.786-1.115c0-0.229-0.079-0.418-0.235-0.569C64.669,5.352,64.423,5.276,64.086,5.276z"/>
	<path fill="#242935" d="M71.289,9.556c0,0.672-0.238,1.196-0.715,1.573c-0.476,0.378-1.146,0.565-2.013,0.565
		c-0.729,0-1.386-0.148-1.972-0.446v-1.021c0.302,0.181,0.626,0.321,0.976,0.42c0.351,0.099,0.673,0.147,0.971,0.147
		c0.543,0,0.951-0.107,1.229-0.322c0.275-0.216,0.413-0.492,0.413-0.828c0-0.245-0.075-0.452-0.226-0.621
		c-0.151-0.168-0.477-0.398-0.978-0.691c-0.56-0.314-0.957-0.623-1.188-0.925c-0.232-0.301-0.35-0.659-0.35-1.073
		c0-0.594,0.218-1.073,0.653-1.438c0.435-0.364,1.008-0.546,1.72-0.546c0.737,0,1.448,0.16,2.133,0.479l-0.35,0.887l-0.362-0.162
		c-0.435-0.186-0.909-0.278-1.422-0.278c-0.401,0-0.715,0.094-0.944,0.281c-0.229,0.188-0.342,0.43-0.342,0.728
		c0,0.241,0.077,0.448,0.229,0.621c0.152,0.172,0.469,0.395,0.947,0.666c0.461,0.258,0.792,0.48,0.992,0.666
		c0.2,0.185,0.351,0.385,0.449,0.598C71.239,9.049,71.289,9.288,71.289,9.556z"/>
	<path fill="#242935" d="M73.674,11.566h-1.086L74.1,4.481h1.086L73.674,11.566z M74.404,2.67c0-0.24,0.069-0.438,0.207-0.591
		c0.14-0.153,0.317-0.229,0.537-0.229c0.379,0,0.569,0.193,0.569,0.582c0,0.236-0.072,0.438-0.216,0.601
		C75.356,3.198,75.189,3.28,75,3.28c-0.173,0-0.315-0.053-0.428-0.158C74.461,3.015,74.404,2.865,74.404,2.67z"/>
	<path fill="#242935" d="M82.679,4.481l-0.162,0.691l-1.364,0.155c0.178,0.269,0.266,0.608,0.266,1.021
		c0,0.822-0.25,1.479-0.753,1.969c-0.502,0.489-1.175,0.734-2.015,0.734c-0.236,0-0.418-0.018-0.543-0.053
		C77.509,9.228,77.21,9.51,77.21,9.846c0,0.178,0.07,0.294,0.213,0.354c0.143,0.059,0.349,0.104,0.621,0.138l0.756,0.092
		c0.78,0.095,1.346,0.284,1.697,0.567c0.351,0.285,0.526,0.703,0.526,1.255c0,0.792-0.314,1.407-0.943,1.843
		c-0.628,0.436-1.516,0.652-2.657,0.652c-0.836,0-1.491-0.159-1.965-0.475c-0.475-0.317-0.711-0.764-0.711-1.342
		c0-0.452,0.154-0.846,0.465-1.177c0.31-0.332,0.813-0.613,1.507-0.847c-0.337-0.176-0.505-0.437-0.505-0.782
		c0-0.297,0.109-0.553,0.33-0.766c0.22-0.213,0.525-0.413,0.917-0.598c-0.271-0.139-0.494-0.343-0.666-0.611
		c-0.173-0.27-0.258-0.583-0.258-0.94c0-0.836,0.257-1.521,0.771-2.056c0.515-0.534,1.173-0.802,1.976-0.802
		c0.336,0,0.668,0.043,0.995,0.129H82.679z M75.794,12.826c0,0.332,0.14,0.595,0.42,0.789s0.696,0.291,1.248,0.291
		c0.785,0,1.397-0.136,1.839-0.41c0.442-0.273,0.663-0.661,0.663-1.161c0-0.267-0.116-0.479-0.35-0.633
		c-0.232-0.155-0.629-0.263-1.188-0.323l-1.028-0.104c-0.517,0.108-0.914,0.297-1.188,0.568
		C75.933,12.115,75.794,12.443,75.794,12.826z M77.592,7.169c0,0.366,0.097,0.646,0.291,0.838s0.463,0.287,0.808,0.287
		c0.34,0,0.639-0.09,0.893-0.271s0.449-0.43,0.585-0.747c0.135-0.317,0.203-0.661,0.203-1.032c0-0.354-0.096-0.623-0.284-0.808
		c-0.19-0.187-0.462-0.278-0.815-0.278c-0.336,0-0.63,0.087-0.883,0.262c-0.251,0.176-0.448,0.418-0.588,0.73
		C77.662,6.463,77.592,6.804,77.592,7.169z"/>
	<path fill="#242935" d="M86.914,11.566l0.957-4.474C87.957,6.643,88,6.332,88,6.16c0-0.271-0.076-0.489-0.23-0.652
		c-0.151-0.164-0.396-0.246-0.732-0.246c-0.385,0-0.758,0.129-1.122,0.388c-0.365,0.259-0.686,0.627-0.963,1.104
		c-0.278,0.479-0.488,1.059-0.631,1.739l-0.652,3.071h-1.086l1.513-7.085h0.899l-0.143,1.313h0.064
		c0.414-0.525,0.813-0.896,1.2-1.114c0.386-0.219,0.784-0.327,1.198-0.327c0.547,0,0.979,0.148,1.296,0.449
		c0.317,0.3,0.476,0.719,0.476,1.258c0,0.34-0.049,0.728-0.148,1.163l-0.924,4.345H86.914z"/>
	<path fill="#242935" d="M93.973,4.352c0.397,0,0.75,0.106,1.062,0.319c0.31,0.214,0.551,0.521,0.724,0.923h0.071l0.433-1.112h0.821
		l-1.506,7.085h-0.86l0.167-1.351h-0.052c-0.771,0.985-1.583,1.479-2.438,1.479c-0.599,0-1.067-0.213-1.409-0.64
		c-0.34-0.428-0.511-1.012-0.511-1.751c0-0.896,0.153-1.729,0.458-2.496c0.306-0.769,0.729-1.369,1.269-1.805
		S93.331,4.352,93.973,4.352z M92.745,10.796c0.418,0,0.835-0.198,1.248-0.597s0.75-0.919,1.009-1.559
		C95.26,8,95.39,7.36,95.39,6.718c0-0.444-0.121-0.798-0.362-1.061c-0.24-0.263-0.558-0.395-0.949-0.395
		c-0.448,0-0.865,0.186-1.25,0.556c-0.387,0.37-0.689,0.873-0.909,1.506c-0.221,0.633-0.33,1.302-0.33,2.004
		c0,0.491,0.102,0.859,0.304,1.103S92.379,10.796,92.745,10.796z"/>
	<path fill="#242935" d="M101.453,4.365c0.836,0,1.441,0.409,1.816,1.229h0.065c0.072-0.668,0.17-1.26,0.291-1.771l0.504-2.313
		h1.073l-2.135,10.059h-0.897l0.143-1.351h-0.052c-0.436,0.538-0.843,0.92-1.223,1.144c-0.378,0.224-0.771,0.336-1.177,0.336
		c-0.6,0-1.066-0.21-1.402-0.633c-0.336-0.422-0.504-1.008-0.504-1.758c0-0.923,0.154-1.769,0.465-2.535
		c0.31-0.769,0.729-1.36,1.257-1.778C100.206,4.573,100.797,4.365,101.453,4.365z M100.225,10.796c0.405,0,0.823-0.201,1.254-0.604
		c0.432-0.403,0.773-0.917,1.025-1.544c0.252-0.628,0.378-1.267,0.378-1.917c0-0.479-0.117-0.843-0.35-1.093
		c-0.232-0.249-0.57-0.375-1.015-0.375c-0.435,0-0.839,0.178-1.212,0.532c-0.373,0.355-0.672,0.856-0.899,1.5
		c-0.226,0.645-0.339,1.322-0.339,2.033C99.067,10.308,99.453,10.796,100.225,10.796z"/>
	<path fill="#242935" d="M108.83,9.355c0-0.638,0.192-1.193,0.582-1.665c0.388-0.472,1.04-0.927,1.959-1.367
		c-0.444-0.711-0.666-1.377-0.666-1.998c0-0.707,0.228-1.277,0.685-1.71c0.457-0.434,1.063-0.648,1.816-0.648
		c0.643,0,1.151,0.17,1.528,0.511s0.565,0.797,0.565,1.37c0,0.336-0.07,0.632-0.209,0.886c-0.142,0.254-0.329,0.486-0.567,0.698
		c-0.234,0.212-0.512,0.404-0.821,0.582c-0.313,0.176-0.645,0.354-0.992,0.536l1.797,2.515c0.547-0.475,0.975-1.11,1.286-1.907
		h1.085c-0.436,1.019-1.045,1.905-1.829,2.664l1.313,1.746h-1.3l-0.756-1.073c-0.518,0.432-1.013,0.739-1.486,0.924
		c-0.475,0.186-1.007,0.277-1.598,0.277c-0.725,0-1.305-0.207-1.739-0.621C109.046,10.66,108.83,10.087,108.83,9.355z
		 M111.448,10.796c0.375,0,0.736-0.07,1.087-0.213c0.349-0.142,0.77-0.408,1.261-0.801l-1.979-2.799
		c-0.552,0.289-0.947,0.539-1.188,0.75c-0.242,0.211-0.427,0.443-0.555,0.695c-0.127,0.252-0.19,0.534-0.19,0.85
		c0,0.457,0.145,0.824,0.431,1.102S110.977,10.796,111.448,10.796z M113.168,2.852c-0.452,0-0.805,0.129-1.056,0.388
		c-0.25,0.259-0.375,0.625-0.375,1.099c0,0.518,0.179,1.024,0.531,1.521c0.601-0.306,1.01-0.543,1.233-0.711
		c0.225-0.168,0.402-0.353,0.537-0.55c0.134-0.198,0.199-0.422,0.199-0.672c0-0.331-0.091-0.595-0.272-0.785
		C113.782,2.947,113.517,2.852,113.168,2.852z"/>
	<path fill="#242935" d="M124.235,11.695c-0.418,0-0.785-0.11-1.102-0.33c-0.317-0.22-0.556-0.519-0.715-0.897h-0.065l-0.451,1.099
		h-0.809l2.134-10.059h1.087c-0.221,1.042-0.391,1.841-0.508,2.395c-0.119,0.554-0.282,1.201-0.49,1.943h0.061
		c0.4-0.509,0.796-0.884,1.186-1.122c0.392-0.239,0.792-0.358,1.206-0.358c0.608,0,1.082,0.213,1.422,0.64
		c0.342,0.427,0.512,1.014,0.512,1.759c0,0.899-0.147,1.732-0.442,2.499c-0.296,0.765-0.707,1.361-1.235,1.791
		C125.495,11.481,124.9,11.695,124.235,11.695z M125.438,5.263c-0.414,0-0.835,0.205-1.265,0.613
		c-0.429,0.41-0.77,0.926-1.021,1.545c-0.252,0.621-0.378,1.257-0.378,1.907c0,0.475,0.12,0.837,0.359,1.089
		s0.584,0.378,1.037,0.378c0.426,0,0.824-0.174,1.191-0.522c0.369-0.351,0.665-0.846,0.891-1.49
		c0.224-0.644,0.337-1.328,0.337-2.052C126.589,5.751,126.205,5.263,125.438,5.263z"/>
	<path fill="#242935" d="M131.534,11.695c-0.794,0-1.416-0.235-1.868-0.704c-0.453-0.47-0.68-1.121-0.68-1.953
		c0-0.81,0.161-1.587,0.481-2.331c0.321-0.743,0.747-1.32,1.277-1.734c0.528-0.414,1.113-0.621,1.752-0.621
		c0.658,0,1.154,0.144,1.485,0.43c0.332,0.287,0.498,0.688,0.498,1.2c0,0.774-0.356,1.384-1.073,1.826
		c-0.715,0.441-1.737,0.663-3.07,0.663h-0.214L130.1,8.987c0,0.564,0.131,1.005,0.396,1.322c0.265,0.316,0.676,0.475,1.229,0.475
		c0.272,0,0.552-0.039,0.839-0.116c0.286-0.078,0.645-0.22,1.068-0.427v0.943c-0.405,0.189-0.763,0.321-1.072,0.397
		C132.252,11.657,131.909,11.695,131.534,11.695z M132.433,5.276c-0.444,0-0.861,0.203-1.252,0.608
		c-0.39,0.404-0.688,0.967-0.895,1.687h0.076c0.983,0,1.735-0.128,2.261-0.385c0.522-0.256,0.784-0.628,0.784-1.115
		c0-0.229-0.077-0.418-0.234-0.569C133.015,5.352,132.769,5.276,132.433,5.276z"/>
	<path fill="#242935" d="M139.744,4.352c0.297,0,0.556,0.031,0.774,0.091l-0.23,0.969c-0.229-0.056-0.454-0.084-0.68-0.084
		c-0.393,0-0.76,0.129-1.104,0.389c-0.342,0.258-0.643,0.616-0.897,1.075c-0.257,0.459-0.444,0.97-0.565,1.529l-0.691,3.245h-1.086
		l1.513-7.085h0.898l-0.142,1.313h0.063c0.312-0.409,0.566-0.704,0.771-0.882c0.201-0.179,0.414-0.316,0.637-0.414
		C139.227,4.401,139.472,4.352,139.744,4.352z"/>
	<path fill="#242935" d="M144.256,4.352c0.396,0,0.751,0.106,1.06,0.319c0.313,0.214,0.554,0.521,0.726,0.923h0.07l0.435-1.112
		h0.819l-1.506,7.085H145l0.169-1.351h-0.052c-0.771,0.985-1.583,1.479-2.438,1.479c-0.599,0-1.069-0.213-1.409-0.64
		c-0.34-0.428-0.511-1.012-0.511-1.751c0-0.896,0.153-1.729,0.458-2.496c0.308-0.769,0.729-1.369,1.269-1.805
		C143.025,4.569,143.615,4.352,144.256,4.352z M143.029,10.796c0.418,0,0.834-0.198,1.248-0.597
		c0.413-0.398,0.748-0.919,1.009-1.559c0.259-0.641,0.388-1.281,0.388-1.923c0-0.444-0.12-0.798-0.362-1.061
		c-0.241-0.263-0.558-0.395-0.95-0.395c-0.447,0-0.864,0.186-1.251,0.556c-0.385,0.37-0.688,0.873-0.907,1.506
		c-0.221,0.633-0.329,1.302-0.329,2.004c0,0.491,0.102,0.859,0.304,1.103S142.662,10.796,143.029,10.796z M143.061,2.657
		c0-0.198,0.061-0.37,0.182-0.514c0.119-0.145,0.278-0.216,0.479-0.216c0.336,0,0.505,0.172,0.505,0.518
		c0,0.211-0.063,0.39-0.191,0.536c-0.127,0.146-0.273,0.22-0.442,0.22c-0.15,0-0.275-0.047-0.377-0.142
		C143.111,2.963,143.061,2.83,143.061,2.657z M145.414,2.657c0-0.198,0.061-0.37,0.182-0.514c0.12-0.145,0.282-0.216,0.484-0.216
		c0.331,0,0.498,0.172,0.498,0.518c0,0.211-0.063,0.39-0.19,0.536c-0.128,0.146-0.275,0.22-0.442,0.22
		c-0.151,0-0.277-0.047-0.379-0.142C145.464,2.963,145.414,2.83,145.414,2.657z"/>
	<path fill="#242935" d="M150.159,10.81c0.235,0,0.547-0.057,0.931-0.168v0.833c-0.147,0.061-0.328,0.111-0.544,0.154
		s-0.387,0.064-0.518,0.064c-0.539,0-0.95-0.128-1.237-0.384c-0.286-0.257-0.43-0.64-0.43-1.147c0-0.284,0.038-0.607,0.115-0.969
		l0.821-3.893h-1.112l0.091-0.473l1.195-0.504l0.81-1.474h0.633L150.56,4.48h1.771l-0.169,0.821h-1.766l-0.834,3.904
		c-0.077,0.375-0.116,0.66-0.116,0.854c0,0.241,0.063,0.427,0.188,0.556C149.759,10.744,149.935,10.81,150.159,10.81z"/>
	<path fill="#242935" d="M154.452,10.81c0.235,0,0.548-0.057,0.931-0.168v0.833c-0.147,0.061-0.327,0.111-0.542,0.154
		c-0.216,0.043-0.389,0.064-0.52,0.064c-0.537,0-0.95-0.128-1.236-0.384c-0.287-0.257-0.431-0.64-0.431-1.147
		c0-0.284,0.039-0.607,0.115-0.969l0.822-3.893h-1.112l0.091-0.473l1.195-0.504l0.81-1.474h0.633l-0.355,1.629h1.771l-0.168,0.822
		h-1.766l-0.834,3.904c-0.077,0.375-0.115,0.66-0.115,0.854c0,0.241,0.062,0.427,0.188,0.556
		C154.052,10.744,154.228,10.81,154.452,10.81z"/>
	<path fill="#242935" d="M160.321,4.352c0.397,0,0.751,0.106,1.062,0.319c0.311,0.214,0.551,0.521,0.725,0.923h0.07l0.435-1.112
		h0.819l-1.506,7.085h-0.859l0.168-1.351h-0.052c-0.771,0.985-1.583,1.479-2.438,1.479c-0.6,0-1.069-0.213-1.408-0.64
		c-0.342-0.428-0.511-1.012-0.511-1.751c0-0.896,0.151-1.729,0.457-2.496c0.308-0.769,0.729-1.369,1.269-1.805
		C159.089,4.569,159.679,4.352,160.321,4.352z M159.093,10.796c0.418,0,0.834-0.198,1.248-0.597
		c0.413-0.398,0.749-0.919,1.008-1.559c0.259-0.641,0.388-1.281,0.388-1.923c0-0.444-0.119-0.798-0.361-1.061
		c-0.241-0.263-0.558-0.395-0.95-0.395c-0.448,0-0.864,0.186-1.251,0.556c-0.386,0.37-0.688,0.873-0.908,1.506
		s-0.329,1.302-0.329,2.004c0,0.491,0.103,0.859,0.303,1.103C158.442,10.675,158.727,10.796,159.093,10.796z"/>
	<path fill="#242935" d="M167.801,4.365c0.836,0,1.44,0.409,1.815,1.229h0.064c0.073-0.668,0.171-1.26,0.291-1.771l0.505-2.313
		h1.072l-2.132,10.059h-0.899l0.143-1.351h-0.053c-0.435,0.538-0.842,0.92-1.222,1.144c-0.379,0.224-0.771,0.336-1.177,0.336
		c-0.599,0-1.066-0.21-1.401-0.633c-0.337-0.422-0.505-1.008-0.505-1.758c0-0.923,0.155-1.769,0.465-2.535
		c0.312-0.769,0.729-1.36,1.258-1.778C166.555,4.574,167.147,4.365,167.801,4.365z M166.573,10.796c0.405,0,0.823-0.201,1.255-0.604
		c0.431-0.402,0.772-0.917,1.023-1.544c0.253-0.628,0.38-1.267,0.38-1.917c0-0.479-0.117-0.843-0.35-1.093
		c-0.232-0.249-0.571-0.375-1.017-0.375c-0.436,0-0.839,0.178-1.213,0.532c-0.371,0.355-0.672,0.856-0.896,1.5
		c-0.228,0.645-0.339,1.322-0.339,2.033C165.417,10.308,165.802,10.796,166.573,10.796z"/>
	<path fill="#242935" d="M178.881,4.352c0.396,0,0.751,0.106,1.06,0.319c0.313,0.214,0.553,0.521,0.726,0.923h0.07l0.435-1.112
		h0.819l-1.507,7.085h-0.858l0.169-1.351h-0.052c-0.771,0.985-1.583,1.479-2.438,1.479c-0.6,0-1.069-0.213-1.409-0.64
		c-0.34-0.428-0.511-1.012-0.511-1.751c0-0.896,0.153-1.729,0.458-2.496c0.308-0.769,0.729-1.369,1.269-1.805
		C177.65,4.569,178.24,4.352,178.881,4.352z M177.654,10.796c0.417,0,0.834-0.198,1.247-0.597c0.414-0.398,0.749-0.919,1.01-1.559
		c0.259-0.641,0.387-1.281,0.387-1.923c0-0.444-0.119-0.798-0.361-1.061c-0.241-0.263-0.558-0.395-0.95-0.395
		c-0.447,0-0.864,0.186-1.251,0.556c-0.385,0.37-0.688,0.873-0.907,1.506c-0.221,0.633-0.329,1.302-0.329,2.004
		c0,0.491,0.101,0.859,0.304,1.103C177.003,10.675,177.287,10.796,177.654,10.796z"/>
	<path fill="#242935" d="M183.671,11.566l-0.809-7.085h1.088l0.412,3.963c0.104,1.111,0.155,1.892,0.155,2.339h0.039
		c0.547-1.185,0.933-1.983,1.157-2.397l2.102-3.904h1.15l-3.821,7.085H183.671z"/>
</g>
</svg>
